<?xml version="1.0" encoding="UTF-8"?>
<svg id="Calque_1" xmlns="http://www.w3.org/2000/svg" viewBox="0 0 120 120">
  <path fill="#4a8c72"
    d="m92.92,9.09c-16.8,6-21,8.1-21.6,10.7-1,3.7.3,4.4,8.3,4.4,9.1,0,24-3.3,28.5-6.4,4.1-2.7,4.8-6.4,1.6-9.3-3.7-3.4-5.7-3.3-16.8.6Z"/>
  <path fill="#4a8c72"
    d="m64.62,31.99c-3.4,3.8-2.2,5.5,6,9.1,9.1,3.9,12.6,3.5,13.1-1.3.6-4.8-3.4-7.5-13.3-9.1-3.3-.5-4.4-.2-5.8,1.3Z"/>
  <path fill="#4a8c72"
    d="m48.22,44.89c-2.1.8-2.6,6.8-.8,10.2.9,1.7,1.9,2.9,2.4,2.7.4-.3.8.1.8.8,0,2.5,9.4,16.7,14.7,22,6.5,6.6,13.5,9.7,17.4,7.5s6.5-6.3,5.7-8.9c-1-3-18.2-21.2-27.4-28.9-6.8-5.7-9.4-6.8-12.8-5.4Z"/>
  <path fill="#4a8c72"
    d="m36.12,59.89c-.7.3-1.7,1.3-2.2,2.4-.8,1.4-.3,3.4,2.4,8.6,5.2,10.4,10,13.8,12.9,9.2,1.3-2.1-1.2-9.1-5.3-14.8-3.2-4.3-5.7-6.1-7.8-5.4Z"/>
  <path fill="#4a8c72"
    d="m13.02,61.89c-6.4,5.2-6.3,37.4.1,51.5,3,6.6,6.9,8.8,11.8,6.8,3.8-1.6,5.5-6.4,4.6-13.9-2.8-26.2-5.9-39.6-9.8-43.8-2.6-2.8-3.9-2.9-6.7-.6Z"/>
</svg>
