<svg xmlns="http://www.w3.org/2000/svg" xmlns:xlink="http://www.w3.org/1999/xlink" width="500" zoomAndPan="magnify"
  viewBox="0 0 375 374.999991" height="500" preserveAspectRatio="xMidYMid meet" version="1.0">
  <defs>
    <clipPath id="0550e401e4">
      <path d="M 140 104 L 375 104 L 375 360.75 L 140 360.75 Z M 140 104 " clip-rule="nonzero" />
    </clipPath>
    <clipPath id="b3e8d40c8c">
      <path d="M 0.332031 62 L 123 62 L 123 358 L 0.332031 358 Z M 0.332031 62 " clip-rule="nonzero" />
    </clipPath>
    <clipPath id="2a042f8d16">
      <path d="M 155 37.5 L 279 37.5 L 279 100 L 155 100 Z M 155 37.5 " clip-rule="nonzero" />
    </clipPath>
  </defs>
  <g clip-path="url(#0550e401e4)">
    <path fill="#3d7661"
      d="M 297.011719 298.742188 C 301.285156 296.484375 305.558594 294.136719 310.085938 291.921875 C 316.105469 289.011719 322.351562 286.71875 328.824219 285.046875 C 335.296875 283.375 341.871094 282.355469 348.546875 281.984375 C 352.820312 281.6875 356.835938 281.34375 360.980469 281.300781 C 363.699219 281.207031 366.390625 281.4375 369.058594 281.984375 C 369.464844 282.074219 369.867188 282.195312 370.253906 282.351562 C 370.640625 282.511719 371.011719 282.699219 371.367188 282.921875 C 371.722656 283.140625 372.058594 283.390625 372.371094 283.671875 C 372.679688 283.949219 372.964844 284.253906 373.226562 284.582031 C 373.484375 284.910156 373.714844 285.257812 373.914062 285.625 C 374.113281 285.996094 374.277344 286.375 374.410156 286.773438 C 374.542969 287.167969 374.640625 287.574219 374.703125 287.988281 C 374.765625 288.402344 374.792969 288.816406 374.785156 289.234375 C 374.847656 291.472656 374.589844 293.679688 374.015625 295.84375 C 372.828125 300.457031 371.214844 304.917969 369.175781 309.226562 C 367.132812 313.53125 364.703125 317.605469 361.878906 321.449219 C 359.058594 325.292969 355.898438 328.832031 352.398438 332.070312 C 348.898438 335.308594 345.121094 338.1875 341.066406 340.707031 C 336.472656 343.707031 331.671875 346.328125 326.667969 348.582031 C 321.660156 350.832031 316.511719 352.679688 311.214844 354.128906 C 305.921875 355.574219 300.546875 356.605469 295.089844 357.214844 C 289.632812 357.824219 284.164062 358.007812 278.679688 357.765625 C 269.28125 357.179688 259.9375 357.660156 250.648438 359.214844 C 244.921875 360.195312 238.511719 357.894531 233.085938 359.214844 C 227.433594 360.433594 221.734375 360.703125 215.992188 360.023438 C 203.171875 359.34375 190.351562 358.53125 177.535156 357.933594 C 167.789062 357.421875 158.046875 357.167969 148.304688 356.785156 C 147.84375 356.800781 147.382812 356.769531 146.925781 356.691406 C 146.46875 356.609375 146.027344 356.480469 145.597656 356.304688 C 145.171875 356.128906 144.765625 355.910156 144.386719 355.644531 C 144.003906 355.382812 143.65625 355.082031 143.339844 354.746094 C 143.023438 354.40625 142.746094 354.039062 142.507812 353.640625 C 142.273438 353.246094 142.082031 352.828125 141.933594 352.386719 C 141.789062 351.949219 141.6875 351.5 141.640625 351.042969 C 141.589844 350.582031 141.589844 350.121094 141.640625 349.664062 C 141.640625 324.757812 141.640625 299.894531 141.640625 274.992188 C 141.640625 231.109375 141.039062 187.183594 140.742188 143.300781 C 140.742188 141.726562 140.742188 140.105469 140.742188 138.527344 C 140.710938 137.640625 140.828125 136.769531 141.085938 135.921875 C 141.347656 135.074219 141.738281 134.289062 142.261719 133.570312 C 142.785156 132.851562 143.410156 132.238281 144.136719 131.730469 C 144.863281 131.21875 145.65625 130.839844 146.511719 130.59375 C 150.785156 129.101562 155.058594 127.351562 159.074219 125.945312 C 159.503906 125.851562 159.902344 125.6875 160.269531 125.441406 C 160.636719 125.199219 160.949219 124.898438 161.199219 124.539062 C 161.453125 124.179688 161.632812 123.785156 161.738281 123.359375 C 161.84375 122.933594 161.867188 122.5 161.808594 122.066406 C 161.808594 119.507812 161.808594 116.949219 162.066406 114.390625 C 162.535156 106.796875 164.457031 105.007812 172.234375 104.921875 C 178.472656 104.921875 184.710938 104.921875 190.953125 104.921875 L 265.304688 105.179688 C 266.414062 105.179688 267.570312 105.179688 268.679688 105.179688 C 269.179688 105.195312 269.675781 105.265625 270.164062 105.382812 C 270.648438 105.5 271.117188 105.667969 271.570312 105.882812 C 272.023438 106.097656 272.453125 106.351562 272.851562 106.652344 C 273.253906 106.953125 273.621094 107.292969 273.949219 107.667969 C 274.28125 108.042969 274.574219 108.445312 274.824219 108.878906 C 275.070312 109.316406 275.273438 109.769531 275.433594 110.246094 C 275.589844 110.71875 275.695312 111.207031 275.753906 111.703125 C 275.8125 112.199219 275.816406 112.695312 275.773438 113.195312 C 275.773438 117.03125 275.089844 120.828125 274.621094 124.625 C 274.53125 125.257812 274.523438 125.890625 274.597656 126.523438 C 274.667969 127.15625 274.820312 127.773438 275.046875 128.367188 C 275.273438 128.964844 275.574219 129.523438 275.941406 130.046875 C 276.3125 130.566406 276.738281 131.035156 277.226562 131.445312 C 280.390625 134.347656 283.253906 137.628906 286.414062 140.53125 C 286.988281 141.027344 287.5 141.582031 287.945312 142.195312 C 288.390625 142.808594 288.757812 143.464844 289.050781 144.164062 C 289.34375 144.863281 289.550781 145.585938 289.675781 146.335938 C 289.800781 147.082031 289.839844 147.835938 289.789062 148.589844 C 289.320312 163.898438 288.894531 179.210938 288.421875 194.519531 C 287.953125 209.828125 287.441406 223.902344 287.097656 238.570312 C 287.21875 240.132812 287.730469 241.554688 288.636719 242.835938 C 291.566406 247.46875 293.816406 252.410156 295.382812 257.660156 C 296.949219 262.910156 297.777344 268.277344 297.867188 273.753906 C 297.867188 281.898438 297.269531 290.171875 297.011719 298.742188 Z M 172.492188 300.277344 C 171.464844 294.523438 170.398438 289.832031 169.882812 285.140625 C 168.988281 276.867188 173.046875 273.371094 181.082031 275.375 C 201.6875 280.207031 221.628906 286.988281 240.90625 295.714844 C 241.710938 296.023438 242.539062 296.265625 243.382812 296.441406 C 243.8125 289.574219 244.109375 283.050781 244.621094 276.527344 C 245.988281 258.445312 253.554688 242.410156 261.714844 226.671875 C 263.980469 222.410156 267.742188 221.855469 271.84375 224.710938 C 273.167969 225.648438 274.40625 226.671875 276.117188 228.125 C 276.585938 209.957031 277.011719 192.8125 277.484375 175.160156 L 152.664062 178.269531 C 152.664062 180.488281 152.40625 181.9375 152.40625 183.347656 C 152.40625 214.023438 152.550781 244.667969 152.835938 275.289062 C 152.835938 282.324219 152.835938 289.363281 153.175781 296.355469 C 153.175781 298.148438 153.175781 300.195312 155.65625 300.238281 C 161.125 300.320312 166.636719 300.277344 172.492188 300.277344 Z M 172.789062 116.90625 C 172.535156 120.53125 172.0625 123.855469 172.148438 127.183594 C 172.179688 127.601562 172.175781 128.019531 172.132812 128.433594 C 172.089844 128.851562 172.007812 129.261719 171.890625 129.664062 C 171.777344 130.066406 171.625 130.457031 171.441406 130.832031 C 171.253906 131.207031 171.039062 131.566406 170.789062 131.902344 C 170.539062 132.238281 170.265625 132.550781 169.960938 132.839844 C 169.65625 133.128906 169.328125 133.390625 168.976562 133.621094 C 168.625 133.851562 168.257812 134.046875 167.871094 134.214844 C 167.484375 134.378906 167.089844 134.507812 166.679688 134.601562 C 163.089844 135.925781 159.585938 137.546875 155.953125 138.867188 C 155.664062 138.921875 155.378906 139.003906 155.105469 139.113281 C 154.832031 139.21875 154.566406 139.355469 154.320312 139.511719 C 154.070312 139.671875 153.835938 139.851562 153.625 140.054688 C 153.410156 140.257812 153.214844 140.480469 153.042969 140.722656 C 152.871094 140.960938 152.726562 141.214844 152.601562 141.484375 C 152.480469 141.753906 152.382812 142.03125 152.316406 142.316406 C 152.246094 142.605469 152.203125 142.894531 152.191406 143.191406 C 152.179688 143.484375 152.191406 143.777344 152.238281 144.070312 C 152.492188 150.46875 152.238281 156.863281 152.535156 163.261719 C 152.664062 164.539062 152.875 165.804688 153.175781 167.054688 L 278.296875 163.898438 C 278.296875 158.65625 278.296875 153.878906 278.296875 149.144531 C 278.003906 147.738281 277.335938 146.542969 276.285156 145.5625 C 273.808594 142.832031 271.160156 140.273438 268.636719 137.628906 C 267.757812 136.804688 266.992188 135.882812 266.34375 134.863281 C 265.695312 133.84375 265.183594 132.757812 264.8125 131.609375 C 264.4375 130.460938 264.210938 129.285156 264.136719 128.082031 C 264.0625 126.875 264.136719 125.683594 264.363281 124.496094 C 264.707031 122.035156 264.90625 119.5625 264.960938 117.074219 Z M 181.722656 287.484375 C 183.175781 297.761719 186.195312 307.554688 190.78125 316.867188 C 197.320312 328.851562 207.875 336.1875 219.796875 342.457031 C 224.417969 344.882812 229.296875 346.585938 234.429688 347.566406 C 239.5625 348.550781 244.726562 348.761719 249.921875 348.210938 C 251.382812 348.003906 252.804688 347.648438 254.195312 347.144531 C 252.058594 340.835938 249.921875 335.207031 248.296875 329.40625 C 247.050781 324.296875 246.070312 319.136719 245.347656 313.925781 C 245.339844 313.378906 245.253906 312.847656 245.09375 312.328125 C 244.933594 311.804688 244.703125 311.316406 244.40625 310.859375 C 244.105469 310.40625 243.75 310 243.335938 309.640625 C 242.921875 309.285156 242.46875 308.992188 241.972656 308.765625 C 234.664062 305.566406 227.617188 301.898438 220.265625 298.871094 C 207.71875 294.03125 194.871094 290.191406 181.722656 287.359375 Z M 276.925781 345.910156 C 277.933594 346.21875 278.960938 346.445312 280.003906 346.59375 C 281.914062 346.699219 283.820312 346.699219 285.730469 346.59375 C 293.054688 346.136719 300.257812 344.949219 307.339844 343.023438 C 314.421875 341.097656 321.234375 338.480469 327.777344 335.164062 C 331.652344 333.328125 335.304688 331.128906 338.742188 328.570312 C 342.175781 326.015625 345.328125 323.144531 348.195312 319.964844 C 351.0625 316.785156 353.59375 313.355469 355.78125 309.675781 C 357.96875 305.996094 359.773438 302.140625 361.195312 298.105469 C 361.75 296.570312 362.136719 294.949219 362.605469 293.414062 C 362.128906 293.175781 361.632812 293.003906 361.109375 292.902344 C 355.125 292.605469 349.15625 292.835938 343.214844 293.59375 C 337.269531 294.351562 331.4375 295.621094 325.714844 297.40625 C 319.996094 299.195312 314.476562 301.46875 309.160156 304.226562 C 303.84375 306.988281 298.8125 310.191406 294.0625 313.839844 C 292.84375 314.851562 291.90625 316.074219 291.242188 317.507812 C 286.96875 325.441406 283.25 333.457031 279.277344 341.433594 Z M 269.066406 236.226562 C 256.246094 257.546875 253.511719 280.492188 255.648438 304.160156 C 256.800781 317.210938 258.382812 330.128906 265.304688 342.113281 C 265.90625 341.4375 266.460938 340.726562 266.972656 339.980469 C 270.816406 332.816406 275.046875 325.824219 278.335938 318.402344 C 280.164062 314.367188 281.699219 310.226562 282.941406 305.972656 C 284.183594 301.722656 285.121094 297.40625 285.757812 293.027344 C 286.394531 288.644531 286.722656 284.238281 286.738281 279.8125 C 286.753906 275.382812 286.460938 270.976562 285.859375 266.589844 C 285.421875 263.660156 284.730469 260.792969 283.78125 257.988281 C 282.832031 255.183594 281.640625 252.488281 280.207031 249.894531 C 278.773438 247.304688 277.121094 244.859375 275.25 242.5625 C 273.378906 240.265625 271.316406 238.152344 269.066406 236.226562 Z M 153.902344 345.355469 L 205.179688 348.296875 L 205.609375 347.402344 C 202.148438 345.386719 198.898438 343.078125 195.851562 340.480469 C 192.808594 337.882812 190.019531 335.035156 187.488281 331.9375 C 184.957031 328.835938 182.722656 325.539062 180.785156 322.039062 C 178.84375 318.542969 177.234375 314.898438 175.953125 311.109375 L 153.902344 311.109375 Z M 153.902344 345.355469 "
      fill-opacity="1" fill-rule="nonzero" />
  </g>
  <g clip-path="url(#b3e8d40c8c)">
    <path fill="#d29e5b"
      d="M 31.988281 160.957031 L 20.75 157.332031 C 20.011719 157.082031 19.332031 156.71875 18.71875 156.234375 C 18.105469 155.75 17.589844 155.179688 17.171875 154.519531 C 16.753906 153.859375 16.460938 153.148438 16.292969 152.386719 C 16.121094 151.625 16.082031 150.859375 16.179688 150.082031 C 16.179688 145.433594 15.964844 140.828125 16.179688 136.179688 C 16.152344 135.832031 16.144531 135.484375 16.15625 135.132812 C 16.167969 134.785156 16.203125 134.4375 16.253906 134.089844 C 16.304688 133.746094 16.375 133.402344 16.460938 133.0625 C 16.550781 132.726562 16.660156 132.394531 16.785156 132.066406 C 16.910156 131.742188 17.054688 131.421875 17.214844 131.113281 C 17.375 130.800781 17.554688 130.5 17.75 130.210938 C 17.941406 129.917969 18.152344 129.640625 18.378906 129.371094 C 18.605469 129.105469 18.84375 128.851562 19.097656 128.609375 C 19.351562 128.367188 19.617188 128.140625 19.898438 127.929688 C 20.175781 127.71875 20.464844 127.523438 20.765625 127.34375 C 21.066406 127.164062 21.375 127.003906 21.695312 126.855469 C 22.011719 126.710938 22.339844 126.585938 22.671875 126.476562 C 23.003906 126.367188 23.34375 126.273438 23.6875 126.203125 C 24.027344 126.132812 24.375 126.078125 24.722656 126.042969 C 25.070312 126.011719 25.421875 125.996094 25.773438 126 C 26.121094 126.007812 26.472656 126.03125 26.820312 126.074219 C 27.546875 126.074219 28.3125 126.074219 29.382812 126.074219 C 29.640625 122.40625 29.765625 118.953125 30.066406 115.457031 C 30.621094 108.25 32.5 106.585938 39.679688 106.671875 L 44.425781 106.671875 C 44.425781 101 44.210938 95.753906 44.425781 90.550781 C 44.445312 85.308594 44.988281 80.121094 46.046875 74.984375 C 46.253906 74.066406 46.539062 73.171875 46.90625 72.300781 C 47.269531 71.429688 47.707031 70.597656 48.21875 69.804688 C 48.726562 69.011719 49.304688 68.269531 49.945312 67.578125 C 50.589844 66.886719 51.285156 66.257812 52.039062 65.6875 C 52.792969 65.117188 53.589844 64.617188 54.429688 64.1875 C 55.269531 63.761719 56.140625 63.40625 57.046875 63.128906 C 57.949219 62.855469 58.867188 62.660156 59.804688 62.542969 C 60.742188 62.429688 61.683594 62.398438 62.628906 62.449219 C 63.53125 62.445312 64.429688 62.523438 65.320312 62.679688 C 66.210938 62.835938 67.082031 63.070312 67.933594 63.378906 C 68.78125 63.6875 69.597656 64.066406 70.382812 64.519531 C 71.164062 64.96875 71.902344 65.484375 72.59375 66.066406 C 73.285156 66.648438 73.921875 67.285156 74.503906 67.976562 C 75.085938 68.667969 75.601562 69.40625 76.050781 70.1875 C 76.503906 70.96875 76.882812 71.785156 77.1875 72.632812 C 77.496094 73.484375 77.726562 74.351562 77.882812 75.242188 C 78.996094 80.871094 79.507812 86.558594 79.421875 92.300781 C 79.226562 96.925781 78.800781 101.53125 78.140625 106.117188 C 78.140625 107.011719 78.140625 107.949219 78.140625 109.3125 C 81.257812 109.3125 84.121094 109.3125 86.941406 109.3125 C 87.414062 109.289062 87.882812 109.304688 88.351562 109.371094 C 88.816406 109.433594 89.273438 109.539062 89.722656 109.691406 C 90.167969 109.84375 90.597656 110.035156 91.003906 110.269531 C 91.414062 110.503906 91.796875 110.773438 92.15625 111.082031 C 92.511719 111.390625 92.839844 111.726562 93.128906 112.097656 C 93.421875 112.46875 93.675781 112.859375 93.890625 113.28125 C 94.109375 113.699219 94.28125 114.132812 94.414062 114.585938 C 94.546875 115.039062 94.632812 115.5 94.675781 115.96875 C 94.957031 118.003906 95.082031 120.050781 95.0625 122.109375 C 95.0625 123.6875 95.0625 125.261719 95.0625 127.140625 C 97.496094 127.480469 99.71875 127.738281 101.855469 128.164062 C 107.539062 129.273438 109.589844 131.574219 109.460938 137.289062 C 109.460938 142.238281 109.035156 147.183594 108.480469 152.085938 C 107.753906 158.570312 104.675781 161.214844 98.007812 161.511719 L 93.992188 161.808594 C 93.992188 166.886719 93.695312 171.832031 93.992188 176.652344 C 93.992188 178.484375 96 180.191406 97.027344 181.9375 C 103.480469 192.769531 109.503906 203.902344 116.511719 214.347656 C 118.136719 216.683594 119.351562 219.21875 120.152344 221.945312 C 120.957031 224.671875 121.3125 227.457031 121.214844 230.296875 C 120.914062 248.804688 120.65625 267.316406 120.914062 285.738281 C 121.214844 305.054688 122.109375 324.117188 122.75 343.648438 C 122.929688 345.164062 122.824219 346.65625 122.433594 348.128906 C 122.042969 349.601562 121.394531 350.953125 120.488281 352.179688 C 119.722656 353.3125 118.738281 354.207031 117.542969 354.871094 C 116.34375 355.53125 115.058594 355.886719 113.691406 355.929688 C 99.804688 356.359375 85.875 357.253906 71.984375 357.296875 C 51.988281 357.296875 31.988281 356.871094 12.160156 356.613281 L 9.726562 356.613281 C 3.65625 356.613281 0.878906 353.796875 0.878906 347.742188 C 0.878906 341.6875 1.308594 336.613281 1.480469 331.027344 C 2.289062 296.910156 3.1875 262.410156 3.871094 228.082031 C 3.902344 224.636719 4.429688 221.269531 5.457031 217.980469 C 6.484375 214.6875 7.964844 211.617188 9.898438 208.761719 C 16.734375 198.570312 23.742188 188.464844 30.664062 178.3125 C 31.351562 177.460938 31.78125 176.496094 31.945312 175.414062 C 32.074219 170.554688 31.988281 165.476562 31.988281 160.957031 Z M 110.914062 242.878906 C 110.914062 236.910156 110.914062 231.832031 110.914062 226.757812 C 110.777344 225.816406 110.421875 224.960938 109.847656 224.199219 C 102.964844 212.515625 95.957031 200.917969 89.207031 189.1875 C 87.753906 186.628906 86.386719 185.351562 83.308594 185.691406 C 69.59375 187.125 55.875 187.125 42.160156 185.691406 C 41.613281 185.601562 41.070312 185.597656 40.523438 185.679688 C 39.980469 185.765625 39.460938 185.929688 38.96875 186.179688 C 38.476562 186.429688 38.035156 186.75 37.644531 187.140625 C 37.257812 187.53125 36.9375 187.972656 36.691406 188.464844 C 31.476562 196.480469 26.09375 204.371094 20.664062 212.257812 C 18.792969 214.695312 17.402344 217.382812 16.5 220.316406 C 15.59375 223.25 15.230469 226.253906 15.410156 229.316406 C 15.664062 232.816406 15.410156 236.3125 15.410156 239.851562 C 15.410156 241.34375 15.410156 242.878906 15.707031 244.882812 Z M 14.726562 256.3125 C 14.296875 272.347656 13.914062 287.402344 13.484375 302.921875 C 45.835938 303.648438 77.582031 304.160156 109.289062 304.074219 C 109.632812 287.015625 109.976562 271.109375 110.316406 254.308594 Z M 111.425781 345.527344 C 110.957031 335.632812 110.488281 325.867188 110.015625 315.675781 C 77.542969 315.121094 45.664062 314.351562 13.1875 314.609375 L 13.1875 344.460938 C 24.980469 346.675781 102.710938 347.402344 111.425781 345.527344 Z M 40.492188 117.585938 L 40.492188 127.097656 L 83.910156 127.097656 L 83.910156 119.59375 L 75.660156 119.59375 C 68.609375 119.59375 65.832031 115.882812 66.773438 108.972656 C 67.839844 101.253906 68.398438 93.449219 68.695312 85.644531 C 68.65625 82.707031 68.113281 79.867188 67.070312 77.117188 C 66.96875 76.558594 66.769531 76.03125 66.476562 75.542969 C 66.179688 75.054688 65.808594 74.636719 65.359375 74.28125 C 64.914062 73.929688 64.417969 73.664062 63.871094 73.492188 C 63.328125 73.320312 62.769531 73.25 62.199219 73.277344 C 61.582031 73.273438 60.980469 73.371094 60.398438 73.574219 C 59.8125 73.777344 59.28125 74.074219 58.800781 74.464844 C 58.320312 74.851562 57.921875 75.3125 57.601562 75.839844 C 57.285156 76.371094 57.0625 76.9375 56.945312 77.542969 C 56.226562 80.167969 55.828125 82.839844 55.746094 85.5625 C 55.746094 92.554688 55.960938 99.589844 56.046875 106.585938 C 56.21875 108.175781 56.21875 109.769531 56.046875 111.359375 C 55.148438 116.007812 53.183594 117.503906 48.441406 117.503906 Z M 26.988281 148.546875 L 98.050781 150.980469 C 98.351562 146.714844 98.609375 142.960938 98.90625 138.183594 L 26.988281 138.183594 Z M 83.054688 175.03125 L 83.054688 160.914062 L 42.714844 160.914062 L 42.714844 174.730469 C 56.148438 176.632812 69.59375 176.730469 83.054688 175.03125 Z M 83.054688 175.03125 "
      fill-opacity="1" fill-rule="nonzero" />
  </g>
  <g clip-path="url(#2a042f8d16)">
    <path fill="#3d7661"
      d="M 214.964844 98.484375 C 197.875 98.484375 180.78125 98.484375 163.6875 98.484375 C 156.636719 98.484375 154.628906 95.453125 155.140625 89.355469 C 156.167969 76.308594 156.125 63.214844 156.339844 50.121094 C 156.339844 42.191406 157.917969 40.398438 165.738281 40.144531 C 183.660156 39.546875 201.5625 39.050781 219.453125 38.652344 C 235.648438 38.226562 251.800781 37.925781 267.953125 37.585938 C 269.550781 37.457031 271.144531 37.457031 272.738281 37.585938 C 273.125 37.585938 273.507812 37.621094 273.886719 37.699219 C 274.265625 37.777344 274.632812 37.894531 274.984375 38.046875 C 275.339844 38.199219 275.675781 38.390625 275.988281 38.613281 C 276.304688 38.835938 276.59375 39.085938 276.855469 39.371094 C 277.121094 39.652344 277.351562 39.957031 277.550781 40.289062 C 277.75 40.617188 277.914062 40.964844 278.039062 41.328125 C 278.167969 41.691406 278.257812 42.066406 278.308594 42.449219 C 278.355469 42.832031 278.367188 43.214844 278.335938 43.597656 C 278.335938 53.621094 278.335938 63.683594 278.125 73.75 C 278.125 78.226562 278.125 82.660156 277.824219 87.140625 C 277.835938 88.738281 277.648438 90.316406 277.269531 91.871094 C 277.167969 92.449219 277.011719 93.011719 276.800781 93.558594 C 276.589844 94.105469 276.328125 94.625 276.011719 95.117188 C 275.699219 95.613281 275.335938 96.070312 274.933594 96.496094 C 274.527344 96.917969 274.085938 97.300781 273.605469 97.636719 C 273.125 97.972656 272.617188 98.261719 272.078125 98.496094 C 271.542969 98.734375 270.988281 98.914062 270.414062 99.042969 C 269.84375 99.171875 269.261719 99.242188 268.675781 99.253906 C 268.089844 99.265625 267.507812 99.222656 266.929688 99.121094 L 214.964844 99.121094 Z M 238.042969 87.652344 C 240.863281 87.652344 242.742188 87.652344 244.578125 87.652344 C 247.273438 87.652344 248.253906 86.5 248.425781 83.984375 C 249.066406 73.492188 249.835938 63 250.476562 52.511719 C 250.472656 51.617188 250.355469 50.734375 250.136719 49.867188 L 239.707031 49.867188 C 239.152344 62.363281 238.554688 74.515625 238.042969 87.652344 Z M 219.195312 50.550781 C 218.855469 63.042969 218.554688 74.941406 218.214844 87.179688 L 226.929688 87.179688 L 229.496094 50.550781 Z M 207.445312 87.179688 C 207.832031 74.730469 208.171875 62.875 208.515625 50.933594 L 199.96875 50.933594 L 199.96875 87.179688 Z M 261.246094 49.652344 C 260.5625 62.449219 259.878906 74.773438 259.152344 87.4375 L 266.585938 87.4375 C 267.738281 74.863281 268.035156 62.269531 267.484375 49.652344 Z M 183.429688 51.445312 C 183.089844 63.597656 182.789062 75.242188 182.492188 87.054688 L 188.773438 87.054688 L 188.773438 51.445312 Z M 171.464844 86.839844 C 171.976562 74.855469 172.40625 63.386719 172.917969 51.402344 L 166.9375 51.699219 L 166.9375 86.925781 C 167.742188 87.082031 168.554688 87.179688 169.371094 87.222656 C 170.050781 87.148438 170.722656 87.019531 171.378906 86.839844 Z M 171.464844 86.839844 "
      fill-opacity="1" fill-rule="nonzero" />
  </g>
  <path fill="#3d7661"
    d="M 207.574219 310.558594 C 208.875 310.859375 210.128906 311.300781 211.335938 311.878906 C 218.199219 315.859375 225.050781 319.894531 231.886719 323.988281 C 232.582031 324.386719 233.207031 324.871094 233.769531 325.441406 C 234.285156 325.886719 234.703125 326.40625 235.03125 327.003906 C 235.359375 327.601562 235.570312 328.234375 235.667969 328.910156 C 235.765625 329.582031 235.746094 330.25 235.601562 330.917969 C 235.457031 331.582031 235.203125 332.199219 234.835938 332.773438 C 234.625 333.039062 234.390625 333.28125 234.128906 333.5 C 233.871094 333.71875 233.59375 333.90625 233.292969 334.070312 C 232.996094 334.234375 232.6875 334.367188 232.363281 334.46875 C 232.039062 334.574219 231.710938 334.644531 231.371094 334.679688 C 231.035156 334.71875 230.699219 334.722656 230.359375 334.695312 C 230.023438 334.664062 229.691406 334.605469 229.363281 334.511719 C 229.039062 334.414062 228.722656 334.289062 228.421875 334.136719 C 228.121094 333.980469 227.835938 333.796875 227.574219 333.585938 C 223.042969 330.898438 218.640625 328.082031 214.070312 325.484375 C 210.863281 323.691406 207.53125 322.199219 204.285156 320.535156 C 203.980469 320.433594 203.691406 320.304688 203.410156 320.148438 C 203.132812 319.992188 202.871094 319.8125 202.625 319.605469 C 202.382812 319.402344 202.15625 319.175781 201.953125 318.929688 C 201.753906 318.679688 201.574219 318.417969 201.421875 318.136719 C 201.269531 317.855469 201.144531 317.566406 201.042969 317.261719 C 200.945312 316.957031 200.875 316.648438 200.835938 316.332031 C 200.796875 316.015625 200.785156 315.699219 200.804688 315.378906 C 200.824219 315.0625 200.871094 314.746094 200.949219 314.4375 C 201.632812 312.132812 203.855469 310.472656 207.574219 310.558594 Z M 207.574219 310.558594 "
    fill-opacity="1" fill-rule="nonzero" />
  <path fill="#3d7661"
    d="M 340.597656 303.902344 C 341.75 304.757812 343.71875 305.480469 344.273438 306.761719 C 344.550781 307.65625 344.644531 308.566406 344.558594 309.5 C 344.46875 310.429688 344.203125 311.308594 343.761719 312.132812 C 342.617188 313.628906 341.191406 314.78125 339.488281 315.589844 C 330.257812 320.960938 320.941406 326.207031 311.710938 331.539062 C 308.207031 333.585938 305.429688 333.5 303.59375 331.070312 C 303.351562 330.746094 303.148438 330.398438 302.980469 330.027344 C 302.816406 329.660156 302.691406 329.277344 302.613281 328.878906 C 302.53125 328.484375 302.496094 328.082031 302.503906 327.679688 C 302.511719 327.273438 302.5625 326.875 302.660156 326.484375 C 302.753906 326.089844 302.890625 325.710938 303.070312 325.347656 C 303.25 324.988281 303.46875 324.648438 303.722656 324.332031 C 303.976562 324.019531 304.261719 323.734375 304.578125 323.480469 C 304.894531 323.230469 305.234375 323.015625 305.601562 322.839844 C 311.285156 319 317.222656 315.589844 323.207031 312.21875 C 327.480469 309.703125 332.265625 307.527344 336.835938 305.3125 C 338.058594 304.753906 339.3125 304.285156 340.597656 303.902344 Z M 340.597656 303.902344 "
    fill-opacity="1" fill-rule="nonzero" />
  <path fill="#3d7661"
    d="M 263.679688 303.605469 L 266.800781 277.25 L 268.339844 265.394531 C 268.339844 264.753906 268.339844 264.117188 268.550781 263.519531 C 269.277344 258.914062 271.585938 256.609375 274.792969 257.164062 C 277.996094 257.71875 279.0625 260.277344 278.765625 264.714844 C 277.441406 277.507812 276.03125 290.726562 274.492188 303.691406 C 274.335938 305.148438 274.023438 306.570312 273.550781 307.957031 C 273.410156 308.546875 273.164062 309.097656 272.816406 309.597656 C 272.46875 310.101562 272.042969 310.523438 271.535156 310.867188 C 271.03125 311.210938 270.480469 311.449219 269.882812 311.585938 C 269.289062 311.726562 268.6875 311.75 268.082031 311.664062 C 267.5 311.570312 266.949219 311.382812 266.429688 311.097656 C 265.914062 310.808594 265.460938 310.445312 265.070312 310 C 264.679688 309.558594 264.375 309.0625 264.160156 308.511719 C 263.941406 307.964844 263.828125 307.394531 263.808594 306.804688 C 263.691406 305.742188 263.648438 304.675781 263.679688 303.605469 Z M 263.679688 303.605469 "
    fill-opacity="1" fill-rule="nonzero" />
</svg>