<?xml version="1.0" encoding="UTF-8"?><svg id="Calque_1" xmlns="http://www.w3.org/2000/svg" xmlns:xlink="http://www.w3.org/1999/xlink" viewBox="0 0 139.82 103.87"><defs><style>.cls-1{clip-path:url(#clippath-4);}.cls-2{fill:none;}.cls-3{clip-path:url(#clippath-3);}.cls-4{fill:#f1b668;}.cls-5{clip-path:url(#clippath-5);}</style><clipPath id="clippath"><rect class="cls-2" x="-36.25" y="250.37" width="26.63" height="46.61"/></clipPath><clipPath id="clippath-1"><rect class="cls-2" x="-373.8" y="104.91" width="282.63" height="354.53" transform="translate(-375.65 -54.24) rotate(-62.54)"/></clipPath><clipPath id="clippath-3"><rect class="cls-2" width="139.82" height="103.87"/></clipPath><clipPath id="clippath-4"><rect class="cls-2" x="14.78" y="-18.76" width="100.87" height="139.82" transform="translate(2.49 105.32) rotate(-78.92)"/></clipPath><clipPath id="clippath-5"><rect class="cls-2" x="14.78" y="-18.76" width="100.87" height="139.82" transform="translate(2.49 105.32) rotate(-78.92)"/></clipPath></defs><g class="cls-3"><g class="cls-1"><g class="cls-5"><path class="cls-4" d="m70.59,103.59c.6.03,1.18-.07,1.75-.35.14-.02.31-.03.45-.09.14-.02.22-.04.36-.06,1.08-.22,2.15-.41,3.23-.63,1.08-.22,2.14-.36,3.21-.54,2.17-.31,4.29-.72,6.43-1.12,1.17-.24,2.34-.49,3.52-.79.49-.12,1-.28,1.51-.44.64-.18,1.28-.4,1.9-.67,1.66-.76,2.38-2.7,1.67-4.35-.36-.81-1.05-1.46-1.9-1.76-.81-.29-1.68-.24-2.43.08-1.17.43-2.34.71-3.56,1-.86.22-1.75.35-2.61.53-.71.12-1.38.25-2.07.42.65-.66,1.26-1.36,1.91-2.05l3.55-3.81c2.18-2.35,4.45-4.63,6.78-6.87,1.06-1,2.12-2.01,3.18-3.02,2.39-2.3,4.7-4.63,7.01-6.95,2.31-2.32,4.81-4.74,7.17-7.1,2.3-2.28,4.57-4.61,6.84-6.94,2.31-2.36,4.6-4.78,6.92-7.14l6.88-7.15c1.14-1.21,2.28-2.37,3.37-3.55l1.64-1.76.81-.84c.16-.15.28-.34.44-.48.5-.55.8-1.23.9-1.95.15-1.84-1.18-3.44-3.01-3.58-.72-.05-1.4.11-1.99.48-.44.26-.8.58-1.06,1-.39.45-.83.92-1.26,1.36l-1.63,1.72c-1.08,1.13-2.17,2.26-3.25,3.39l-6.91,7.1c-2.33,2.4-4.6,4.78-6.93,7.18-2.27,2.33-4.54,4.66-6.84,6.94-2.37,2.4-4.81,4.74-7.17,7.1-2.25,2.25-4.45,4.46-6.74,6.65-1.06,1.01-2.12,2.01-3.18,3.02-2.34,2.27-4.65,4.59-6.9,7.02l-3.55,3.81-1.09,1.13c.25-.86.47-1.73.72-2.59.03-.12.09-.24.11-.36.13-.45.27-.91.4-1.36.29-1.02.53-2.06.79-3.14s.54-2.07.82-3.09c.21-.83.04-1.73-.42-2.47-.46-.74-1.22-1.27-2.09-1.45-.83-.17-1.67-.03-2.41.44-.39.22-.71.55-.95.89s-.41.74-.49,1.17c-.1.32-.17.66-.29,1.02-.24,1.04-.54,2.07-.78,3.1s-.51,1.98-.8,2.97l-.03.12c-.02.12-.09.24-.11.37l-.03.17.03-.12c-.19.74-.38,1.48-.61,2.22-.23.73-.45,1.43-.72,2.11-.37,1.01-.83,2.05-1.16,3.07-.39,1.09-.65,2.21-.96,3.37-.14.49-.33,1.02-.51,1.5s-.43,1.09-.62,1.65l.02-.08c-.08.16-.11.37-.15.54-.35,1.79.79,3.49,2.52,3.88.08.02.21.04.36.11Zm2.38-.49l-.09.03c.09-.03.13-.02.18-.05l-.09.03Zm-9.56-72.19c.32-1.84.68-3.68,1.04-5.52.71-3.63,1.26-7.29,1.89-10.94.29-1.72.63-3.43.88-5.16.25-1.73.61-3.56.88-5.37l.06-.29c.4-1.79,2.16-2.88,3.9-2.49,1.7.37,2.8,1.98,2.51,3.7-.12.85-.29,1.72-.42,2.61-.14.93-.33,1.89-.47,2.81-.25,1.73-.59,3.44-.89,5.2-.62,3.65-1.18,7.36-1.89,10.99-.36,1.84-.72,3.67-1.04,5.52s-.65,3.73-1,5.57c-.3,1.76-.65,3.52-.99,5.31-.35,1.79-.64,3.47-.98,5.22-.18.92-.37,1.88-.56,2.84l-.5,2.59-1.06,5.64c-.66,3.6-1.33,7.2-1.78,10.84-.14,1.14-.28,2.29-.45,3.42.74-1.15,1.49-2.35,2.2-3.52.49-.77.95-1.54,1.41-2.37.46-.82.95-1.54,1.4-2.33.45-.73,1.2-1.28,2.05-1.46,1.76-.39,3.53.69,3.91,2.5.09.41.09.84.06,1.26-.08.42-.25.82-.45,1.21-.53.94-1.14,1.86-1.68,2.84-.54.98-1.14,1.86-1.7,2.74-1.14,1.86-2.31,3.67-3.53,5.47-1.21,1.8-2.53,3.67-3.83,5.45l-1.65,2.28c-.52.68-1.01,1.41-1.49,2.14-.31.46-.68.82-1.12,1.08-1.07,1.27-2.85,1.52-4.23.65-1.11-.7-1.61-1.92-1.98-3.12-.18-.6-.4-1.25-.54-1.88-.11-.54-.27-1.09-.37-1.63l-.33-1.62-.19-.78c-.6-1.98-1.31-3.9-2-5.85-.38-1.16-.75-2.32-1.08-3.51-.25-.92-.46-1.86-.7-2.82-.16-.5-.36-1.02-.51-1.57-.19-.56-.24-1.18-.12-1.8.05-.25.14-.49.22-.7.76-1.67,2.67-2.38,4.34-1.66.79.37,1.44,1.02,1.71,1.85.36,1.02.67,2.09.94,3.13.25.92.45,1.87.7,2.78.42,1.38.93,2.78,1.38,4.17.14-.67.21-1.3.34-1.97.27-1.82.5-3.67.73-5.49.45-3.64,1.12-7.28,1.78-10.88.32-1.88.69-3.76,1.06-5.64l1.06-5.38c.34-1.75.63-3.47.98-5.23s.66-3.56,1-5.31c.43-1.78.76-3.66,1.12-5.5Zm-22.35,57.96c.74-.46,1.23-1.23,1.4-2.07.03-.17.06-.34.06-.51.15-.32.25-.65.36-.97.03-.12.04-.21.07-.33l.14-.71c.08-.42.12-.84.21-1.31.2-1.26.41-2.52.57-3.79.12-1.06.11-2.15.19-3.17.11-2.32.19-4.69.21-7.02l-.02-.83v.43c.05-1.98-.08-3.96-.13-5.92-.05-.87-.44-1.73-1.1-2.3-1.36-1.22-3.42-1.06-4.63.31-.39.45-.66.96-.78,1.54-.05.25-.06.51-.07.81.03,1.83.14,3.67.13,5.49v.39c-.03,1.51-.06,3.02-.1,4.53l-.05,1.16c-.29-.53-.62-1.03-.95-1.53-.66-1.04-1.28-2.07-1.93-3.15-1.18-1.92-2.3-3.88-3.43-5.83l-1.9-3.5c-1.14-2.13-2.27-4.3-3.44-6.44-1.2-2.27-2.42-4.59-3.71-6.84l-.15-.33v-.04c-.06-.1-.08-.19-.15-.29-.03-.09-.09-.19-.17-.25l-.19-.34-.07-.1.03.05-.02-.09c-.35-.63-.7-1.26-1.06-1.9-1.15-2.04-2.31-4.05-3.51-6.11-1.2-2.05-2.38-4.15-3.53-6.24-1.21-2.19-2.43-4.33-3.68-6.53-.58-.98-1.16-2.01-1.75-2.99-.32-.54-.66-1.04-.98-1.58l-.46-.74c-.29-.49-.63-.95-1.04-1.33-.62-.56-1.47-.85-2.35-.81-.87.05-1.73.44-2.29,1.11-.39.44-.62.96-.73,1.54-.2,1,.07,2.05.74,2.83.16.29.37.55.53.84,1.25,1.98,2.45,4.04,3.6,6.08,1.22,2.15,2.43,4.33,3.65,6.48,1.15,2.04,2.3,4.09,3.5,6.15,1.23,2.1,2.44,4.25,3.63,6.39l.07.1-.03-.09.03.09.12.24.03.05-.03-.05.03.05c.07.1.09.19.16.29l.17.25.09.19-.1-.15.04.05.06.14-.04-.05.03.09v.04s.03.05.03.05v.04s.05.15.05.15c.6,1.11,1.24,2.28,1.84,3.39,1.18,2.14,2.31,4.31,3.47,6.49,1.17,2.18,2.27,4.26,3.41,6.39,1.21,2.19,2.47,4.34,3.78,6.47,1.05,1.72,2.1,3.4,3.14,5.12-.51-.27-1.01-.58-1.52-.86-.73-.45-1.46-.94-2.18-1.38-.81-.5-1.66-.97-2.52-1.45-.86-.47-1.65-1.06-2.5-1.57-.43-.26-.88-.56-1.3-.86-.42-.3-.83-.59-1.25-.89-.72-.49-1.6-.66-2.4-.51-.85.18-1.64.68-2.13,1.4-.24.34-.41.79-.49,1.21-.08.42-.07.81-.02,1.21.18.86.67,1.65,1.39,2.14.53.36,1.01.76,1.54,1.13.42.3.88.56,1.34.87s.84.55,1.3.86c.92.57,1.89,1.11,2.86,1.69.73.45,1.41.93,2.11,1.36.81.5,1.62.97,2.48,1.44.19.12.39.21.54.32,1.04.64,2.08,1.27,3.18,1.84.91.44,1.81.87,2.66,1.39.34.24.73.45,1.07.69s.66.39,1.01.59c.23.13.47.22.75.32.04,0,.08.02.12.02l.24.09c-.08-.02-.12-.03-.21-.04.12.07.29.1.41.12.92-.08,1.77-.26,2.51-.72Zm-4.29-.58l-.04-.05.11.11-.07-.06Zm.29.27s-.04-.05-.08-.06c.04.05.11.11.15.11,0,0-.04,0-.07-.06Zm.33.28l-.03-.05.03.05Z"/></g></g></g></svg>