<?xml version="1.0" encoding="UTF-8"?>
<svg id="Calque_1" viewBox="0 0 111 119" xmlns="http://www.w3.org/2000/svg">
  <path
    d="m90.1,2.4c-4.6,1.6-5.5,6.6-3.5,21.1.9,6.7,1.9,14.6,2.3,17.4.4,2.9,1.1,5.3,1.6,5.3s.7.4.4.8c-.9,1.5,2.3,10.5,4.6,12.9,2.1,2.2,6.6,3.3,5.3,1.3-.3-.5,0-.7.8-.4,3.8,1.4,6.7-16.8,4.9-31.9-1.4-12.8-3.6-20-7-23.7-3.2-3.4-5.7-4.2-9.4-2.8Z"
    fill="#F1B668"/>
  <path
    d="m31,35.3c-.9.5-2.4,2.3-3.2,4-2.1,3.9-1.4,5,9.9,17.2,12.2,13.2,22.7,21.7,26.5,21.7,3.3,0,5.1-2.2,5.1-6.2,0-3-5-10.9-6.3-10.1-.6.3-.7.1-.3-.5,1.7-2.7-14-22.3-20.6-25.8-3.1-1.6-8.5-1.8-11.1-.3Z"
    fill="#F1B668"/>
  <path d="m66.3,41.7c-1.9,2.2.4,9.1,4.8,15,5,6.5,6.6,7.4,9.1,5.1,2.8-2.5,2.7-3.4-1.4-10.8-5.3-9.5-9.7-12.7-12.5-9.3Z"
        fill="#F1B668"/>
  <path
    d="m32,79.9c-1.3,1.2-.7,6.2,1,7.8,2.2,2.2,4.9,3.2,11.5,4,5,.6,5.7.5,6.7-1.3,1.4-2.6,1.4-6.2,0-6.2-.5,0-3.5-1.1-6.5-2.5-5.2-2.4-11.3-3.3-12.7-1.8Z"
    fill="#F1B668"/>
  <path
    d="m27.8,98.7c-.5.1-4.4,1.1-8.5,2-8.9,2.1-12.4,3.7-14.5,6.9-1.9,2.9-.5,6.7,3.1,8.7,2.1,1.1,3.5.9,9.7-1,10.1-3.2,24.5-9.1,25.8-10.7.6-.7.9-2.3.7-3.6-.3-2.1-.8-2.3-7.8-2.5-4.1-.1-7.9,0-8.5.2Z"
    fill="#F1B668"/>
</svg>
