<?xml version="1.0" encoding="UTF-8"?><svg id="Calque_1" xmlns="http://www.w3.org/2000/svg" xmlns:xlink="http://www.w3.org/1999/xlink" viewBox="0 0 313 275"><defs><style>.cls-1{clip-path:url(#clippath-20);}.cls-2{clip-path:url(#clippath-11);}.cls-3{clip-path:url(#clippath-16);}.cls-4{clip-path:url(#clippath-13);}.cls-5{clip-path:url(#clippath-25);}.cls-6{clip-path:url(#clippath-15);}.cls-7{clip-path:url(#clippath-6);}.cls-8{clip-path:url(#clippath-26);}.cls-9{clip-path:url(#clippath-7);}.cls-10{clip-path:url(#clippath-21);}.cls-11{clip-path:url(#clippath-4);}.cls-12{clip-path:url(#clippath-12);}.cls-13{clip-path:url(#clippath-24);}.cls-14{clip-path:url(#clippath-22);}.cls-15{clip-path:url(#clippath-9);}.cls-16{fill:#468371;fill-rule:evenodd;}.cls-17{fill:none;}.cls-18{clip-path:url(#clippath-19);}.cls-19{clip-path:url(#clippath-3);}.cls-20{clip-path:url(#clippath-8);}.cls-21{clip-path:url(#clippath-18);}.cls-22{clip-path:url(#clippath-14);}.cls-23{clip-path:url(#clippath-17);}.cls-24{clip-path:url(#clippath-5);}.cls-25{clip-path:url(#clippath-10);}.cls-26{clip-path:url(#clippath-23);}</style><clipPath id="clippath"><rect class="cls-17" x="-446.89" y="215.05" width="26.63" height="46.61"/></clipPath><clipPath id="clippath-1"><rect class="cls-17" x="-784.44" y="69.59" width="282.63" height="354.53" transform="translate(-565.58 -437.64) rotate(-62.54)"/></clipPath><clipPath id="clippath-3"><rect class="cls-17" x="13.92" y="11.97" width="16.17" height="20.91"/></clipPath><clipPath id="clippath-4"><polygon class="cls-17" points="58.01 -66.33 351.79 84.68 230.07 316.32 -63.71 165.3 58.01 -66.33"/></clipPath><clipPath id="clippath-5"><polygon class="cls-17" points="58.01 -66.33 766.4 297.8 528.56 750.43 -179.83 386.29 58.01 -66.33"/></clipPath><clipPath id="clippath-6"><rect class="cls-17" x="100.97" y="150.96" width="89.54" height="72.57"/></clipPath><clipPath id="clippath-7"><polygon class="cls-17" points="58.01 -66.33 351.79 84.68 230.07 316.32 -63.71 165.3 58.01 -66.33"/></clipPath><clipPath id="clippath-8"><polygon class="cls-17" points="58.01 -66.33 766.4 297.8 528.56 750.43 -179.83 386.29 58.01 -66.33"/></clipPath><clipPath id="clippath-9"><rect class="cls-17" x="83.56" y="106.68" width="39.8" height="34.44"/></clipPath><clipPath id="clippath-10"><polygon class="cls-17" points="58.01 -66.33 351.79 84.68 230.07 316.32 -63.71 165.3 58.01 -66.33"/></clipPath><clipPath id="clippath-11"><polygon class="cls-17" points="58.01 -66.33 766.4 297.8 528.56 750.43 -179.83 386.29 58.01 -66.33"/></clipPath><clipPath id="clippath-12"><rect class="cls-17" x="22.62" y="42.72" width="29.85" height="25.83"/></clipPath><clipPath id="clippath-13"><polygon class="cls-17" points="58.01 -66.33 351.79 84.68 230.07 316.32 -63.71 165.3 58.01 -66.33"/></clipPath><clipPath id="clippath-14"><polygon class="cls-17" points="58.01 -66.33 766.4 297.8 528.56 750.43 -179.83 386.29 58.01 -66.33"/></clipPath><clipPath id="clippath-15"><rect class="cls-17" x="5.21" y="77.16" width="44.77" height="44.28"/></clipPath><clipPath id="clippath-16"><polygon class="cls-17" points="58.01 -66.33 351.79 84.68 230.07 316.32 -63.71 165.3 58.01 -66.33"/></clipPath><clipPath id="clippath-17"><polygon class="cls-17" points="58.01 -66.33 766.4 297.8 528.56 750.43 -179.83 386.29 58.01 -66.33"/></clipPath><clipPath id="clippath-18"><rect class="cls-17" x="200.46" y="166.95" width="77.1" height="94.71"/></clipPath><clipPath id="clippath-19"><polygon class="cls-17" points="58.01 -66.33 351.79 84.68 230.07 316.32 -63.71 165.3 58.01 -66.33"/></clipPath><clipPath id="clippath-20"><polygon class="cls-17" points="58.01 -66.33 766.4 297.8 528.56 750.43 -179.83 386.29 58.01 -66.33"/></clipPath><clipPath id="clippath-21"><rect class="cls-17" x="225.33" y="100.53" width="68.4" height="77.49"/></clipPath><clipPath id="clippath-22"><polygon class="cls-17" points="58.01 -66.33 351.79 84.68 230.07 316.32 -63.71 165.3 58.01 -66.33"/></clipPath><clipPath id="clippath-23"><polygon class="cls-17" points="58.01 -66.33 766.4 297.8 528.56 750.43 -179.83 386.29 58.01 -66.33"/></clipPath><clipPath id="clippath-24"><rect class="cls-17" x="32.57" y="144.81" width="46.01" height="47.97"/></clipPath><clipPath id="clippath-25"><polygon class="cls-17" points="58.01 -66.33 351.79 84.68 230.07 316.32 -63.71 165.3 58.01 -66.33"/></clipPath><clipPath id="clippath-26"><polygon class="cls-17" points="58.01 -66.33 766.4 297.8 528.56 750.43 -179.83 386.29 58.01 -66.33"/></clipPath></defs><g class="cls-19"><g class="cls-11"><g class="cls-24"><path class="cls-16" d="m22.39,26.59c.27,0,.54,0,.81,0,1.46,3.14,2.53,1.78,3.53,3.55,1.92,2.06,2.89,2.47,3.2.83.23-1.24-.17-3.25-.5-4.91-.35-1.76-1.51-2.48-2.94-1.99,1.15-.71,1.02-2.34,2.06-3.32,2.09-1.97-.06-3.36-.98-3.58,1.37-2.12-.68-2.53-1.48-4.67-1.73,2.7-4.8,3.18-5.16,7.17-1.21-.89-1.54-.47-2.76-1.07-.85-1.47-1.73-1.29-2.5-2.28.2.94.25,7.23,5.25,9.56-1.63-.35-3.93-2.77-4.54-4.23-.35-1.71-1.06-.94-.18.04.68,1.43,1.87,2.59,3.11,3.59-1.74-1.19-2.43-1.94-3.7-3.36-.46-1.49-1.22-.91-.17.08,1.5,1.67,3.15,3.46,5.46,4.02,0,.24.21.45.45.53.53.2.65.79,1.03,1.28,1.03,1.36,2.68,3.45,3.16,2.65.5-.84-2.05-1.89-3.15-3.88"/></g></g></g><g class="cls-7"><g class="cls-9"><g class="cls-20"><path class="cls-16" d="m124.08,209.86c-3.63-6.09-.16-7.66-5.83-13.83-.67-.81-.71-1.72-.27-2.4-6.83-6.48-23.82-10.36-13.34-18.75,7.99-6.39,7.54,6.02,2.78,2.38,2.74,1.74,4.49-5.53-1.73-1.67-10.05,6.23,6.96,12.32,12.65,17.6.13-.3.6-.46.83-.35-4.22-7.07-14.16-16.22-3.35-18.28,8.45-1.61,3.78,8.88.93,4.13,1.76,2.92,6.32-4.05-1.05-3.08-8.13,1.07.32,10.83,3.97,17.21l3.67-.25c.87-14.5,4.91-27.8,24.72-40.16,6.71-4.18,14.86,24.28.46,32.76,7.24-2.36,11.46-3.18,19.45-2.97,16.04.42,34.7.07,11.1,12.79-5.11.94,3.13,6.57-3.08,8.55-11.29,3.6-5.14,5.43-7.51,7.53-2.47,2.2-4.41,4.92-18.3.36,8.82,9.71,1.11,13.47-3.55,10.8-5.42-3.12-13.04,1.05-19.07-9.05-.05,14.02-5.9,7.49-3.48-3.32"/></g></g></g><g class="cls-15"><g class="cls-25"><g class="cls-2"><path class="cls-16" d="m105.38,124.41c-1.05-1.97-2.59-3.51-4.08-5.19-2.27-2.57.18-2.69.99-1.42-.88-1.94-3.65-1.06-1.19,1.64,1.8,1.99,2.71,3,4,5.15-1.49.93-2.2-.97-4.49-2.24-7-3.88-20.97-7.4-15.77-.08,3.91,5.5,3.11,1.69,4.43,8.83,1.49,8.09,8.39-1.79,10.27.26-11.34,8.91,8.3,13.19,8.12,5.5-.06-1.25-.18-2.04.09-3.27l1.1,1.51c.34,1.52,1.03,1.32.4-.11l-.02-1.86c.96.84,1.33,1.54,2.04,2.58,4.48,6.29,17.69-8.68,3.22-9.19.29-2.8,12.13,1.26,7.92-6.6-3.64-6.8-.57-5.15-1.7-10.82-1.24-6.24-9.83,4.55-12.72,11.31-.99,2.31-.27,3.83-2.04,3.9-.32-2.72-.06-3.85.22-6.51.62-3.63-2.57-2.84-1.94-.63-.25-1.84,2.1-2.66,1.67.56-.29,2.11-.62,4.3-.28,6.59-.11-.02-.17.02-.22.09"/></g></g></g><g class="cls-12"><g class="cls-4"><g class="cls-22"><path class="cls-16" d="m38.66,55.95c-.76-1.38-1.85-2.46-2.9-3.64-1.61-1.8.11-1.9.68-1.01-.63-1.36-2.57-.73-.83,1.16,1.27,1.39,1.92,2.09,2.84,3.61-1.04.66-1.55-.68-3.17-1.56-4.95-2.7-14.8-5.11-11.1.01,2.77,3.85,2.2,1.18,3.16,6.19,1.09,5.69,5.9-1.29,7.23.14-7.94,6.33,5.91,9.24,5.75,3.83-.05-.88-.14-1.44.04-2.3l.78,1.06c.25,1.07.74.92.28-.08l-.02-1.31c.68.58.95,1.08,1.45,1.81,3.18,4.41,12.42-6.19,2.22-6.49.18-1.97,8.55.83,5.54-4.69-2.59-4.76-.43-3.61-1.25-7.6-.9-4.39-6.89,3.25-8.9,8.02-.68,1.63-.17,2.7-1.41,2.75-.24-1.91-.06-2.71.13-4.58.42-2.56-1.83-1.99-1.37-.43-.18-1.3,1.47-1.88,1.17.39-.19,1.49-.41,3.04-.16,4.64-.08,0-.12.01-.16.07"/></g></g></g><g class="cls-6"><g class="cls-3"><g class="cls-23"><path class="cls-16" d="m29.32,102.02c-2.13-1.36-4.48-2.04-6.88-2.88-3.65-1.29-1.31-2.74.18-1.93-1.94-1.43-4.17.94-.25,2.25,2.87.98,4.32,1.47,6.78,2.89-.94,1.72-2.69.24-5.64.24-9.02,0-24.66,4.1-15.51,8.47,6.88,3.28,3.99-.03,9.23,6.26,5.95,7.13,7.25-6.3,10.22-5.3-6.17,14.88,15.45,8.44,11.01.99-.75-1.2-1.31-1.9-1.73-3.25l1.92.89c1.18,1.3,1.74.73.32-.33l-1.05-1.81c1.39.29,2.15.79,3.42,1.43,7.87,3.75,12.54-18.1-1.93-10.77-1.27-2.89,12.6-5.33,4.1-10.76-7.33-4.69-3.41-4.73-7.65-9.68-4.67-5.45-7.12,9.79-6.21,17.98.31,2.8,1.86,3.9.17,4.93-1.82-2.5-2.2-3.75-3.39-6.51-1.4-3.9-4.1-1.39-2.25.43-1.27-1.68.59-3.74,1.94-.35.89,2.23,1.77,4.56,3.38,6.62-.13.04-.16.11-.17.21"/></g></g></g><g class="cls-21"><g class="cls-18"><g class="cls-1"><path class="cls-16" d="m233.66,221.43c-15.02,6.4-35.02,21.98-31.97,39.95,22.09-27.3,21.07,10.17,35.1-28.43,8.65,36.79,13.32,17.51,24.52,10.56,2.96.17,4.04-.86,8.89.49-5.14-3.22-8.52-4.08-10.51-10.06-3.98-3.03-8.08-6.41-11.76-9.8,4.81,2.62,13.23,4.77,15.68,2.53-1.89-2.58-7.86-4.75-15.22-4.34,4.86-1.27,9.02-2.33,13.98-3.13,4.62-4.32,8-3.51,14.08-3.93-4.44-.95-5.38-2.49-8.07-3.73-6.53-11.38-1.4-30.53-26.65-2.21,6.14-40.57-10.91-7.09-17.28-41.5-11.41,14.54-.52,37.78,9.76,50.38-.68-.12-1.37-.31-1.59-.81-.68-1.64-2.75-.97-3.01.17l-.95.26c-.67-.98-1.29-1.98-1.85-3.01-1.79-3.3-.99-5.29-2.96-5.04,0,.05,0,.11-.01.16.41.34.85.55,1.33.78.54,2.73,1.79,4.91,3.46,7.13-.31.12-.43.36-.68.54.01,0,.02.02.04.04,0,0-.02.01-.03.02h0s0,0,0,0c0,0,0,.02,0,.03-.01,0-.03,0-.04.01.14.27.14.55.36.78-2.49,1.27-4.57,2.68-6.28,4.89-.54,0-1.02,0-1.54.13-.02.05-.04.1-.06.15,1.66,1.09,1.84-1.06,4.91-3.24.96-.68,1.96-1.31,2.99-1.9l.74.65c-.26,1.14,1.3,2.64,2.63,1.46.58-.49,1.15-.24,1.97,0"/></g></g></g><g class="cls-10"><g class="cls-14"><g class="cls-26"><path class="cls-16" d="m257.26,162.69c-1.11-.06-4.2-3.18-6.25-2.88-2.99.43-5-.36-5.7-1.23-8.35-.37-21.13,5-18.48-5.96,2.11-8.7,8.54.21,3.24.19,2.86-.25.14-6.24-2.12-.25-3.43,9.12,9.84,5.42,17.11,5.53-.09-.4.11-.77.62-1.01-6.87-2.44-17.33-3.79-11.22-10.6,5.03-5.61,7.46,4.2,2.89,2.39,2.82,1.1,2.22-6.18-2.4-1.6-4.9,4.85,5.26,7.21,11.38,9.62.77-.15,1.88-.11,3.4.24-19.73-16.05-7.9-56.13-5.19-51.26,2.67,4.8,7.27,1.25,9.45,11.93,2.89-1.55,3.39-3.7,3.87-5.59,1.68-6.64,16.67-14.18,21.95-9.79,1.16.97,2.72,4.92-.35,14.82-4.68,15.07,16.08,14.75-7.27,27.88,13.12-3.13,23.74,4.15,19.91,6.02-12.8,6.26-9.03,16.53-26.48,14.36,4.8,4.41,6.65,5.16,6.57,11.83-2.41-5.17-13.43-9.2-14.92-14.62"/></g></g></g><g class="cls-13"><g class="cls-5"><g class="cls-8"><path class="cls-16" d="m60.87,172.68c-.03.16-.07.3-.14.49-.2.03-.34.04-.53-.03-.11.23-.69.23-.81,0-.2.12-.75.22-.91-.03-.17.12-.33.09-.53.07,1.82,3.45,6.67,4.2,9.29,7.07.9.99.88,1.24.87,2.44-.92.89-1.54,1.38-1.41,2.75.28,2.95,4.3,5.44,2.94,6.55-.53.43-2-1.12-3.51-2.09-1.31-.84-5.41-3.76-6.8-2.06-.05.09-.11.17-.17.26-1.04-.7-2.18-1.26-3.09-.07-.93-1.32-1.9-2.6-2.83-3.91-.43,1.99-.59,4.81-2.48,5.07-1.3.17-.4.18-1.49.7-1.43.68-2.05.07-2.68.1-.73.03-2.03,1.22-4.63.54-1.4-.37-2.84.31-4.28.15-.61-.06-1.02-.31-1.48-.7-4.61,1.29-3.29-6.69-1.65-8.82,1.43-1.84,3.61-3.76,5.13-4.86,2.94-2.15,6.22-3.72,9.56-5.15-.21-.13-.22-.32-.19-.55-.28.6-1.51.34-1.23-.34l-.08-.09c-1.87.91-1.16,1.98-3.88,2.72-.19.05-.3,0-.46-.12,0-.02.01-.05.02-.08.79-.31,1.36.48,3.07-1.66.35-.44.72-.67,1.24-.87-.25-.27-.49-.48-.84-.63l.07-.28c.37.03.68-.05,1.03-.17-.37-.41-.59-.79-.7-1.34-.55-2.68-1.41-2.23-1.98-2.86,0-.03,0-.05.02-.08.19-.04.32-.02.46.1,2.1,1.88.97,2.51,2.21,4.17l.13-.05c.06-.73,1.27-.41,1.25.25.08-.21.18-.38.43-.4-2.32-2.78-4.52-5.65-6.16-8.88-.85-1.67-1.91-4.35-2.34-6.64-.49-2.63,2-10.33,5.51-7.11.59-.14,1.07-.17,1.64.04,1.36.51,2.33,1.75,3.75,2.06,2.63.56,3.24,2.21,3.88,2.56.55.31,1.38.05,2.35,1.29.73.95-.07.56,1.01,1.3,1.56,1.07.42,3.66-.12,5.63,1.43-.76,2.89-1.46,4.31-2.22.27,1.47,1.54,1.48,2.79,1.32,0,.11.02.21.04.31.46,2.14,5.45,1.38,7,1.22,1.79-.19,3.81-.91,4.08-.29.7,1.59-4.02,2.02-5.62,4.51-.74,1.16-.41,1.88,0,3.08-.54,1.08-.64,1.31-1.89,1.78-3.65,1.38-8.32-.13-11.52,2.13.19.07.33.12.44.3.26-.16.7.18.83.37.21-.15.73.11.72.36.2.02.32.1.49.22-.02.19-.06.34-.1.49"/></g></g></g></svg>