<svg xmlns="http://www.w3.org/2000/svg" xmlns:xlink="http://www.w3.org/1999/xlink" width="500" zoomAndPan="magnify" viewBox="0 0 375 374.999991" height="500" preserveAspectRatio="xMidYMid meet" version="1.0"><defs><clipPath id="9e9db6b209"><path d="M 72 72.84375 L 255.804688 72.84375 L 255.804688 312.183594 L 72 312.183594 Z M 72 72.84375 " clip-rule="nonzero"/></clipPath></defs><path fill="#3d7661" d="M 202.917969 269.179688 L 139.328125 269.179688 C 137.273438 269.179688 135.589844 270.859375 135.589844 272.917969 C 135.589844 274.972656 137.273438 276.65625 139.328125 276.65625 L 204.976562 276.65625 C 203.664062 274.414062 202.917969 271.796875 202.917969 269.179688 Z M 202.917969 269.179688 " fill-opacity="1" fill-rule="nonzero"/><path fill="#d29e5b" d="M 119.128906 116.222656 C 117.445312 114.914062 115.203125 115.289062 113.890625 116.96875 L 104.730469 129.125 L 100.613281 125.382812 C 99.121094 124.074219 96.6875 124.074219 95.375 125.570312 C 94.066406 127.070312 94.066406 129.5 95.566406 130.808594 L 102.671875 137.351562 C 103.421875 137.914062 104.355469 138.289062 105.289062 138.289062 C 105.476562 138.289062 105.476562 138.289062 105.664062 138.289062 C 106.789062 138.097656 107.722656 137.726562 108.28125 136.789062 L 119.878906 121.269531 C 121.1875 119.960938 120.8125 117.53125 119.128906 116.222656 Z M 119.128906 116.222656 " fill-opacity="1" fill-rule="nonzero"/><path fill="#3d7661" d="M 229.101562 108.371094 L 139.328125 108.371094 C 137.273438 108.371094 135.589844 110.050781 135.589844 112.109375 C 135.589844 114.164062 137.273438 115.847656 139.328125 115.847656 L 229.101562 115.847656 C 231.160156 115.847656 232.839844 114.164062 232.839844 112.109375 C 232.839844 110.050781 231.160156 108.371094 229.101562 108.371094 Z M 229.101562 108.371094 " fill-opacity="1" fill-rule="nonzero"/><path fill="#3d7661" d="M 229.101562 123.328125 L 139.328125 123.328125 C 137.273438 123.328125 135.589844 125.007812 135.589844 127.070312 C 135.589844 129.125 137.273438 130.808594 139.328125 130.808594 L 229.101562 130.808594 C 231.160156 130.808594 232.839844 129.125 232.839844 127.070312 C 232.839844 125.007812 231.160156 123.328125 229.101562 123.328125 Z M 229.101562 123.328125 " fill-opacity="1" fill-rule="nonzero"/><path fill="#3d7661" d="M 229.101562 138.289062 L 139.328125 138.289062 C 137.273438 138.289062 135.589844 139.96875 135.589844 142.027344 C 135.589844 144.082031 137.273438 145.765625 139.328125 145.765625 L 229.101562 145.765625 C 231.160156 145.765625 232.839844 144.082031 232.839844 142.027344 C 232.839844 139.96875 231.160156 138.289062 229.101562 138.289062 Z M 229.101562 138.289062 " fill-opacity="1" fill-rule="nonzero"/><path fill="#3d7661" d="M 232.839844 177.554688 C 232.839844 175.496094 231.160156 173.816406 229.101562 173.816406 L 139.328125 173.816406 C 137.273438 173.816406 135.589844 175.496094 135.589844 177.554688 C 135.589844 179.609375 137.273438 181.292969 139.328125 181.292969 L 229.101562 181.292969 C 231.160156 181.292969 232.839844 179.609375 232.839844 177.554688 Z M 232.839844 177.554688 " fill-opacity="1" fill-rule="nonzero"/><path fill="#d29e5b" d="M 119.128906 181.667969 C 117.445312 180.359375 115.203125 180.734375 113.890625 182.414062 L 104.730469 194.570312 L 100.613281 190.832031 C 99.121094 189.519531 96.6875 189.519531 95.375 191.015625 C 94.066406 192.515625 94.066406 194.945312 95.566406 196.253906 L 102.671875 202.796875 C 103.421875 203.359375 104.355469 203.734375 105.289062 203.734375 C 105.476562 203.734375 105.476562 203.734375 105.664062 203.734375 C 106.789062 203.542969 107.722656 203.171875 108.28125 202.234375 L 119.878906 186.714844 C 121.1875 185.40625 120.8125 182.976562 119.128906 181.667969 Z M 119.128906 181.667969 " fill-opacity="1" fill-rule="nonzero"/><path fill="#d29e5b" d="M 117.632812 247.859375 C 116.136719 246.363281 113.890625 246.363281 112.398438 247.859375 L 107.535156 252.722656 L 102.671875 247.859375 C 101.175781 246.363281 98.929688 246.363281 97.433594 247.859375 C 95.9375 249.355469 95.9375 251.597656 97.433594 253.097656 L 102.296875 257.960938 L 97.433594 262.820312 C 95.9375 264.316406 95.9375 266.558594 97.433594 268.054688 C 98.183594 268.804688 99.121094 269.179688 100.050781 269.179688 C 100.988281 269.179688 101.921875 268.804688 102.671875 268.054688 L 107.535156 263.195312 L 112.398438 268.054688 C 113.144531 268.804688 114.082031 269.179688 115.015625 269.179688 C 115.949219 269.179688 116.882812 268.804688 117.632812 268.054688 C 119.128906 266.558594 119.128906 264.316406 117.632812 262.820312 L 112.773438 257.960938 L 117.632812 253.097656 C 119.128906 251.597656 119.128906 249.355469 117.632812 247.859375 Z M 117.632812 247.859375 " fill-opacity="1" fill-rule="nonzero"/><path fill="#3d7661" d="M 135.589844 257.960938 C 135.589844 260.015625 137.273438 261.699219 139.328125 261.699219 L 203.480469 261.699219 L 204.039062 254.21875 L 139.328125 254.21875 C 137.273438 254.21875 135.589844 255.898438 135.589844 257.960938 Z M 135.589844 257.960938 " fill-opacity="1" fill-rule="nonzero"/><path fill="#3d7661" d="M 205.164062 239.261719 L 139.328125 239.261719 C 137.273438 239.261719 135.589844 240.941406 135.589844 243 C 135.589844 245.054688 137.273438 246.738281 139.328125 246.738281 L 204.601562 246.738281 Z M 205.164062 239.261719 " fill-opacity="1" fill-rule="nonzero"/><path fill="#3d7661" d="M 220.6875 203.734375 L 139.328125 203.734375 C 137.273438 203.734375 135.589844 205.414062 135.589844 207.472656 C 135.589844 209.527344 137.273438 211.210938 139.328125 211.210938 L 216.757812 211.210938 Z M 220.6875 203.734375 " fill-opacity="1" fill-rule="nonzero"/><path fill="#3d7661" d="M 228.730469 188.773438 L 139.328125 188.773438 C 137.273438 188.773438 135.589844 190.453125 135.589844 192.515625 C 135.589844 194.570312 137.273438 196.253906 139.328125 196.253906 L 224.800781 196.253906 Z M 228.730469 188.773438 " fill-opacity="1" fill-rule="nonzero"/><g clip-path="url(#9e9db6b209)"><path fill="#3d7661" d="M 247.804688 264.6875 L 247.804688 297.226562 C 247.804688 301.339844 244.4375 304.707031 240.324219 304.707031 L 86.960938 304.707031 C 82.847656 304.707031 79.480469 301.339844 79.480469 297.226562 L 79.480469 87.800781 C 79.480469 83.6875 82.847656 80.320312 86.960938 80.320312 L 240.324219 80.320312 C 244.4375 80.320312 247.804688 83.6875 247.804688 87.800781 L 247.804688 153.246094 L 255.285156 139.222656 L 255.285156 87.800781 C 255.285156 79.570312 248.554688 72.84375 240.324219 72.84375 L 86.960938 72.84375 C 78.730469 72.84375 72 79.570312 72 87.800781 L 72 297.226562 C 72 305.453125 78.730469 312.183594 86.960938 312.183594 L 240.324219 312.183594 C 248.554688 312.183594 255.285156 305.453125 255.285156 297.226562 L 255.285156 258.707031 C 254.914062 259.078125 254.539062 259.453125 254.164062 259.828125 Z M 247.804688 264.6875 " fill-opacity="1" fill-rule="nonzero"/></g><path fill="#3d7661" d="M 305.40625 126.132812 C 305.40625 126.132812 288.578125 117.15625 288.578125 117.15625 C 282.96875 114.164062 276.046875 116.410156 273.238281 121.832031 L 213.578125 233.089844 C 213.394531 233.460938 213.203125 234.023438 213.203125 234.585938 L 210.398438 268.804688 C 210.398438 268.804688 210.398438 268.988281 210.398438 268.988281 C 210.210938 273.289062 213.765625 276.65625 217.878906 276.65625 C 219.5625 276.65625 221.246094 276.097656 222.554688 275.160156 C 222.554688 275.160156 249.488281 253.84375 249.488281 253.84375 C 249.863281 253.46875 250.238281 253.097656 250.421875 252.722656 L 310.085938 141.464844 C 313.078125 136.042969 310.835938 128.9375 305.40625 126.132812 Z M 217.878906 269.179688 L 220.125 239.070312 L 242.195312 250.105469 Z M 246.683594 243.933594 L 222.742188 231.78125 L 264.261719 154.367188 L 288.390625 166.335938 Z M 303.539062 137.914062 L 291.757812 159.789062 L 267.628906 147.824219 L 279.597656 125.382812 C 280.535156 123.515625 282.96875 122.765625 284.835938 123.699219 L 301.667969 132.679688 C 302.605469 133.238281 303.164062 133.988281 303.539062 134.921875 C 304.097656 136.042969 303.914062 136.980469 303.539062 137.914062 Z M 303.539062 137.914062 " fill-opacity="1" fill-rule="nonzero"/></svg>