<svg xmlns="http://www.w3.org/2000/svg" xmlns:xlink="http://www.w3.org/1999/xlink" width="500" zoomAndPan="magnify"
  viewBox="0 0 375 374.999991" height="500" preserveAspectRatio="xMidYMid meet" version="1.0">
  <path fill="#3d7661"
    d="M 262.3125 225.035156 L 132.457031 225.035156 C 131.175781 225.035156 130.179688 224.039062 130.179688 222.761719 L 130.179688 116.835938 C 130.179688 92.949219 153.148438 73.539062 181.3125 73.539062 L 213.382812 73.539062 C 241.546875 73.539062 264.515625 92.949219 264.515625 116.835938 L 264.515625 222.761719 C 264.515625 223.96875 263.519531 225.035156 262.3125 225.035156 Z M 134.730469 220.488281 L 260.035156 220.488281 L 260.035156 116.835938 C 260.035156 95.4375 239.128906 78.019531 213.457031 78.019531 L 181.382812 78.019531 C 155.710938 78.019531 134.804688 95.4375 134.804688 116.835938 L 134.804688 220.488281 Z M 134.730469 220.488281 "
    fill-opacity="1" fill-rule="nonzero" />
  <path fill="#3d7661"
    d="M 231.660156 374.824219 L 163.035156 374.824219 C 154.855469 374.824219 148.242188 368.214844 148.242188 360.039062 L 148.242188 117.476562 C 148.242188 116.195312 149.238281 115.199219 150.519531 115.199219 C 151.800781 115.199219 152.792969 116.195312 152.792969 117.476562 L 152.792969 359.96875 C 152.792969 365.65625 157.417969 370.277344 163.105469 370.277344 L 231.730469 370.277344 C 237.421875 370.277344 242.042969 365.65625 242.042969 359.96875 L 242.042969 117.476562 C 242.042969 116.195312 243.039062 115.199219 244.320312 115.199219 C 245.597656 115.199219 246.59375 116.195312 246.59375 117.476562 L 246.59375 359.96875 C 246.453125 368.214844 239.839844 374.824219 231.660156 374.824219 Z M 231.660156 374.824219 "
    fill-opacity="1" fill-rule="nonzero" />
  <path fill="#3d7661"
    d="M 197.382812 71.265625 C 177.757812 71.265625 161.828125 55.339844 161.828125 35.71875 C 161.828125 16.097656 177.757812 0.175781 197.382812 0.175781 C 217.011719 0.175781 232.941406 16.097656 232.941406 35.71875 C 232.941406 55.339844 217.011719 71.265625 197.382812 71.265625 Z M 197.382812 4.722656 C 180.246094 4.722656 166.304688 18.65625 166.304688 35.789062 C 166.304688 52.925781 180.246094 66.859375 197.382812 66.859375 C 214.523438 66.859375 228.460938 52.925781 228.460938 35.789062 C 228.390625 18.585938 214.523438 4.722656 197.382812 4.722656 Z M 197.382812 4.722656 "
    fill-opacity="1" fill-rule="nonzero" />
  <path fill="#3d7661"
    d="M 197.382812 374.824219 C 196.101562 374.824219 195.109375 373.832031 195.109375 372.550781 L 195.109375 245.085938 C 195.109375 243.804688 196.101562 242.808594 197.382812 242.808594 C 198.664062 242.808594 199.660156 243.804688 199.660156 245.085938 L 199.660156 372.621094 C 199.660156 373.832031 198.664062 374.824219 197.382812 374.824219 Z M 197.382812 374.824219 "
    fill-opacity="1" fill-rule="nonzero" />

  <path fill="#d29e5b"
    d="M 143.265625 112.996094 C 130.535156 112.996094 120.152344 102.617188 120.152344 89.890625 C 120.152344 77.167969 130.535156 66.785156 143.265625 66.785156 C 155.996094 66.785156 166.378906 77.167969 166.378906 89.890625 C 166.378906 102.617188 155.996094 112.996094 143.265625 112.996094 Z M 143.265625 71.265625 C 133.023438 71.265625 124.632812 79.582031 124.632812 89.890625 C 124.632812 100.128906 132.953125 108.515625 143.265625 108.515625 C 153.503906 108.515625 161.898438 100.199219 161.898438 89.890625 C 161.898438 79.652344 153.507812 71.265625 143.265625 71.265625 Z M 143.265625 71.265625 "
    fill-opacity="1" fill-rule="nonzero" />
  <path fill="#d29e5b"
    d="M 154.003906 89.890625 C 154.003906 90.597656 153.933594 91.292969 153.796875 91.984375 C 153.660156 92.675781 153.457031 93.347656 153.1875 94 C 152.917969 94.652344 152.585938 95.269531 152.195312 95.855469 C 151.800781 96.441406 151.355469 96.984375 150.859375 97.480469 C 150.359375 97.980469 149.816406 98.425781 149.230469 98.816406 C 148.644531 99.207031 148.027344 99.539062 147.375 99.808594 C 146.722656 100.078125 146.050781 100.28125 145.359375 100.421875 C 144.667969 100.558594 143.96875 100.625 143.265625 100.625 C 142.558594 100.625 141.863281 100.558594 141.171875 100.421875 C 140.480469 100.28125 139.808594 100.078125 139.15625 99.808594 C 138.503906 99.539062 137.886719 99.207031 137.300781 98.816406 C 136.714844 98.425781 136.171875 97.980469 135.671875 97.480469 C 135.171875 96.984375 134.730469 96.441406 134.335938 95.855469 C 133.945312 95.269531 133.613281 94.652344 133.34375 94 C 133.074219 93.347656 132.871094 92.675781 132.734375 91.984375 C 132.597656 91.292969 132.527344 90.597656 132.527344 89.890625 C 132.527344 89.1875 132.597656 88.488281 132.734375 87.796875 C 132.871094 87.105469 133.074219 86.433594 133.34375 85.785156 C 133.613281 85.132812 133.945312 84.511719 134.335938 83.925781 C 134.730469 83.339844 135.171875 82.800781 135.671875 82.300781 C 136.171875 81.800781 136.714844 81.355469 137.300781 80.964844 C 137.886719 80.574219 138.503906 80.242188 139.15625 79.972656 C 139.808594 79.703125 140.480469 79.5 141.171875 79.363281 C 141.863281 79.226562 142.558594 79.15625 143.265625 79.15625 C 143.96875 79.15625 144.667969 79.226562 145.359375 79.363281 C 146.050781 79.5 146.722656 79.703125 147.375 79.972656 C 148.027344 80.242188 148.644531 80.574219 149.230469 80.964844 C 149.816406 81.355469 150.359375 81.800781 150.859375 82.300781 C 151.355469 82.800781 151.800781 83.339844 152.195312 83.925781 C 152.585938 84.511719 152.917969 85.132812 153.1875 85.785156 C 153.457031 86.433594 153.660156 87.105469 153.796875 87.796875 C 153.933594 88.488281 154.003906 89.1875 154.003906 89.890625 Z M 154.003906 89.890625 "
    fill-opacity="1" fill-rule="nonzero" />
  <path fill="#d29e5b"
    d="M 143.265625 102.828125 C 136.082031 102.828125 130.25 97 130.25 89.820312 C 130.25 82.640625 136.082031 76.8125 143.265625 76.8125 C 150.449219 76.8125 156.28125 82.640625 156.28125 89.820312 C 156.207031 97.070312 150.375 102.828125 143.265625 102.828125 Z M 143.265625 81.429688 C 138.570312 81.429688 134.804688 85.199219 134.804688 89.890625 C 134.804688 94.582031 138.570312 98.351562 143.265625 98.351562 C 147.957031 98.351562 151.726562 94.582031 151.726562 89.890625 C 151.726562 85.199219 147.886719 81.429688 143.265625 81.429688 Z M 143.265625 81.429688 "
    fill-opacity="1" fill-rule="nonzero" />

  <path fill="#d29e5b"
    d="M 241.472656 320.652344 C 228.746094 320.652344 218.363281 310.273438 218.363281 297.550781 C 218.363281 284.824219 228.746094 274.445312 241.472656 274.445312 C 254.203125 274.445312 264.585938 284.824219 264.585938 297.550781 C 264.585938 310.273438 254.203125 320.652344 241.472656 320.652344 Z M 241.472656 278.921875 C 231.234375 278.921875 222.84375 287.242188 222.84375 297.550781 C 222.84375 307.785156 231.164062 316.175781 241.472656 316.175781 C 251.714844 316.175781 260.105469 307.859375 260.105469 297.550781 C 260.105469 287.242188 251.714844 278.921875 241.472656 278.921875 Z M 241.472656 278.921875 "
    fill-opacity="1" fill-rule="nonzero" />
  <path fill="#d29e5b"
    d="M 252.140625 297.550781 C 252.140625 303.449219 247.304688 308.285156 241.402344 308.285156 C 235.5 308.285156 230.664062 303.449219 230.664062 297.550781 C 230.664062 291.648438 235.5 286.816406 241.402344 286.816406 C 247.375 286.816406 252.140625 291.578125 252.140625 297.550781 Z M 252.140625 297.550781 "
    fill-opacity="1" fill-rule="nonzero" />
  <path fill="#d29e5b"
    d="M 241.472656 310.488281 C 234.292969 310.488281 228.460938 304.660156 228.460938 297.476562 C 228.460938 290.296875 234.292969 284.46875 241.472656 284.46875 C 248.65625 284.46875 254.488281 290.296875 254.488281 297.476562 C 254.417969 304.660156 248.585938 310.488281 241.472656 310.488281 Z M 241.472656 289.089844 C 236.78125 289.089844 233.011719 292.859375 233.011719 297.550781 C 233.011719 302.242188 236.78125 306.007812 241.472656 306.007812 C 246.167969 306.007812 249.9375 302.242188 249.9375 297.550781 C 249.9375 292.859375 246.097656 289.089844 241.472656 289.089844 Z M 241.472656 289.089844 "
    fill-opacity="1" fill-rule="nonzero" />
  <path fill="#d29e5b"
    d="M 149.523438 236.054688 C 136.792969 236.054688 126.410156 225.675781 126.410156 212.949219 C 126.410156 200.226562 136.792969 189.847656 149.523438 189.847656 C 162.253906 189.847656 172.636719 200.226562 172.636719 212.949219 C 172.636719 225.675781 162.253906 236.054688 149.523438 236.054688 Z M 149.523438 194.253906 C 139.28125 194.253906 130.890625 202.570312 130.890625 212.878906 C 130.890625 223.117188 139.210938 231.503906 149.523438 231.503906 C 159.765625 231.503906 168.15625 223.1875 168.15625 212.878906 C 168.15625 202.640625 159.765625 194.253906 149.523438 194.253906 Z M 149.523438 194.253906 "
    fill-opacity="1" fill-rule="nonzero" />
  <path fill="#d29e5b"
    d="M 160.191406 212.878906 C 160.191406 218.78125 155.355469 223.613281 149.453125 223.613281 C 143.550781 223.613281 138.714844 218.78125 138.714844 212.878906 C 138.714844 206.980469 143.550781 202.144531 149.453125 202.144531 C 155.425781 202.144531 160.191406 206.980469 160.191406 212.878906 Z M 160.191406 212.878906 "
    fill-opacity="1" fill-rule="nonzero" />
  <path fill="#d29e5b"
    d="M 149.523438 225.890625 C 142.339844 225.890625 136.507812 220.058594 136.507812 212.878906 C 136.507812 205.699219 142.339844 199.871094 149.523438 199.871094 C 156.707031 199.871094 162.539062 205.699219 162.539062 212.878906 C 162.464844 220.058594 156.636719 225.890625 149.523438 225.890625 Z M 149.523438 204.417969 C 144.828125 204.417969 141.0625 208.1875 141.0625 212.878906 C 141.0625 217.570312 144.828125 221.339844 149.523438 221.339844 C 154.21875 221.339844 157.984375 217.570312 157.984375 212.878906 C 157.984375 208.257812 154.144531 204.417969 149.523438 204.417969 Z M 149.523438 204.417969 "
    fill-opacity="1" fill-rule="nonzero" />
  <path fill="#d29e5b" d="M 109.984375 42.898438 L 119.726562 62.378906 " fill-opacity="1" fill-rule="nonzero" />
  <path fill="#d29e5b"
    d="M 119.726562 64.652344 C 118.875 64.652344 118.089844 64.226562 117.734375 63.375 L 107.921875 43.894531 C 107.351562 42.757812 107.851562 41.40625 108.917969 40.839844 C 110.054688 40.269531 111.40625 40.765625 111.976562 41.832031 L 121.71875 61.3125 C 122.285156 62.449219 121.789062 63.800781 120.722656 64.371094 C 120.367188 64.582031 120.011719 64.652344 119.726562 64.652344 Z M 119.726562 64.652344 "
    fill-opacity="1" fill-rule="nonzero" />
  <path fill="#d29e5b" d="M 87.867188 68.636719 L 106.710938 79.511719 " fill-opacity="1" fill-rule="nonzero" />
  <path fill="#d29e5b"
    d="M 106.710938 81.785156 C 106.355469 81.785156 105.929688 81.714844 105.574219 81.503906 L 86.730469 70.554688 C 85.664062 69.914062 85.308594 68.5625 85.875 67.496094 C 86.515625 66.429688 87.867188 66.074219 88.933594 66.644531 L 107.78125 77.523438 C 108.847656 78.160156 109.203125 79.511719 108.632812 80.578125 C 108.277344 81.359375 107.496094 81.785156 106.710938 81.785156 Z M 106.710938 81.785156 "
    fill-opacity="1" fill-rule="nonzero" />
  <path fill="#d29e5b" d="M 80.898438 104.109375 L 101.949219 98.566406 " fill-opacity="1" fill-rule="nonzero" />
  <g clip-path="url(#ff2852f515)">
    <path fill="#d29e5b"
      d="M 80.898438 106.382812 C 79.902344 106.382812 78.976562 105.746094 78.695312 104.679688 C 78.410156 103.46875 79.121094 102.261719 80.328125 101.90625 L 101.378906 96.359375 C 102.589844 96.003906 103.796875 96.789062 104.152344 97.996094 C 104.4375 99.203125 103.726562 100.414062 102.515625 100.769531 L 81.46875 106.3125 C 81.253906 106.382812 81.113281 106.382812 80.898438 106.382812 Z M 80.898438 106.382812 "
      fill-opacity="1" fill-rule="nonzero" />
  </g>
  <path fill="#d29e5b" d="M 94.695312 189.632812 L 114.464844 198.875 " fill-opacity="1" fill-rule="nonzero" />
  <path fill="#d29e5b"
    d="M 114.464844 201.148438 C 114.109375 201.148438 113.824219 201.078125 113.539062 200.9375 L 93.769531 191.695312 C 92.632812 191.195312 92.132812 189.847656 92.703125 188.707031 C 93.199219 187.570312 94.550781 187.074219 95.691406 187.640625 L 115.460938 196.882812 C 116.597656 197.382812 117.09375 198.734375 116.527344 199.871094 C 116.101562 200.652344 115.316406 201.148438 114.464844 201.148438 Z M 114.464844 201.148438 "
    fill-opacity="1" fill-rule="nonzero" />
  <path fill="#d29e5b" d="M 93.34375 223.542969 L 114.890625 220.34375 " fill-opacity="1" fill-rule="nonzero" />
  <path fill="#d29e5b"
    d="M 93.34375 225.746094 C 92.277344 225.746094 91.28125 224.964844 91.136719 223.828125 C 90.925781 222.617188 91.777344 221.480469 93.058594 221.269531 L 114.605469 218.070312 C 115.816406 217.855469 116.953125 218.710938 117.167969 219.988281 C 117.378906 221.199219 116.527344 222.335938 115.246094 222.546875 L 93.699219 225.746094 C 93.554688 225.746094 93.484375 225.746094 93.34375 225.746094 Z M 93.34375 225.746094 "
    fill-opacity="1" fill-rule="nonzero" />
  <path fill="#d29e5b" d="M 109.984375 255.675781 L 122.996094 238.257812 " fill-opacity="1" fill-rule="nonzero" />
  <path fill="#d29e5b"
    d="M 109.984375 257.878906 C 109.484375 257.878906 109.058594 257.738281 108.632812 257.453125 C 107.636719 256.671875 107.421875 255.320312 108.207031 254.324219 L 121.292969 236.910156 C 122.003906 235.914062 123.425781 235.699219 124.421875 236.480469 C 125.414062 237.265625 125.628906 238.613281 124.847656 239.609375 L 111.761719 257.027344 C 111.335938 257.597656 110.625 257.878906 109.984375 257.878906 Z M 109.984375 257.878906 "
    fill-opacity="1" fill-rule="nonzero" />
  <path fill="#d29e5b" d="M 286.488281 261.648438 L 268.925781 274.585938 " fill-opacity="1" fill-rule="nonzero" />
  <path fill="#d29e5b"
    d="M 268.925781 276.789062 C 268.214844 276.789062 267.574219 276.507812 267.074219 275.867188 C 266.363281 274.871094 266.578125 273.449219 267.574219 272.738281 L 285.136719 259.871094 C 286.132812 259.160156 287.554688 259.375 288.269531 260.367188 C 288.980469 261.363281 288.765625 262.785156 287.769531 263.496094 L 270.203125 276.363281 C 269.847656 276.648438 269.351562 276.789062 268.925781 276.789062 Z M 268.925781 276.789062 "
    fill-opacity="1" fill-rule="nonzero" />
  <path fill="#d29e5b" d="M 294.382812 294.636719 L 272.621094 295.703125 " fill-opacity="1" fill-rule="nonzero" />
  <g clip-path="url(#a3bb1bf8ad)">
    <path fill="#d29e5b"
      d="M 272.621094 297.976562 C 271.414062 297.976562 270.417969 297.050781 270.347656 295.84375 C 270.277344 294.5625 271.269531 293.570312 272.480469 293.496094 L 294.242188 292.429688 C 295.449219 292.359375 296.515625 293.355469 296.589844 294.5625 C 296.660156 295.84375 295.664062 296.839844 294.453125 296.910156 L 272.695312 297.976562 C 272.695312 297.976562 272.695312 297.976562 272.621094 297.976562 Z M 272.621094 297.976562 "
      fill-opacity="1" fill-rule="nonzero" />
  </g>
  <path fill="#d29e5b" d="M 284.355469 329.398438 L 268.140625 314.824219 " fill-opacity="1" fill-rule="nonzero" />
  <path fill="#d29e5b"
    d="M 284.355469 331.671875 C 283.789062 331.671875 283.289062 331.460938 282.863281 331.105469 L 266.648438 316.53125 C 265.722656 315.679688 265.652344 314.257812 266.507812 313.332031 C 267.359375 312.40625 268.78125 312.335938 269.707031 313.191406 L 285.921875 327.761719 C 286.84375 328.617188 286.917969 330.039062 286.0625 330.960938 C 285.566406 331.390625 284.996094 331.671875 284.355469 331.671875 Z M 284.355469 331.671875 "
    fill-opacity="1" fill-rule="nonzero" />
</svg>