<svg xmlns="http://www.w3.org/2000/svg" xmlns:xlink="http://www.w3.org/1999/xlink" width="500" zoomAndPan="magnify"
  viewBox="0 0 375 374.999991" height="500" preserveAspectRatio="xMidYMid meet" version="1.0">
  <defs>
    <clipPath id="4b411a20f5">
      <path d="M 260.863281 30 L 337.363281 30 L 337.363281 164.285156 L 260.863281 164.285156 Z M 260.863281 30 "
        clip-rule="nonzero" />
    </clipPath>
    <clipPath id="8579c81675">
      <path d="M 284 14.285156 L 314 14.285156 L 314 26 L 284 26 Z M 284 14.285156 " clip-rule="nonzero" />
    </clipPath>
  </defs>
  <g clip-path="url(#4b411a20f5)">
    <path fill="#3d7661"
      d="M 329.542969 30.515625 L 268.683594 30.515625 C 264.371094 30.515625 260.867188 34.027344 260.867188 38.347656 L 260.867188 156.484375 C 260.867188 160.777344 264.371094 164.285156 268.683594 164.285156 L 329.542969 164.285156 C 333.824219 164.285156 337.359375 160.777344 337.359375 156.457031 L 337.359375 38.347656 C 337.359375 34.027344 333.824219 30.515625 329.542969 30.515625 Z M 328.914062 155.855469 L 269.285156 155.855469 L 269.285156 38.945312 L 328.914062 38.945312 Z M 328.914062 155.855469 "
      fill-opacity="1" fill-rule="evenodd" />
  </g>
  <g clip-path="url(#8579c81675)">
    <path fill="#3d7661"
      d="M 313.699219 19.835938 C 313.699219 16.777344 311.214844 14.285156 308.1875 14.285156 L 290.039062 14.285156 C 286.984375 14.285156 284.5 16.777344 284.5 19.835938 L 284.5 25.386719 L 313.699219 25.386719 Z M 313.699219 19.835938 "
      fill-opacity="1" fill-rule="evenodd" />
  </g>
  <path fill="#d29e5b"
    d="M 274.554688 133.296875 L 323.671875 133.296875 L 323.671875 149.734375 L 274.554688 149.734375 Z M 274.554688 133.296875 "
    fill-opacity="1" fill-rule="evenodd" />
  <path fill="#d29e5b"
    d="M 274.554688 111.15625 L 323.671875 111.15625 L 323.671875 127.597656 L 274.554688 127.597656 Z M 274.554688 111.15625 "
    fill-opacity="1" fill-rule="evenodd" />
  <path fill="#d29e5b"
    d="M 274.554688 88.984375 L 323.671875 88.984375 L 323.671875 105.425781 L 274.554688 105.425781 Z M 274.554688 88.984375 "
    fill-opacity="1" fill-rule="evenodd" />
  <path fill="#d29e5b"
    d="M 274.554688 66.847656 L 323.671875 66.847656 L 323.671875 83.285156 L 274.554688 83.285156 Z M 274.554688 66.847656 "
    fill-opacity="1" fill-rule="evenodd" />
  <path fill="#d29e5b"
    d="M 274.554688 44.675781 L 323.671875 44.675781 L 323.671875 61.117188 L 274.554688 61.117188 Z M 274.554688 44.675781 "
    fill-opacity="1" fill-rule="evenodd" />
  <path fill="#3d7661"
    d="M 131.636719 15.761719 C 139.46875 12.664062 148.515625 12.546875 156.886719 16.152344 C 173.742188 23.414062 181.347656 42.664062 174.109375 59.4375 C 166.835938 76.238281 147.558594 83.867188 130.738281 76.636719 C 113.96875 69.433594 106.308594 50.070312 113.546875 33.351562 C 117.175781 24.964844 123.832031 18.886719 131.636719 15.761719 Z M 127.128906 4.445312 C 116.367188 8.726562 107.230469 17.113281 102.304688 28.542969 C 92.410156 51.339844 102.980469 78.042969 125.867188 87.894531 C 148.769531 97.742188 175.488281 87.164062 185.386719 64.3125 C 195.21875 41.488281 184.648438 14.777344 161.734375 4.933594 C 150.292969 0 137.890625 0.171875 127.128906 4.445312 Z M 127.128906 4.445312 "
    fill-opacity="1" fill-rule="evenodd" />
  <path fill="#3d7661"
    d="M 122.539062 241.128906 L 143.789062 268.234375 L 140.800781 279.371094 C 139.394531 284.636719 139.160156 286.632812 137.359375 289.304688 L 93.035156 354.824219 C 89.933594 359.382812 86.546875 361.214844 83.191406 361.746094 C 79.816406 362.308594 76.265625 361.40625 73.328125 359.4375 C 70.402344 357.464844 68.257812 354.484375 67.5 351.1875 C 66.738281 347.863281 67.160156 344.070312 70.253906 339.476562 L 112.671875 276.714844 C 113.066406 276.15625 113.347656 275.53125 113.519531 274.859375 Z M 144.941406 110.460938 C 152.800781 110.890625 159.59375 113.8125 162.5 117.945312 L 198.621094 169.648438 C 199.101562 170.355469 199.75 170.945312 200.457031 171.359375 L 233.9375 191.789062 C 237.460938 193.929688 238.757812 196.292969 239.203125 198.796875 C 239.65625 201.328125 239.035156 204.203125 237.539062 206.683594 C 236.019531 209.125 233.710938 211.011719 231.257812 211.777344 C 228.808594 212.507812 226.15625 212.449219 222.640625 210.308594 L 186.109375 187.96875 C 184.785156 187.152344 183.628906 186.023438 182.902344 184.988281 L 169.542969 165.960938 C 166.140625 161.09375 158.46875 163.480469 158.414062 169.425781 L 158.191406 219.996094 C 158.164062 221.378906 158.640625 222.726562 159.488281 223.820312 L 198.269531 273.128906 C 199.703125 274.929688 200.605469 277.101562 201 279.375 L 211.738281 344.953125 C 212.609375 350.382812 211.367188 353.957031 209.285156 356.660156 C 207.230469 359.335938 204.042969 361.160156 200.546875 361.722656 C 197.050781 362.285156 193.449219 361.609375 190.597656 359.730469 C 187.78125 357.84375 185.496094 354.800781 184.625 349.398438 L 174.617188 288.921875 C 174.449219 287.90625 174.027344 286.949219 173.40625 286.132812 L 122.371094 221.070312 C 120.460938 218.625 119.386719 215.640625 119.386719 212.625 L 119.386719 158.363281 C 119.386719 153.351562 113.664062 150.480469 109.609375 153.464844 L 97.828125 162.191406 C 96.722656 163.007812 95.941406 164.15625 95.570312 165.453125 L 82.328125 213.410156 C 80.136719 221.378906 73.902344 223.3125 68.265625 222.222656 C 65.449219 221.6875 63.074219 220.25 61.753906 218.398438 C 60.429688 216.566406 59.726562 214.253906 60.796875 210.265625 L 75.28125 155.835938 C 76.097656 152.765625 77.617188 150.152344 79.566406 148.71875 L 124.347656 115.503906 C 128.707031 112.261719 137.105469 110.042969 144.941406 110.460938 Z M 117.042969 105.675781 L 72.261719 138.859375 C 67.582031 142.316406 64.734375 147.464844 63.351562 153.097656 C 59.382812 169 53.574219 189.652344 48.921875 207.105469 C 47.097656 214.027344 48.308594 220.726562 51.773438 225.539062 C 55.210938 230.355469 60.449219 233.21875 65.949219 234.265625 C 76.9375 236.378906 90.324219 230.523438 94.128906 216.671875 L 107.117188 170.578125 L 107.117188 212.621094 C 107.117188 218.472656 109.148438 224.074219 112.695312 228.609375 L 113.039062 229.027344 L 101.875 270.734375 L 60.054688 332.621094 C 55.351562 339.628906 54 347.3125 55.527344 353.925781 C 57.042969 360.566406 61.191406 366.03125 66.515625 369.601562 C 71.8125 373.171875 78.4375 374.917969 85.171875 373.855469 C 91.882812 372.753906 98.503906 368.671875 103.207031 361.664062 L 147.511719 296.175781 C 150.71875 291.417969 151.402344 287.226562 152.660156 282.53125 L 153.25 280.304688 L 162.753906 292.433594 L 172.46875 351.398438 C 173.828125 359.671875 178.167969 366.164062 183.804688 369.941406 C 189.472656 373.679688 196.207031 374.832031 202.523438 373.796875 C 208.835938 372.753906 214.886719 369.515625 219.058594 364.140625 C 223.207031 358.761719 225.203125 351.304688 223.824219 343 L 213.136719 277.429688 L 213.136719 277.402344 C 212.40625 273.0625 210.605469 269.015625 207.902344 265.578125 L 170.441406 217.90625 L 170.585938 188.75 L 172.839844 191.988281 C 174.757812 194.773438 177.34375 197 179.742188 198.457031 L 216.210938 220.746094 C 222.359375 224.488281 229.148438 225.195312 234.867188 223.449219 C 240.558594 221.726562 245.066406 217.871094 248 213.089844 C 250.925781 208.308594 252.34375 202.457031 251.269531 196.597656 C 250.230469 190.746094 246.480469 185.085938 240.339844 181.34375 L 207.933594 161.589844 L 172.503906 110.933594 C 166.449219 102.261719 155.90625 98.800781 144.296875 98.546875 C 132.683594 98.335938 123.773438 100.671875 117.042969 105.675781 Z M 117.042969 105.675781 "
    fill-opacity="1" fill-rule="nonzero" />
</svg>