<svg xmlns="http://www.w3.org/2000/svg" xmlns:xlink="http://www.w3.org/1999/xlink" width="500" zoomAndPan="magnify"
  viewBox="0 0 375 374.999991" height="500" preserveAspectRatio="xMidYMid meet" version="1.0">
  <path fill="#3d7661"
    d="M 258.339844 13.394531 C 274.023438 12.972656 287.148438 25.375 287.617188 41.066406 C 287.617188 41.382812 287.617188 41.644531 287.617188 41.90625 C 287.828125 57.652344 275.226562 70.574219 259.488281 70.785156 C 243.75 70.992188 230.886719 58.382812 230.679688 42.636719 C 230.679688 42.429688 230.679688 42.167969 230.679688 41.90625 C 230.625 26.523438 242.914062 13.863281 258.339844 13.394531 Z M 257.972656 -0.0507812 C 235.28125 0.574219 217.242188 19.199219 217.292969 41.90625 C 217.03125 65.082031 235.59375 84.019531 258.703125 84.226562 C 281.816406 84.488281 300.742188 65.917969 301.003906 42.792969 C 301.003906 42.480469 301.003906 42.21875 301.003906 41.90625 C 301.054688 18.78125 282.335938 0 259.226562 -0.0507812 C 258.808594 -0.0507812 258.390625 -0.0507812 257.972656 -0.0507812 "
    fill-opacity="1" fill-rule="nonzero" />
  <g clip-path="url(#92f8e0730c)">
    <path fill="#d29e5b"
      d="M 307.171875 281.40625 C 321.917969 280.9375 334.207031 292.550781 334.625 307.304688 C 334.675781 307.511719 334.675781 307.828125 334.675781 308.089844 C 334.675781 322.789062 322.703125 334.769531 307.957031 334.769531 C 293.265625 334.769531 281.292969 322.789062 281.292969 308.089844 C 281.292969 293.648438 292.796875 281.824219 307.171875 281.40625 Z M 306.859375 267.960938 C 285.160156 268.640625 267.90625 286.378906 267.90625 308.089844 C 267.90625 330.164062 285.894531 348.160156 307.957031 348.160156 C 330.074219 348.160156 348.0625 330.164062 348.0625 308.089844 C 348.0625 285.90625 330.128906 267.960938 308.011719 267.960938 C 307.644531 267.960938 307.226562 267.960938 306.859375 267.960938 "
      fill-opacity="1" fill-rule="nonzero" />
  </g>
  <g clip-path="url(#58bb9a2774)">
    <path fill="#3d7661"
      d="M 143.777344 56.605469 C 150.992188 56.449219 158 59.222656 163.175781 64.296875 L 261.738281 161.550781 C 263.722656 163.539062 266.808594 164.011719 269.371094 162.753906 L 321.292969 137.121094 C 327.929688 133.824219 335.929688 136.597656 339.171875 143.242188 C 342.46875 149.832031 339.75 157.890625 333.109375 161.132812 L 276.953125 188.859375 C 266.757812 193.933594 254.417969 191.945312 246.3125 183.941406 L 222.105469 160.035156 C 219.4375 157.46875 215.203125 157.523438 212.640625 160.140625 C 212.378906 160.453125 212.066406 160.765625 211.855469 161.082031 L 174.3125 217.269531 C 172.273438 220.355469 173.109375 224.539062 176.144531 226.578125 C 177.242188 227.3125 178.550781 227.730469 179.855469 227.730469 L 229.789062 227.730469 C 237.164062 227.730469 243.175781 233.695312 243.175781 241.125 L 243.175781 308.089844 C 243.121094 315.464844 237.109375 321.429688 229.683594 321.429688 C 222.363281 321.375 216.40625 315.414062 216.40625 308.089844 L 216.40625 261.214844 C 216.40625 257.5 213.371094 254.515625 209.710938 254.515625 L 130.183594 254.515625 C 127.9375 254.515625 125.84375 255.617188 124.589844 257.445312 L 58.96875 355.695312 C 54.734375 361.710938 46.367188 363.175781 40.304688 358.9375 C 34.5 354.804688 32.929688 346.855469 36.746094 340.785156 L 180.117188 126.289062 C 181.894531 123.621094 181.527344 120.066406 179.230469 117.761719 L 150.105469 89.042969 C 147.492188 86.476562 143.253906 86.476562 140.640625 89.144531 C 140.378906 89.460938 140.066406 89.773438 139.855469 90.140625 L 103.988281 143.816406 C 99.753906 149.886719 91.386719 151.296875 85.320312 147.007812 C 79.519531 142.925781 77.949219 134.976562 81.765625 128.90625 L 122.078125 68.535156 C 126.941406 61.261719 135.046875 56.816406 143.777344 56.605469 Z M 143.464844 43.210938 C 130.394531 43.472656 118.261719 50.171875 110.996094 61.050781 L 70.628906 121.425781 C 62.367188 133.773438 65.714844 150.40625 78 158.621094 C 90.289062 166.835938 106.917969 163.539062 115.125 151.191406 L 146.496094 104.265625 L 165.894531 123.414062 L 25.609375 333.355469 C 17.664062 345.859375 21.375 362.390625 33.871094 370.292969 C 45.949219 377.929688 61.84375 374.789062 70.105469 363.125 L 133.792969 267.910156 L 203.019531 267.910156 L 203.019531 308.089844 C 203.019531 322.839844 214.992188 334.875 229.789062 334.875 C 244.535156 334.875 256.558594 322.839844 256.558594 308.089844 L 256.558594 241.125 C 256.558594 226.320312 244.535156 214.339844 229.789062 214.339844 L 192.40625 214.339844 L 218.445312 175.257812 L 236.902344 193.464844 C 249.082031 205.445312 267.539062 208.480469 282.859375 200.894531 L 339.015625 173.164062 C 352.296875 166.625 357.789062 150.566406 351.199219 137.277344 C 344.664062 124.039062 328.609375 118.546875 315.382812 125.085938 L 267.75 148.628906 L 172.535156 54.773438 C 164.851562 47.136719 154.339844 42.953125 143.464844 43.210938 "
      fill-opacity="1" fill-rule="nonzero" />
  </g>
</svg>