<svg xmlns="http://www.w3.org/2000/svg" xmlns:xlink="http://www.w3.org/1999/xlink" width="500" zoomAndPan="magnify"
  viewBox="0 0 375 374.999991" height="500" preserveAspectRatio="xMidYMid meet" version="1.0">
  <path fill="#3d7661"
    d="M 118.601562 351.613281 C 138.320312 357.046875 164.511719 359.777344 190.582031 359.777344 C 216.421875 359.777344 242.371094 357.105469 262.023438 351.746094 C 265.128906 351.160156 267.480469 348.433594 267.480469 345.160156 L 267.480469 123.429688 C 267.480469 123.328125 267.480469 123.230469 267.46875 123.128906 L 267.445312 123.128906 C 266.894531 110.890625 255.816406 101.445312 250.113281 97.371094 L 250.113281 71.917969 C 250.113281 68.214844 247.109375 65.210938 243.410156 65.210938 C 239.707031 65.210938 236.703125 68.214844 236.703125 71.917969 L 236.703125 100.949219 C 236.703125 103.601562 238.238281 105.898438 240.480469 106.980469 C 242.8125 108.417969 253.472656 115.410156 254.070312 123.429688 L 254.058594 123.429688 L 254.058594 339.980469 C 236.230469 344.234375 213.449219 346.367188 190.570312 346.367188 C 167.695312 346.367188 144.914062 344.234375 127.085938 339.980469 L 127.085938 123.328125 C 127.835938 114.371094 141.082031 106.714844 141.113281 106.691406 L 141.125 106.714844 C 143.28125 105.457031 144.472656 103.167969 144.441406 100.839844 L 144.441406 71.90625 C 144.441406 68.207031 141.433594 65.199219 137.734375 65.199219 C 134.035156 65.199219 131.027344 68.207031 131.027344 71.90625 L 131.027344 97.359375 C 125.429688 101.355469 114.648438 110.539062 113.742188 122.457031 C 113.695312 122.765625 113.675781 123.085938 113.675781 123.417969 L 113.675781 345.019531 C 113.621094 348.023438 115.585938 350.785156 118.601562 351.613281 Z M 118.601562 351.613281 "
    fill-opacity="1" fill-rule="nonzero" />
  <path fill="#3d7661"
    d="M 126.597656 71.917969 L 254.578125 71.917969 C 257.804688 71.917969 260.445312 69.277344 260.445312 66.0625 L 260.445312 34.246094 C 260.445312 31.023438 257.804688 28.382812 254.578125 28.382812 L 126.597656 28.382812 C 123.375 28.382812 120.746094 31.023438 120.746094 34.246094 L 120.746094 66.0625 C 120.734375 69.277344 123.375 71.917969 126.597656 71.917969 Z M 126.597656 71.917969 "
    fill-opacity="1" fill-rule="evenodd" />
  <path fill="#d29e5b" transform="translate(110, 190) scale(.65)"
    d="M 180.039062 126.640625 C 199.417969 114.886719 211.515625 93.835938 211.515625 70.71875 L 211.515625 63.589844 L 168.269531 71.4375 C 164.628906 72.097656 161.085938 73.078125 157.636719 74.335938 C 157.765625 72.734375 157.902344 71.140625 157.902344 69.527344 C 157.902344 57.382812 154.167969 45.742188 147.097656 35.859375 L 122.164062 0.984375 L 97.230469 35.851562 C 90.15625 45.734375 86.421875 57.378906 86.421875 69.527344 C 86.421875 71.144531 86.558594 72.738281 86.691406 74.335938 C 83.242188 73.085938 79.699219 72.101562 76.058594 71.441406 L 32.8125 63.582031 L 32.8125 70.710938 C 32.8125 93.832031 44.910156 114.886719 64.289062 126.636719 C 57.355469 133.589844 52.488281 142.683594 50.765625 153.027344 L 49.609375 159.953125 L 86.421875 159.953125 C 101.601562 159.953125 114.867188 151.785156 122.164062 139.648438 C 129.460938 151.785156 142.726562 159.953125 157.902344 159.953125 L 194.722656 159.953125 L 193.566406 153.027344 C 191.839844 142.6875 186.972656 133.597656 180.039062 126.640625 Z M 170.402344 83.144531 L 199.117188 77.933594 C 196.734375 95.527344 185.699219 110.785156 169.566406 118.695312 C 162.4375 114.660156 154.222656 112.363281 145.496094 112.363281 L 138.824219 112.363281 C 146.066406 105.800781 151.511719 97.710938 154.664062 88.695312 C 159.601562 86.042969 164.875 84.152344 170.402344 83.144531 Z M 106.921875 42.765625 L 122.164062 21.453125 L 137.40625 42.765625 C 143.023438 50.625 145.992188 59.871094 145.992188 69.527344 C 145.992188 83.585938 139.683594 96.6875 128.691406 105.480469 L 122.164062 110.691406 L 115.636719 105.480469 C 104.644531 96.6875 98.335938 83.585938 98.335938 69.527344 C 98.335938 59.871094 101.304688 50.625 106.921875 42.765625 Z M 45.207031 77.933594 L 73.925781 83.152344 C 79.453125 84.15625 84.726562 86.042969 89.664062 88.695312 C 92.816406 97.710938 98.257812 105.800781 105.503906 112.363281 L 98.832031 112.363281 C 90.105469 112.363281 81.890625 114.660156 74.761719 118.695312 C 58.628906 110.785156 47.589844 95.527344 45.207031 77.933594 Z M 86.421875 148.0625 L 64.371094 148.0625 C 69.667969 133.929688 83.199219 124.261719 98.832031 124.261719 L 115.605469 124.261719 C 112.839844 137.820312 100.808594 148.0625 86.421875 148.0625 Z M 157.902344 148.0625 C 143.519531 148.0625 131.484375 137.820312 128.722656 124.261719 L 145.496094 124.261719 C 161.125 124.261719 174.660156 133.929688 179.957031 148.0625 Z M 157.902344 148.0625 "
    fill-opacity="1" fill-rule="nonzero" />
</svg>