<svg xmlns="http://www.w3.org/2000/svg" xmlns:xlink="http://www.w3.org/1999/xlink" width="500" zoomAndPan="magnify"
  viewBox="0 0 375 374.999991" height="500" preserveAspectRatio="xMidYMid meet" version="1.0">
  <path fill="#3d7661"
    d="M 283.46875 91.464844 C 283.46875 53.554688 283.46875 32.492188 283.46875 28.269531 C 283.457031 13.015625 271.113281 0.628906 255.84375 0.59375 C 242.1875 0.59375 132.902344 0.59375 119.246094 0.59375 C 103.964844 0.617188 91.582031 13.003906 91.566406 28.269531 C 91.566406 32.492188 91.566406 53.554688 91.566406 91.464844 C 53.628906 91.464844 32.554688 91.464844 28.335938 91.464844 C 13.078125 91.503906 0.722656 103.886719 0.722656 119.144531 C 0.722656 132.800781 0.722656 242.070312 0.722656 255.730469 C 0.707031 270.996094 13.066406 283.378906 28.335938 283.40625 C 32.554688 283.40625 53.617188 283.40625 91.53125 283.40625 C 91.53125 321.355469 91.53125 342.441406 91.53125 346.652344 C 91.566406 361.921875 103.953125 374.277344 119.207031 374.277344 C 132.867188 374.277344 242.132812 374.277344 255.792969 374.277344 C 271.035156 374.253906 283.394531 361.90625 283.40625 346.652344 C 283.40625 342.441406 283.40625 321.355469 283.40625 283.40625 C 321.355469 283.40625 342.441406 283.40625 346.664062 283.40625 C 361.921875 283.394531 374.304688 271.046875 374.34375 255.78125 C 374.34375 242.121094 374.34375 132.839844 374.34375 119.179688 C 374.332031 103.886719 361.945312 91.492188 346.664062 91.464844 C 346.664062 91.464844 325.59375 91.464844 283.46875 91.464844 Z M 362.640625 255.730469 C 362.640625 264.535156 355.496094 271.691406 346.679688 271.691406 C 346.679688 271.691406 346.664062 271.691406 346.664062 271.691406 C 339.753906 271.691406 284.511719 271.691406 277.613281 271.691406 C 274.382812 271.691406 271.757812 274.316406 271.757812 277.550781 C 271.757812 284.460938 271.757812 339.738281 271.757812 346.652344 C 271.757812 355.445312 264.636719 362.5625 255.84375 362.578125 C 242.1875 362.578125 132.902344 362.578125 119.246094 362.578125 C 110.441406 362.578125 103.296875 355.457031 103.269531 346.652344 C 103.269531 339.738281 103.269531 284.460938 103.269531 277.550781 C 103.269531 274.316406 100.644531 271.691406 97.414062 271.691406 C 90.511719 271.691406 35.246094 271.691406 28.335938 271.691406 C 19.554688 271.691406 12.4375 264.574219 12.421875 255.78125 C 12.421875 242.121094 12.421875 132.839844 12.421875 119.179688 C 12.398438 110.363281 19.527344 103.207031 28.335938 103.179688 C 35.246094 103.179688 90.488281 103.179688 97.386719 103.179688 C 100.617188 103.179688 103.242188 100.554688 103.242188 97.324219 C 103.242188 90.421875 103.242188 35.183594 103.242188 28.269531 C 103.257812 19.453125 110.402344 12.308594 119.207031 12.292969 C 132.867188 12.292969 242.132812 12.292969 255.792969 12.292969 C 264.585938 12.320312 271.703125 19.476562 271.703125 28.269531 C 271.703125 35.183594 271.703125 90.421875 271.703125 97.324219 C 271.703125 100.554688 274.316406 103.179688 277.550781 103.179688 C 284.460938 103.179688 339.753906 103.179688 346.664062 103.179688 C 355.484375 103.191406 362.628906 110.335938 362.640625 119.144531 C 362.640625 146.460938 362.640625 228.410156 362.640625 255.730469 Z M 362.640625 255.730469 "
    fill-opacity="1" fill-rule="nonzero" />
  <path fill="#3d7661"
    d="M 296.910156 171.242188 C 289.882812 173.441406 233.675781 191.027344 226.660156 193.230469 C 226.777344 192.40625 226.816406 191.722656 226.828125 191.554688 C 227.175781 185.96875 225.167969 180.496094 221.292969 176.453125 C 217.109375 172 211.277344 169.476562 205.175781 169.464844 C 202.019531 169.464844 186.277344 169.464844 157.957031 169.464844 C 133.367188 160.492188 119.722656 155.496094 116.992188 154.503906 C 106.628906 150.707031 95.6875 148.765625 84.640625 148.777344 C 82.957031 148.777344 69.464844 148.777344 67.777344 148.777344 C 57.363281 148.789062 48.917969 157.222656 48.90625 167.636719 C 48.90625 173.765625 48.90625 222.851562 48.90625 228.976562 C 48.917969 239.390625 57.363281 247.835938 67.777344 247.835938 C 68.320312 247.835938 72.644531 247.835938 73.183594 247.835938 C 76.082031 247.835938 78.953125 248.339844 81.679688 249.316406 C 90.488281 252.457031 161.007812 277.574219 169.824219 280.714844 C 177.136719 283.277344 185.207031 282.558594 191.941406 278.71875 C 204.15625 271.757812 301.890625 216.054688 314.109375 209.089844 C 318.859375 206.847656 322.59375 202.910156 324.5625 198.054688 C 324.679688 197.8125 324.78125 197.578125 324.859375 197.335938 C 328.746094 186.535156 323.171875 174.640625 312.398438 170.699219 C 307.363281 168.859375 301.800781 169.050781 296.910156 171.242188 Z M 313.722656 193.652344 C 312.785156 195.933594 310.992188 197.746094 308.726562 198.726562 C 296.472656 205.703125 198.390625 261.558594 186.136719 268.539062 C 182.351562 270.6875 177.820312 271.097656 173.710938 269.671875 C 168.101562 267.675781 140.085938 257.699219 89.664062 239.753906 C 87.253906 238.890625 85.917969 238.402344 85.660156 238.3125 C 81.65625 236.855469 77.433594 236.121094 73.171875 236.121094 C 72.632812 236.121094 68.304688 236.121094 67.765625 236.121094 C 63.8125 236.121094 60.621094 232.929688 60.609375 228.976562 C 60.609375 222.851562 60.609375 173.777344 60.609375 167.636719 C 60.609375 163.683594 63.8125 160.492188 67.765625 160.480469 C 69.453125 160.480469 82.980469 160.480469 84.667969 160.480469 C 94.335938 160.480469 103.914062 162.179688 112.988281 165.488281 C 117.1875 167.019531 150.707031 179.273438 154.890625 180.804688 C 155.535156 181.050781 156.21875 181.167969 156.898438 181.167969 C 161.726562 181.167969 200.347656 181.167969 205.175781 181.167969 C 208.058594 181.167969 210.800781 182.363281 212.785156 184.460938 C 214.429688 186.148438 215.292969 188.453125 215.175781 190.820312 C 215.035156 193.011719 214.121094 195.09375 212.589844 196.664062 C 211.84375 197.386719 211.007812 197.980469 210.078125 198.429688 C 209.824219 198.507812 207.761719 199.148438 207.503906 199.226562 C 207.027344 199.304688 206.550781 199.34375 206.089844 199.34375 C 200.902344 199.34375 159.410156 199.34375 154.222656 199.34375 C 150.992188 199.34375 148.363281 201.957031 148.363281 205.1875 C 148.363281 208.417969 150.992188 211.046875 154.222656 211.046875 C 159.410156 211.046875 200.875 211.046875 206.0625 211.046875 C 208.855469 211.046875 211.625 210.480469 214.199219 209.382812 C 222.851562 206.679688 292.097656 185.003906 300.746094 182.285156 C 301.003906 182.210938 301.25 182.117188 301.480469 182.015625 C 303.65625 180.984375 306.152344 180.871094 308.40625 181.707031 C 310.683594 182.53125 312.527344 184.230469 313.542969 186.429688 C 314.546875 188.582031 314.664062 191.039062 313.890625 193.292969 C 313.839844 193.410156 313.789062 193.523438 313.722656 193.652344 Z M 313.722656 193.652344 "
    fill-opacity="1" fill-rule="nonzero" />
  <path fill="#d29e5b"
    d="M 248.558594 108.625 C 248.558594 81.835938 206 33.304688 201.160156 27.871094 C 198.855469 25.464844 195.019531 25.386719 192.597656 27.703125 C 192.535156 27.753906 192.480469 27.820312 192.417969 27.871094 C 187.5625 33.328125 145.019531 81.847656 145.019531 108.625 C 145.03125 137.21875 168.175781 160.414062 196.769531 160.480469 C 225.386719 160.425781 248.546875 137.230469 248.558594 108.625 Z M 236.855469 108.625 C 236.855469 130.765625 218.910156 148.710938 196.769531 148.710938 C 174.640625 148.710938 156.695312 130.765625 156.695312 108.625 C 156.695312 91.632812 182.542969 57.53125 196.769531 40.691406 C 211.007812 57.542969 236.855469 91.632812 236.855469 108.625 Z M 236.855469 108.625 "
    fill-opacity="1" fill-rule="nonzero" />
  <path fill="#d29e5b"
    d="M 202.625 127.960938 C 202.625 124.730469 200 122.101562 196.769531 122.101562 C 189.355469 122.078125 183.355469 116.066406 183.355469 108.652344 C 183.355469 105.417969 180.742188 102.792969 177.511719 102.792969 C 174.277344 102.792969 171.652344 105.417969 171.652344 108.652344 C 171.652344 122.527344 182.890625 133.78125 196.769531 133.804688 C 200 133.804688 202.625 131.191406 202.625 127.960938 Z M 202.625 127.960938 "
    fill-opacity="1" fill-rule="nonzero" />
</svg>