<svg xmlns="http://www.w3.org/2000/svg" xmlns:xlink="http://www.w3.org/1999/xlink" width="500" zoomAndPan="magnify"
  viewBox="0 0 375 374.999991" height="500" preserveAspectRatio="xMidYMid meet" version="1.0">
  <defs>
    <clipPath id="dad56c9c4c">
      <path d="M 160 140 L 374 140 L 374 348.75 L 160 348.75 Z M 160 140 " clip-rule="nonzero" />
    </clipPath>
  </defs>
  <path fill="#d29e5b"
    d="M 202.832031 44.417969 C 205.976562 49.921875 208.332031 55.816406 209.511719 62.5 C 259.828125 69.183594 300.707031 106.917969 311.714844 155.660156 C 317.21875 152.910156 322.328125 150.15625 327.4375 147.011719 C 312.5 90.800781 262.972656 48.347656 202.832031 44.417969 Z M 220.910156 301.492188 C 212.265625 303.460938 202.832031 304.636719 193.394531 304.636719 C 126.179688 304.636719 71.933594 250 71.933594 182.78125 C 71.933594 179.246094 71.933594 175.707031 72.328125 172.167969 L 57.78125 153.695312 C 55.816406 163.128906 54.636719 172.5625 54.636719 182.390625 C 54.636719 259.039062 117.136719 321.539062 193.394531 321.539062 C 205.582031 321.539062 217.765625 319.96875 228.773438 316.824219 C 228.773438 316.039062 229.167969 314.859375 229.167969 314.074219 C 227.203125 310.535156 224.449219 306.210938 220.910156 301.492188 Z M 220.910156 301.492188 "
    fill-opacity="1" fill-rule="nonzero" />
  <g clip-path="url(#dad56c9c4c)">
    <path fill="#3d7661"
      d="M 373.035156 148.191406 C 372.640625 141.507812 364.78125 138.363281 360.0625 143.082031 C 321.539062 182.390625 261.792969 181.210938 257.863281 222.484375 C 257.074219 231.523438 260.21875 240.566406 266.117188 248.035156 C 294.417969 219.734375 324.683594 209.90625 326.257812 209.511719 C 326.652344 209.511719 327.042969 209.511719 327.4375 209.121094 C 319.574219 213.445312 273.976562 241.746094 253.539062 293.238281 C 243.316406 277.121094 226.808594 257.074219 213.445312 246.070312 C 204.402344 237.816406 196.539062 232.703125 194.183594 231.132812 C 194.574219 231.132812 194.574219 231.132812 194.96875 231.132812 C 196.148438 231.523438 219.339844 237.027344 239.386719 258.253906 C 243.316406 253.144531 244.496094 248.820312 244.105469 242.53125 C 241.746094 213.050781 198.507812 212.65625 170.992188 183.570312 C 167.847656 180.03125 161.949219 181.996094 161.554688 187.105469 C 159.589844 214.230469 161.949219 260.21875 181.210938 273.585938 C 191.824219 281.054688 208.332031 279.875 221.304688 274.371094 C 232.3125 287.34375 243.316406 302.28125 248.035156 312.105469 C 245.675781 321.148438 244.496094 330.976562 244.496094 341.589844 C 244.496094 345.519531 247.640625 348.664062 251.574219 348.664062 C 255.503906 348.664062 258.648438 345.519531 258.648438 341.589844 C 259.039062 310.140625 271.621094 284.589844 286.554688 265.332031 C 304.636719 275.15625 327.832031 277.910156 343.554688 267.296875 C 369.890625 249.214844 375 185.535156 373.035156 148.191406 Z M 373.035156 148.191406 "
      fill-opacity="1" fill-rule="nonzero" />
  </g>
  <path fill="#3d7661"
    d="M 193.003906 67.21875 C 191.039062 55.425781 184.355469 44.8125 174.136719 38.128906 C 156.054688 26.335938 130.894531 31.054688 116.746094 48.742188 L 112.027344 54.636719 C 111.636719 55.03125 111.242188 55.425781 110.457031 55.425781 C 109.667969 55.425781 109.277344 55.03125 108.882812 54.636719 L 102.988281 47.5625 C 95.519531 38.128906 84.511719 32.625 72.71875 31.839844 C 60.535156 31.054688 49.136719 35.378906 40.488281 43.632812 C 29.089844 53.851562 25.550781 69.96875 29.480469 84.90625 L 6.289062 84.90625 C 2.75 84.90625 0 87.65625 0 91.195312 C 0 94.734375 2.75 97.484375 6.289062 97.484375 L 61.714844 97.484375 L 73.898438 77.042969 C 75.078125 74.683594 77.4375 73.507812 80.1875 73.507812 C 82.546875 73.507812 84.90625 74.683594 86.476562 77.042969 L 108.882812 114.78125 L 117.136719 101.023438 C 118.316406 99.054688 120.675781 97.484375 123.425781 97.484375 L 141.507812 97.484375 C 145.441406 97.484375 148.585938 100.628906 148.585938 104.558594 C 148.585938 108.492188 145.441406 111.636719 141.507812 111.636719 L 127.359375 111.636719 L 115.171875 132.074219 C 113.992188 134.039062 111.636719 135.613281 108.882812 135.613281 C 106.523438 135.613281 104.167969 134.433594 102.59375 132.074219 L 80.1875 94.339844 L 71.933594 108.097656 C 70.753906 110.0625 68.394531 111.636719 65.644531 111.636719 L 45.992188 111.636719 L 97.484375 176.101562 C 100.628906 180.03125 105.347656 182.390625 110.0625 182.390625 C 115.171875 182.390625 119.890625 180.03125 122.640625 176.101562 L 183.570312 99.84375 C 191.824219 90.800781 194.96875 79.007812 193.003906 67.21875 Z M 193.003906 67.21875 "
    fill-opacity="1" fill-rule="nonzero" />
</svg>