<?xml version="1.0" encoding="UTF-8"?><svg id="Calque_1" xmlns="http://www.w3.org/2000/svg" xmlns:xlink="http://www.w3.org/1999/xlink" viewBox="0 0 47 47"><defs><style>.cls-1{clip-path:url(#clippath-2);}.cls-2{fill:#468371;}.cls-3{clip-path:url(#clippath-1);}.cls-4{clip-path:url(#clippath);}.cls-5{fill:none;}.cls-6{clip-path:url(#clippath-3);}.cls-7{fill:#f1b668;}</style><clipPath id="clippath"><rect class="cls-5" x="44.98" y="16.93" width="2.02" height="1.92"/></clipPath><clipPath id="clippath-1"><rect class="cls-5" x="30.91" y="45.12" width="1.98" height="1.88"/></clipPath><clipPath id="clippath-2"><rect class="cls-5" x="12.14" y=".78" width="13.96" height="13.24"/></clipPath><clipPath id="clippath-3"><rect class="cls-5" x="15.63" y=".78" width="2.44" height="2.09"/></clipPath></defs><path class="cls-7" d="m16.87,43.76c-1.7-.49-3.29-1.24-4.73-2.24-1.49-1.03-2.87-2.34-4.09-3.91-2.08-2.67-3.75-6.09-4.97-10.19-1.17-3.94-1.69-7.74-1.92-10.24l-.2-2.2,2.27.57c1.59.4,3.27.6,4.99.6,3.83,0,6.97-.99,8.51-1.58l.62-.24.62.24c1.54.59,4.68,1.58,8.51,1.58,1.72,0,3.39-.2,4.99-.6l2.27-.57-.2,2.2c-.23,2.52-.75,6.34-1.93,10.29-1.22,4.08-2.89,7.5-4.97,10.16-1.22,1.56-2.59,2.87-4.08,3.9-1.44.99-3.03,1.74-4.72,2.23l-.48.14-.48-.14"/><path class="cls-7" d="m17.36,42.28c-1.52-.44-2.95-1.11-4.24-2.01-1.36-.93-2.61-2.14-3.73-3.58-1.96-2.51-3.54-5.77-4.71-9.69-1.13-3.79-1.63-7.47-1.86-9.96,1.73.43,3.55.65,5.41.65,4.11,0,7.5-1.07,9.13-1.69,1.63.63,5.02,1.69,9.13,1.69,1.86,0,3.67-.22,5.41-.65-.23,2.51-.74,6.2-1.88,10-1.17,3.9-2.75,7.15-4.71,9.66-1.12,1.43-2.37,2.63-3.73,3.56-1.29.89-2.71,1.56-4.23,2"/><path class="cls-7" d="m38.33,20.76c.03-.34.36-.59.72-.56.36.03.63.34.59.68-.03.34-.36.59-.72.56-.36-.03-.63-.34-.59-.68Zm3.54-.93c.25.02.44.24.42.48-.02.24-.25.42-.5.39-.25-.02-.44-.24-.42-.48.02-.24.25-.42.5-.39Zm-2.33-.84c.04-.34.36-.6.72-.56.36.03.63.34.6.68-.04.34-.36.6-.72.56-.36-.03-.63-.34-.6-.68Zm-1.54-.89c.02-.24.25-.42.51-.39s.44.24.42.48c-.02.24-.25.42-.5.39-.25-.02-.44-.24-.42-.48Zm2.57-.68c.02-.24.25-.42.51-.39.25.02.44.24.42.48s-.25.42-.51.39-.44-.24-.42-.48Zm.95,7.97c.14-.05.23-.19.21-.34,0-.04-.02-.08-.04-.1-.27-.35-.36-.78-.36-1.21,0-1.7.45-2.2,1.15-1.99l.27.25c.22.21.42.46.51.75.02.06.07.12.14.17.09.06.2.08.3.04.26-.11.28-.4.09-.54-.01,0-.02-.02-.04-.02-.36-.18-.69-.39-.92-.7l-.13-.19c-.16-.68.23-1.15,1.44-1.35.38-.06.78.05,1.03.32.14.15.34.25.57.26.41.01.77-.28.82-.67.05-.42-.27-.79-.71-.83-.2-.02-.39.03-.54.14-.31.21-.71.27-1.07.15-1.23-.44-1.53-1.03-1.18-1.69l.62-.43c.25-.17.55-.27.86-.33.11-.02.21-.08.29-.15.1-.1.12-.25.07-.38-.11-.25-.42-.31-.62-.16-.04.03-.07.06-.09.11-.19.33-.46.62-.81.81l-.64.33c-.49-.04-.72-.57-.61-1.67.04-.44.21-.88.51-1.22.08-.09.14-.2.17-.32.07-.28-.05-.58-.29-.76-.42-.3-1-.15-1.21.28-.1.2-.1.42-.01.61.14.32.15.69-.03.99-.65,1.11-.75,1.1-1.32.99-.25-.05-.48-.2-.61-.41-.16-.25-.39-.61-.56-.89-.13-.21-.17-.45-.16-.69,0-.05-.01-.11-.05-.15-.06-.08-.16-.12-.25-.11-.19.02-.3.2-.23.35.01.03.03.05.05.07.25.28.48.57.62.9l.19.45c.05.13.08.27.07.41-.07.72-.7.88-2.19.1-.42-.22-.76-.56-.91-.99-.02-.07-.07-.14-.12-.18-.2-.17-.5-.14-.67.06-.15.19-.11.46.09.61.07.05.14.09.22.11.31.08.6.21.83.42,1.48,1.43,1.35,2.09.29,2.42h0s-.76,0-.76,0c-.47,0-.92-.14-1.33-.36-.08-.04-.17-.06-.27-.05-.17.02-.32.13-.38.28-.1.27.1.54.39.57.07,0,.15,0,.21-.03.46-.17.97-.19,1.46-.13l.66.09h0c.94.47,1.52,1.52-.32,2.25-.08.03-.45.02-.71-.04-.4-.1-.83.09-.96.46-.14.41.1.87.59.97.29.06.6-.04.79-.26.11-.13.35-.8.55-.86,1.28-.4,1.9-.3,2,.19.04.17,0,.35-.09.5l-.26.45c-.2.36-.63.87-.99,1.09-.07.04-.12.11-.15.19-.04.11,0,.24.08.32.17.17.45.13.57-.06.03-.04.04-.09.05-.13.05-.4.26-.76.51-1.09l.52-.67c.07-.1.17-.18.28-.23.85-.41,1.55-.02,2.09,1.68.09.29.13.61.04.9-.01.03-.01.07,0,.12.04.18.24.3.44.23"/><g class="cls-4"><path class="cls-7" d="m47,17.89c0,.51-.44.93-.98.93s-.98-.42-.98-.93.44-.93.98-.93.98.41.98.93"/></g><path class="cls-7" d="m39.97,25.09c0,.51-.44.93-.98.93s-.98-.41-.98-.93.44-.93.98-.93.98.41.98.93"/><path class="cls-7" d="m40.52,12.57c0,.51-.44.93-.98.93s-.98-.41-.98-.93.44-.93.98-.93.98.41.98.93"/><path class="cls-7" d="m37.67,13.08c0,.37-.32.66-.7.66s-.7-.3-.7-.66.31-.66.7-.66.7.3.7.66"/><path class="cls-7" d="m37.48,14.33c0,.27-.23.49-.52.49s-.52-.22-.52-.49.23-.49.52-.49.52.22.52.49"/><path class="cls-7" d="m45.03,18.14c0,.27-.23.49-.52.49s-.52-.22-.52-.49.23-.49.52-.49.52.22.52.49"/><path class="cls-2" d="m31.84,39.29c.29.15.39.5.23.77-.16.27-.53.37-.82.22-.29-.15-.39-.5-.23-.77s.53-.37.82-.22Zm-.49,3.11c-.11.19-.37.26-.57.15-.2-.11-.27-.35-.16-.54.11-.19.37-.26.57-.15.2.11.27.35.16.54Zm1.6-1.52c.29.15.39.5.23.77-.16.27-.53.37-.82.22-.29-.15-.39-.5-.23-.77.16-.27.53-.37.82-.22Zm1.35-.88c.2.11.27.35.16.54-.11.19-.37.26-.57.15-.2-.11-.27-.35-.16-.54s.37-.26.57-.15Zm-.34,2.26c.2.11.27.35.16.54s-.37.26-.57.15c-.2-.11-.27-.35-.16-.54.11-.19.37-.26.57-.15Zm-7.36-2.19c0,.13.09.25.22.29.04.01.07.01.11,0,.4-.08.82,0,1.2.16,1.49.63,1.77,1.17,1.32,1.63l-.32.12c-.27.1-.56.16-.85.12-.06,0-.13,0-.2.05-.09.05-.14.13-.14.22,0,.24.25.36.44.27.01,0,.02-.01.03-.02.28-.21.59-.4.95-.46l.21-.03c.65.13.93.61.66,1.62-.08.32-.33.59-.66.69-.18.05-.35.17-.44.35-.16.31-.03.71.28.88.35.19.79.08.99-.25.09-.15.11-.32.08-.47-.07-.32.02-.66.27-.89.84-.8,1.46-.81,1.92-.3l.15.64c.06.26.04.53-.02.79-.02.09,0,.19.03.28.05.12.18.19.31.19.26,0,.43-.21.37-.43-.01-.04-.03-.08-.06-.11-.22-.27-.38-.59-.41-.93l-.05-.62c.21-.37.77-.35,1.69.14.37.2.7.49.88.85.05.09.12.18.22.25.22.16.53.18.77.05.42-.22.49-.72.2-1.04-.14-.15-.33-.23-.53-.23-.34,0-.66-.14-.86-.39-.73-.92-.69-.99-.38-1.4.14-.18.35-.3.58-.33.28-.03.67-.08.99-.11.23-.03.45.03.66.13.04.02.1.03.15.02.09-.01.16-.08.19-.15.05-.16-.06-.3-.22-.31-.03,0-.06,0-.08,0-.34.09-.67.17-1.02.15l-.47-.02c-.14,0-.27-.04-.39-.1-.6-.32-.51-.87.72-1.75.34-.25.78-.39,1.21-.34.07,0,.14,0,.21-.03.22-.09.31-.34.19-.54-.11-.19-.37-.25-.57-.15-.07.03-.13.08-.17.13-.18.21-.4.4-.68.49-1.8.63-2.33.28-2.23-.67h0s.28-.6.28-.6c.17-.37.46-.66.81-.9.07-.05.12-.11.15-.19.05-.14,0-.3-.11-.4-.2-.18-.51-.12-.64.09-.03.06-.05.12-.05.18-.02.42-.19.83-.43,1.19l-.32.49h0c-.76.56-1.9.62-1.86-1.08,0-.07.15-.36.3-.54.24-.27.23-.68-.05-.92-.31-.26-.8-.24-1.07.1-.16.2-.19.49-.06.71.07.13.57.57.55.75-.12,1.15-.44,1.59-.91,1.5-.16-.03-.31-.13-.41-.25l-.3-.37c-.24-.29-.53-.81-.6-1.17-.01-.07-.05-.13-.11-.19-.09-.07-.21-.09-.31-.05-.21.07-.28.31-.16.47.03.04.06.07.1.09.33.19.58.48.77.8l.4.66c.06.09.09.2.1.31.05.81-.55,1.22-2.25,1.01-.29-.04-.58-.12-.81-.3-.03-.02-.06-.04-.1-.05-.18-.04-.35.08-.36.26"/><path class="cls-2" d="m34.66,35.2c0,.51-.44.93-.98.93s-.98-.41-.98-.93.44-.93.98-.93.98.41.98.93"/><g class="cls-3"><path class="cls-2" d="m32.88,46.07c0,.51-.44.93-.98.93s-.98-.41-.98-.93.44-.93.98-.93.98.41.98.93"/></g><path class="cls-2" d="m37.48,43.05c0,.27-.23.49-.52.49s-.52-.22-.52-.49.23-.49.52-.49.52.22.52.49"/><path class="cls-2" d="m38.98,40.86c0,.27-.23.49-.52.49s-.52-.22-.52-.49.23-.49.52-.49.52.22.52.49"/><path class="cls-2" d="m30.21,43.9c0,.27-.23.49-.52.49s-.52-.22-.52-.49.23-.49.52-.49.52.22.52.49"/><path class="cls-2" d="m32.57,34.77c0,.27-.23.49-.52.49s-.52-.22-.52-.49.23-.49.52-.49.52.22.52.49"/><g class="cls-1"><path class="cls-2" d="m20.92,9.1c-.4,0-.72-.3-.72-.68s.32-.68.72-.68.72.3.72.68-.32.68-.72.68Zm-1.43-3.52c0-.26.22-.47.5-.47s.5.21.5.47-.22.47-.5.47-.5-.21-.5-.47Zm-.72,2.46c-.4,0-.72-.3-.72-.68s.32-.68.72-.68.72.3.72.68-.32.68-.72.68Zm-.86,1.66c-.28,0-.5-.21-.5-.48s.22-.47.5-.47.5.21.5.47-.22.48-.5.48Zm-1.05-2.54c-.28,0-.5-.21-.5-.48s.22-.48.5-.48.5.21.5.48-.23.48-.5.48Zm9.04-1.79c-.07-.14-.25-.22-.41-.18-.05.01-.08.03-.11.06-.37.31-.86.45-1.35.49-1.95.17-2.57-.24-2.4-.97l.26-.3c.22-.25.48-.48.81-.6.07-.03.13-.08.18-.16.06-.1.07-.22.01-.31-.15-.25-.49-.24-.63-.04,0,.01-.02.03-.02.04-.16.38-.37.75-.71,1.01l-.2.15c-.76.23-1.34-.12-1.7-1.33-.11-.38-.02-.8.26-1.08.16-.16.25-.37.24-.61-.03-.42-.4-.76-.85-.76-.48,0-.88.36-.88.81,0,.21.08.39.22.54.27.29.38.7.28,1.07-.37,1.3-1.02,1.66-1.82,1.38l-.55-.59c-.23-.24-.37-.53-.47-.84-.03-.11-.11-.2-.2-.28-.13-.09-.3-.1-.44-.03-.27.13-.31.46-.12.65.04.03.08.06.13.08.4.16.76.4,1.01.75l.44.62c0,.51-.58.79-1.85.8-.51,0-1.03-.12-1.45-.4-.11-.07-.24-.12-.39-.14-.33-.04-.66.11-.84.38-.3.46-.06,1.03.44,1.2.24.08.49.06.7-.05.36-.18.77-.22,1.14-.07,1.33.55,1.33.65,1.27,1.24-.03.27-.18.51-.4.67-.28.19-.66.46-.96.67-.22.15-.49.22-.77.24-.06,0-.12.03-.17.07-.08.06-.12.17-.1.27.04.19.26.28.43.2.03-.01.06-.03.08-.05.29-.28.6-.55.97-.73l.5-.24c.14-.07.31-.11.47-.11.83,0,1.08.63.34,2.22-.21.45-.57.84-1.04,1.03-.08.03-.15.08-.2.14-.17.22-.11.53.13.67.23.14.54.06.69-.15.05-.07.08-.15.1-.23.06-.32.18-.64.4-.89,1.48-1.65,2.25-1.59,2.74-.54h-.01l.09.78c.05.48-.07.95-.28,1.39-.04.08-.05.18-.03.29.04.17.18.32.37.36.32.07.61-.16.61-.45,0-.08-.02-.15-.05-.21-.25-.45-.32-.97-.3-1.48l.03-.68h0c.44-1,1.59-1.7,2.61.09.04.08.07.46.02.73-.08.42.19.84.63.93.48.1.98-.2,1.05-.7.04-.3-.11-.61-.38-.77-.16-.1-.95-.27-1.05-.48-.6-1.27-.54-1.9.01-2.06.19-.06.4-.03.58.04l.54.22c.43.17,1.06.55,1.36.9.06.06.13.11.24.13.13.02.27-.02.36-.12.18-.19.1-.48-.12-.58-.05-.02-.1-.03-.16-.04-.46-.01-.9-.18-1.3-.4l-.82-.46c-.12-.07-.22-.16-.3-.27-.55-.82-.18-1.58,1.71-2.3.33-.12.69-.2,1.03-.13.04,0,.09,0,.14-.01.21-.06.32-.28.22-.47"/></g><path class="cls-2" d="m28.47,8.43c0,.6-.52,1.09-1.16,1.09s-1.16-.49-1.16-1.09.52-1.09,1.16-1.09,1.16.49,1.16,1.09"/><path class="cls-2" d="m14.26,3.86c0,.41-.35.74-.78.74s-.78-.33-.78-.74.35-.74.78-.74.78.33.78.74"/><path class="cls-2" d="m25.37,3.34c0,.41-.35.74-.78.74s-.78-.33-.78-.74.35-.74.78-.74.78.33.78.74"/><g class="cls-6"><path class="cls-2" d="m18.07,1.84c0,.56-.48,1.02-1.08,1.02s-1.08-.45-1.08-1.02.48-1.02,1.08-1.02,1.08.45,1.08,1.02"/></g></svg>