<svg xmlns="http://www.w3.org/2000/svg" xmlns:xlink="http://www.w3.org/1999/xlink" width="500" zoomAndPan="magnify" viewBox="0 0 375 374.999991" height="500" preserveAspectRatio="xMidYMid meet" version="1.0"><defs><clipPath id="67f17c7282"><path d="M 66 220 L 266 220 L 266 282.351562 L 66 282.351562 Z M 66 220 " clip-rule="nonzero"/></clipPath><clipPath id="c97837644c"><path d="M 54.671875 148 L 130 148 L 130 273 L 54.671875 273 Z M 54.671875 148 " clip-rule="nonzero"/></clipPath><clipPath id="559d1f57ed"><path d="M 66 139.101562 L 266 139.101562 L 266 223 L 66 223 Z M 66 139.101562 " clip-rule="nonzero"/></clipPath><clipPath id="bca2e34091"><path d="M 202 148 L 277.421875 148 L 277.421875 273 L 202 273 Z M 202 148 " clip-rule="nonzero"/></clipPath><clipPath id="049cdb433b"><path d="M 228.082031 92.976562 L 320.332031 92.976562 L 320.332031 185.226562 L 228.082031 185.226562 Z M 228.082031 92.976562 " clip-rule="nonzero"/></clipPath></defs><g clip-path="url(#67f17c7282)"><path fill="#3d7661" d="M 265.128906 279.753906 L 195.222656 221.535156 C 193.179688 219.835938 190.21875 219.835938 188.175781 221.535156 L 169.34375 237.21875 C 167.445312 238.796875 164.699219 238.796875 162.804688 237.21875 L 143.96875 221.535156 C 141.925781 219.835938 138.964844 219.835938 136.921875 221.535156 L 67.011719 279.753906 C 66.050781 280.554688 66.617188 282.121094 67.867188 282.121094 L 264.277344 282.121094 C 265.527344 282.121094 266.089844 280.554688 265.128906 279.753906 " fill-opacity="1" fill-rule="nonzero"/></g><g clip-path="url(#c97837644c)"><path fill="#3d7661" d="M 128.1875 208.394531 L 56.894531 149.019531 C 56.023438 148.296875 54.703125 148.914062 54.703125 150.050781 L 54.703125 271.386719 C 54.703125 272.519531 56.023438 273.140625 56.894531 272.417969 L 128.1875 213.046875 C 129.640625 211.835938 129.640625 209.601562 128.1875 208.394531 " fill-opacity="1" fill-rule="nonzero"/></g><g clip-path="url(#559d1f57ed)"><path fill="#3d7661" d="M 67.015625 141.6875 L 163.398438 221.949219 C 164.949219 223.242188 167.199219 223.242188 168.746094 221.949219 L 265.128906 141.6875 C 266.089844 140.886719 265.527344 139.316406 264.277344 139.316406 L 67.867188 139.316406 C 66.617188 139.316406 66.050781 140.886719 67.015625 141.6875 " fill-opacity="1" fill-rule="nonzero"/></g><g clip-path="url(#bca2e34091)"><path fill="#3d7661" d="M 275.253906 149.019531 L 203.957031 208.394531 C 202.503906 209.601562 202.503906 211.835938 203.957031 213.046875 L 275.253906 272.417969 C 276.121094 273.140625 277.441406 272.523438 277.441406 271.386719 L 277.441406 150.050781 C 277.441406 148.914062 276.121094 148.296875 275.253906 149.019531 " fill-opacity="1" fill-rule="nonzero"/></g><g clip-path="url(#049cdb433b)"><path fill="#d29e5b" d="M 274.207031 92.976562 C 248.738281 92.976562 228.082031 113.632812 228.082031 139.101562 C 228.082031 164.574219 248.738281 185.226562 274.207031 185.226562 C 299.679688 185.226562 320.332031 164.574219 320.332031 139.101562 C 320.332031 113.632812 299.679688 92.976562 274.207031 92.976562 Z M 274.207031 92.976562 " fill-opacity="1" fill-rule="nonzero"/></g><path fill="#ffffff" d="M 287.539062 153.511719 C 286.792969 152.933594 285.714844 152.636719 284.304688 152.636719 L 270.082031 152.636719 C 270.527344 151.949219 270.972656 151.355469 271.417969 150.871094 C 272.441406 149.644531 274.320312 147.898438 277.035156 145.667969 C 279.765625 143.433594 281.71875 141.800781 282.871094 140.757812 C 284.023438 139.71875 285.175781 138.265625 286.292969 136.425781 C 287.40625 134.585938 287.964844 132.539062 287.964844 130.292969 C 287.964844 128.859375 287.707031 127.464844 287.167969 126.144531 C 286.628906 124.808594 285.882812 123.636719 284.917969 122.613281 C 283.949219 121.589844 282.835938 120.789062 281.570312 120.214844 C 279.617188 119.339844 277.238281 118.914062 274.46875 118.914062 C 272.164062 118.914062 270.15625 119.246094 268.445312 119.9375 C 266.734375 120.625 265.320312 121.515625 264.1875 122.613281 C 263.070312 123.726562 262.234375 124.957031 261.675781 126.3125 C 261.121094 127.667969 260.839844 128.988281 260.839844 130.234375 C 260.839844 131.277344 261.136719 132.09375 261.734375 132.6875 C 262.328125 133.285156 263.089844 133.582031 264 133.582031 C 265.042969 133.582031 265.824219 133.246094 266.363281 132.597656 C 266.902344 131.945312 267.386719 131.015625 267.8125 129.789062 C 268.242188 128.582031 268.539062 127.835938 268.722656 127.558594 C 270.082031 125.476562 271.957031 124.433594 274.339844 124.433594 C 275.472656 124.433594 276.496094 124.695312 277.460938 125.195312 C 278.410156 125.699219 279.171875 126.425781 279.730469 127.335938 C 280.289062 128.246094 280.566406 129.289062 280.566406 130.457031 C 280.566406 131.535156 280.304688 132.613281 279.785156 133.75 C 279.265625 134.882812 278.519531 135.960938 277.515625 137.019531 C 276.53125 138.082031 275.285156 139.140625 273.800781 140.199219 C 272.960938 140.757812 271.566406 141.949219 269.632812 143.734375 C 267.683594 145.515625 265.507812 147.675781 263.089844 150.164062 C 262.515625 150.777344 261.976562 151.632812 261.492188 152.710938 C 261.007812 153.789062 260.75 154.664062 260.75 155.316406 C 260.75 156.335938 261.136719 157.210938 261.902344 157.972656 C 262.664062 158.734375 263.722656 159.109375 265.078125 159.109375 L 285.121094 159.109375 C 286.3125 159.109375 287.222656 158.792969 287.796875 158.179688 C 288.394531 157.566406 288.691406 156.800781 288.691406 155.910156 C 288.652344 154.886719 288.28125 154.089844 287.539062 153.511719 " fill-opacity="1" fill-rule="nonzero"/></svg>