<svg xmlns="http://www.w3.org/2000/svg" xmlns:xlink="http://www.w3.org/1999/xlink" width="500" zoomAndPan="magnify"
  viewBox="0 0 375 374.999991" height="500" preserveAspectRatio="xMidYMid meet" version="1.0">
  <defs>
    <clipPath id="5bf663d149">
      <path d="M 3.046875 28 L 366 28 L 366 373 L 3.046875 373 Z M 3.046875 28 " clip-rule="nonzero" />
    </clipPath>
    <clipPath id="615dd00b69">
      <path d="M 261 4 L 372.046875 4 L 372.046875 103 L 261 103 Z M 261 4 " clip-rule="nonzero" />
    </clipPath>
  </defs>
  <g clip-path="url(#5bf663d149)">
    <path fill="#d29e5b"
      d="M 3.046875 201.027344 C 3.0625 203.800781 3.148438 206.574219 3.296875 209.34375 C 3.449219 212.113281 3.667969 214.878906 3.953125 217.640625 C 4.238281 220.398438 4.589844 223.148438 5.007812 225.894531 C 5.421875 228.636719 5.90625 231.367188 6.457031 234.085938 C 7.007812 236.804688 7.621094 239.511719 8.304688 242.199219 C 8.984375 244.890625 9.730469 247.5625 10.539062 250.214844 C 11.347656 252.871094 12.222656 255.503906 13.160156 258.113281 C 14.097656 260.726562 15.097656 263.3125 16.160156 265.875 C 17.222656 268.4375 18.34375 270.976562 19.527344 273.484375 C 20.714844 275.992188 21.960938 278.472656 23.265625 280.917969 C 24.570312 283.367188 25.933594 285.785156 27.355469 288.167969 C 28.773438 290.550781 30.253906 292.898438 31.789062 295.207031 C 33.324219 297.519531 34.914062 299.792969 36.558594 302.027344 C 38.203125 304.261719 39.902344 306.453125 41.652344 308.609375 C 43.40625 310.761719 45.207031 312.867188 47.058594 314.933594 C 48.914062 317 50.816406 319.019531 52.765625 320.992188 C 54.714844 322.964844 56.714844 324.890625 58.757812 326.765625 C 60.800781 328.644531 62.890625 330.46875 65.019531 332.246094 C 67.152344 334.023438 69.328125 335.746094 71.542969 337.417969 C 73.757812 339.085938 76.011719 340.703125 78.308594 342.265625 C 80.601562 343.828125 82.929688 345.332031 85.296875 346.78125 C 87.664062 348.230469 90.0625 349.621094 92.496094 350.957031 C 94.929688 352.289062 97.394531 353.5625 99.890625 354.777344 C 102.386719 355.992188 104.910156 357.144531 107.460938 358.234375 C 110.011719 359.328125 112.589844 360.359375 115.1875 361.324219 C 117.789062 362.292969 120.414062 363.195312 123.058594 364.039062 C 125.703125 364.878906 128.367188 365.65625 131.046875 366.367188 C 133.730469 367.078125 136.429688 367.726562 139.140625 368.308594 C 141.855469 368.890625 144.582031 369.40625 147.320312 369.855469 C 150.058594 370.304688 152.804688 370.6875 155.5625 371.003906 C 158.320312 371.324219 161.082031 371.574219 163.851562 371.757812 C 166.621094 371.941406 169.394531 372.058594 172.167969 372.105469 C 174.941406 372.15625 177.71875 372.136719 180.492188 372.054688 C 183.265625 371.96875 186.035156 371.816406 188.800781 371.597656 C 191.566406 371.382812 194.328125 371.097656 197.082031 370.742188 C 199.832031 370.390625 202.574219 369.972656 205.308594 369.488281 C 208.039062 369.003906 210.761719 368.457031 213.464844 367.839844 C 216.171875 367.222656 218.863281 366.542969 221.535156 365.796875 C 224.207031 365.050781 226.859375 364.242188 229.496094 363.367188 C 232.128906 362.492188 234.738281 361.554688 237.328125 360.554688 C 239.917969 359.554688 242.480469 358.492188 245.015625 357.367188 C 247.554688 356.246094 250.0625 355.058594 252.542969 353.8125 C 255.023438 352.570312 257.472656 351.265625 259.886719 349.898438 C 262.304688 348.535156 264.6875 347.113281 267.035156 345.636719 C 269.382812 344.15625 271.695312 342.621094 273.96875 341.03125 C 276.242188 339.441406 278.476562 337.796875 280.667969 336.097656 C 282.863281 334.398438 285.015625 332.648438 287.125 330.847656 C 289.234375 329.042969 291.300781 327.191406 293.320312 325.289062 C 295.339844 323.386719 297.3125 321.4375 299.238281 319.4375 C 301.164062 317.441406 303.039062 315.398438 304.867188 313.308594 C 306.695312 311.21875 308.46875 309.089844 310.195312 306.914062 C 311.917969 304.738281 313.589844 302.523438 315.203125 300.269531 C 316.820312 298.015625 318.382812 295.722656 319.886719 293.390625 C 321.394531 291.0625 322.84375 288.695312 324.234375 286.296875 C 325.625 283.894531 326.957031 281.460938 328.234375 278.996094 C 329.507812 276.53125 330.71875 274.039062 331.871094 271.515625 C 333.027344 268.992188 334.117188 266.441406 335.148438 263.863281 C 336.175781 261.289062 337.144531 258.6875 338.046875 256.066406 C 338.953125 253.441406 339.792969 250.796875 340.570312 248.136719 C 341.34375 245.472656 342.058594 242.789062 342.703125 240.09375 C 343.351562 237.394531 343.929688 234.683594 344.445312 231.957031 C 344.960938 229.230469 345.410156 226.492188 345.792969 223.746094 C 346.179688 220.996094 346.496094 218.242188 346.746094 215.476562 C 346.996094 212.714844 347.175781 209.945312 347.292969 207.175781 L 359.746094 207.175781 C 359.996094 207.175781 360.242188 207.160156 360.488281 207.128906 C 360.734375 207.101562 360.976562 207.058594 361.214844 206.996094 C 361.457031 206.9375 361.691406 206.867188 361.925781 206.777344 C 362.15625 206.691406 362.382812 206.589844 362.601562 206.476562 C 362.820312 206.359375 363.03125 206.234375 363.234375 206.09375 C 363.441406 205.953125 363.636719 205.800781 363.820312 205.636719 C 364.007812 205.472656 364.179688 205.296875 364.347656 205.113281 C 364.511719 204.929688 364.664062 204.734375 364.804688 204.53125 C 364.945312 204.328125 365.074219 204.117188 365.1875 203.898438 C 365.304688 203.679688 365.40625 203.453125 365.496094 203.222656 C 365.582031 202.992188 365.65625 202.753906 365.71875 202.515625 C 365.777344 202.273438 365.824219 202.03125 365.855469 201.785156 C 365.882812 201.539062 365.898438 201.292969 365.902344 201.046875 C 365.902344 200.800781 365.886719 200.550781 365.859375 200.304688 C 365.828125 200.0625 365.785156 199.816406 365.726562 199.578125 C 365.667969 199.335938 365.597656 199.101562 365.507812 198.867188 L 347.058594 149.679688 C 346.839844 149.09375 346.539062 148.550781 346.152344 148.058594 C 345.769531 147.5625 345.320312 147.136719 344.804688 146.777344 C 344.289062 146.421875 343.734375 146.148438 343.136719 145.960938 C 342.535156 145.773438 341.921875 145.679688 341.296875 145.679688 C 340.667969 145.679688 340.058594 145.773438 339.457031 145.960938 C 338.859375 146.148438 338.304688 146.421875 337.789062 146.777344 C 337.273438 147.136719 336.824219 147.5625 336.441406 148.058594 C 336.054688 148.550781 335.753906 149.09375 335.535156 149.679688 L 317.085938 198.867188 C 316.996094 199.101562 316.925781 199.335938 316.867188 199.578125 C 316.808594 199.816406 316.765625 200.0625 316.734375 200.304688 C 316.707031 200.550781 316.691406 200.800781 316.691406 201.046875 C 316.695312 201.292969 316.710938 201.539062 316.738281 201.785156 C 316.769531 202.03125 316.816406 202.273438 316.875 202.515625 C 316.9375 202.753906 317.011719 202.992188 317.097656 203.222656 C 317.1875 203.453125 317.289062 203.679688 317.40625 203.898438 C 317.519531 204.117188 317.648438 204.328125 317.789062 204.53125 C 317.929688 204.734375 318.082031 204.929688 318.246094 205.113281 C 318.414062 205.296875 318.585938 205.472656 318.773438 205.636719 C 318.957031 205.800781 319.152344 205.953125 319.359375 206.09375 C 319.5625 206.234375 319.773438 206.359375 319.992188 206.476562 C 320.210938 206.589844 320.4375 206.691406 320.667969 206.777344 C 320.902344 206.867188 321.136719 206.9375 321.378906 206.996094 C 321.617188 207.058594 321.859375 207.101562 322.105469 207.128906 C 322.351562 207.160156 322.597656 207.175781 322.847656 207.175781 L 334.992188 207.175781 C 334.894531 209.769531 334.730469 212.355469 334.503906 214.941406 C 334.277344 217.527344 333.988281 220.105469 333.636719 222.675781 C 333.285156 225.246094 332.871094 227.808594 332.398438 230.359375 C 331.921875 232.910156 331.382812 235.449219 330.78125 237.972656 C 330.183594 240.496094 329.519531 243.007812 328.800781 245.5 C 328.078125 247.992188 327.292969 250.464844 326.453125 252.917969 C 325.609375 255.375 324.707031 257.804688 323.746094 260.21875 C 322.785156 262.628906 321.765625 265.011719 320.6875 267.375 C 319.613281 269.734375 318.476562 272.066406 317.285156 274.375 C 316.097656 276.679688 314.851562 278.953125 313.546875 281.199219 C 312.246094 283.445312 310.890625 285.65625 309.480469 287.835938 C 308.070312 290.015625 306.609375 292.160156 305.09375 294.265625 C 303.582031 296.375 302.015625 298.445312 300.402344 300.476562 C 298.789062 302.507812 297.125 304.5 295.414062 306.449219 C 293.699219 308.398438 291.941406 310.308594 290.136719 312.171875 C 288.332031 314.039062 286.484375 315.859375 284.589844 317.632812 C 282.699219 319.410156 280.761719 321.136719 278.785156 322.816406 C 276.808594 324.5 274.789062 326.128906 272.734375 327.710938 C 270.675781 329.296875 268.582031 330.828125 266.449219 332.308594 C 264.320312 333.789062 262.152344 335.214844 259.949219 336.589844 C 257.75 337.964844 255.515625 339.289062 253.25 340.554688 C 250.984375 341.820312 248.691406 343.03125 246.367188 344.1875 C 244.042969 345.339844 241.691406 346.4375 239.3125 347.476562 C 236.933594 348.519531 234.53125 349.5 232.105469 350.425781 C 229.679688 351.347656 227.234375 352.210938 224.765625 353.015625 C 222.296875 353.820312 219.8125 354.5625 217.308594 355.246094 C 214.804688 355.929688 212.285156 356.550781 209.75 357.113281 C 207.214844 357.671875 204.671875 358.171875 202.113281 358.609375 C 199.554688 359.042969 196.984375 359.417969 194.410156 359.730469 C 191.832031 360.042969 189.25 360.289062 186.660156 360.476562 C 184.070312 360.660156 181.480469 360.785156 178.882812 360.84375 C 176.289062 360.902344 173.695312 360.898438 171.097656 360.832031 C 168.503906 360.765625 165.914062 360.636719 163.324219 360.445312 C 160.734375 360.25 158.152344 359.996094 155.578125 359.675781 C 153 359.359375 150.433594 358.976562 147.878906 358.53125 C 145.320312 358.089844 142.773438 357.582031 140.242188 357.015625 C 137.710938 356.449219 135.191406 355.820312 132.691406 355.128906 C 130.1875 354.441406 127.703125 353.6875 125.238281 352.878906 C 122.773438 352.066406 120.328125 351.195312 117.90625 350.265625 C 115.480469 349.335938 113.082031 348.347656 110.707031 347.300781 C 108.332031 346.253906 105.984375 345.152344 103.664062 343.988281 C 101.339844 342.828125 99.050781 341.613281 96.789062 340.339844 C 94.527344 339.066406 92.296875 337.738281 90.097656 336.359375 C 87.902344 334.976562 85.738281 333.542969 83.613281 332.054688 C 81.484375 330.570312 79.394531 329.03125 77.339844 327.445312 C 75.289062 325.855469 73.277344 324.21875 71.304688 322.53125 C 69.328125 320.84375 67.398438 319.113281 65.511719 317.332031 C 63.621094 315.550781 61.777344 313.726562 59.980469 311.855469 C 58.179688 309.984375 56.425781 308.074219 54.71875 306.117188 C 53.015625 304.164062 51.355469 302.167969 49.746094 300.128906 C 48.136719 298.09375 46.578125 296.019531 45.070312 293.910156 C 43.5625 291.796875 42.105469 289.648438 40.703125 287.464844 C 39.300781 285.285156 37.949219 283.066406 36.65625 280.820312 C 35.359375 278.570312 34.117188 276.292969 32.933594 273.984375 C 31.75 271.671875 30.621094 269.335938 29.550781 266.972656 C 28.480469 264.609375 27.46875 262.222656 26.511719 259.808594 C 25.558594 257.394531 24.664062 254.960938 23.828125 252.503906 C 22.992188 250.046875 22.21875 247.570312 21.5 245.074219 C 20.785156 242.582031 20.132812 240.070312 19.539062 237.542969 C 18.945312 235.019531 18.414062 232.480469 17.945312 229.925781 C 17.476562 227.375 17.070312 224.8125 16.726562 222.242188 C 16.382812 219.667969 16.097656 217.089844 15.878906 214.503906 C 15.660156 211.917969 15.507812 209.328125 15.414062 206.734375 C 15.320312 204.140625 15.292969 201.546875 15.324219 198.953125 C 15.359375 196.359375 15.457031 193.765625 15.617188 191.175781 C 15.773438 188.585938 16 186 16.285156 183.421875 C 16.570312 180.84375 16.917969 178.273438 17.328125 175.710938 C 17.742188 173.148438 18.214844 170.597656 18.75 168.058594 C 19.285156 165.519531 19.882812 162.992188 20.539062 160.484375 C 21.199219 157.972656 21.917969 155.480469 22.695312 153.007812 C 23.476562 150.53125 24.316406 148.074219 25.214844 145.640625 C 26.113281 143.207031 27.070312 140.796875 28.089844 138.410156 C 29.105469 136.019531 30.179688 133.660156 31.3125 131.324219 C 32.441406 128.988281 33.632812 126.683594 34.875 124.40625 C 36.121094 122.128906 37.417969 119.882812 38.773438 117.667969 C 40.125 115.453125 41.53125 113.273438 42.992188 111.128906 C 44.449219 108.980469 45.960938 106.875 47.523438 104.800781 C 49.085938 102.730469 50.699219 100.695312 52.359375 98.703125 C 54.023438 96.707031 55.730469 94.757812 57.488281 92.84375 C 59.242188 90.933594 61.046875 89.070312 62.894531 87.246094 C 64.742188 85.421875 66.632812 83.644531 68.566406 81.914062 C 70.5 80.183594 72.472656 78.503906 74.492188 76.867188 C 76.507812 75.234375 78.5625 73.648438 80.652344 72.113281 C 82.746094 70.578125 84.875 69.097656 87.042969 67.664062 C 89.207031 66.234375 91.40625 64.859375 93.640625 63.535156 C 95.871094 62.210938 98.132812 60.941406 100.429688 59.726562 C 102.722656 58.515625 105.046875 57.355469 107.394531 56.257812 C 109.746094 55.15625 112.121094 54.113281 114.523438 53.128906 C 116.925781 52.144531 119.351562 51.21875 121.796875 50.351562 C 124.242188 49.484375 126.707031 48.675781 129.195312 47.929688 C 131.679688 47.183594 134.183594 46.496094 136.703125 45.871094 C 139.222656 45.246094 141.753906 44.683594 144.300781 44.183594 C 146.847656 43.679688 149.40625 43.242188 151.972656 42.863281 C 154.542969 42.488281 157.117188 42.171875 159.699219 41.921875 C 162.285156 41.667969 164.871094 41.480469 167.464844 41.355469 C 170.058594 41.230469 172.652344 41.167969 175.246094 41.167969 L 175.246094 28.871094 C 172.429688 28.875 169.613281 28.945312 166.800781 29.085938 C 163.988281 29.226562 161.179688 29.4375 158.375 29.71875 C 155.570312 29.996094 152.777344 30.34375 149.988281 30.757812 C 147.203125 31.175781 144.429688 31.660156 141.664062 32.210938 C 138.902344 32.761719 136.15625 33.382812 133.421875 34.066406 C 130.691406 34.753906 127.976562 35.507812 125.28125 36.328125 C 122.585938 37.148438 119.914062 38.03125 117.261719 38.984375 C 114.609375 39.933594 111.980469 40.949219 109.378906 42.027344 C 106.777344 43.105469 104.203125 44.25 101.65625 45.453125 C 99.109375 46.660156 96.59375 47.925781 94.109375 49.257812 C 91.628906 50.585938 89.175781 51.972656 86.761719 53.421875 C 84.34375 54.871094 81.964844 56.378906 79.625 57.945312 C 77.28125 59.507812 74.980469 61.132812 72.71875 62.808594 C 70.453125 64.488281 68.234375 66.222656 66.058594 68.007812 C 63.878906 69.796875 61.746094 71.632812 59.660156 73.527344 C 57.574219 75.417969 55.53125 77.359375 53.539062 79.351562 C 51.546875 81.34375 49.605469 83.382812 47.714844 85.46875 C 45.820312 87.554688 43.980469 89.6875 42.195312 91.863281 C 40.40625 94.042969 38.675781 96.261719 36.996094 98.523438 C 35.316406 100.785156 33.695312 103.085938 32.128906 105.429688 C 30.5625 107.769531 29.054688 110.148438 27.605469 112.5625 C 26.15625 114.980469 24.765625 117.429688 23.4375 119.910156 C 22.109375 122.394531 20.839844 124.910156 19.636719 127.453125 C 18.429688 130 17.285156 132.574219 16.207031 135.175781 C 15.128906 137.777344 14.113281 140.402344 13.160156 143.054688 C 12.210938 145.707031 11.324219 148.378906 10.503906 151.074219 C 9.6875 153.769531 8.933594 156.480469 8.246094 159.214844 C 7.558594 161.945312 6.941406 164.691406 6.386719 167.453125 C 5.835938 170.214844 5.351562 172.988281 4.9375 175.777344 C 4.519531 178.5625 4.171875 181.355469 3.894531 184.160156 C 3.613281 186.960938 3.40625 189.769531 3.261719 192.582031 C 3.121094 195.394531 3.050781 198.210938 3.046875 201.027344 Z M 341.296875 169.351562 L 350.871094 194.878906 L 331.722656 194.878906 Z M 341.296875 169.351562 "
      fill-opacity="1" fill-rule="nonzero" />
  </g>
  <path fill="#3d7661" transform="translate(-10)"
    d="M 304.398438 127.246094 L 304.398438 114.949219 C 303.214844 114.949219 302.039062 115.007812 300.863281 115.121094 C 299.6875 115.238281 298.523438 115.40625 297.363281 115.632812 C 296.203125 115.859375 295.058594 116.140625 293.925781 116.476562 C 292.796875 116.8125 291.683594 117.203125 290.589844 117.648438 C 289.496094 118.089844 288.421875 118.585938 287.378906 119.128906 C 286.332031 119.675781 285.3125 120.269531 284.324219 120.914062 C 283.332031 121.558594 282.375 122.246094 281.453125 122.984375 C 280.527344 123.71875 279.644531 124.496094 278.792969 125.316406 C 277.945312 126.136719 277.136719 126.996094 276.371094 127.894531 C 275.605469 128.792969 274.882812 129.722656 274.207031 130.691406 C 273.53125 131.660156 272.902344 132.65625 272.320312 133.683594 C 271.738281 134.710938 271.207031 135.761719 270.730469 136.84375 C 270.25 137.921875 269.820312 139.019531 269.445312 140.136719 C 269.074219 141.257812 268.753906 142.394531 268.488281 143.542969 C 268.222656 144.691406 268.011719 145.851562 267.859375 147.023438 C 267.703125 148.195312 267.605469 149.367188 267.566406 150.546875 L 267.429688 150.546875 C 267.386719 149.367188 267.289062 148.195312 267.136719 147.023438 C 266.980469 145.851562 266.773438 144.691406 266.507812 143.542969 C 266.242188 142.394531 265.921875 141.257812 265.546875 140.136719 C 265.171875 139.019531 264.746094 137.921875 264.265625 136.84375 C 263.785156 135.761719 263.253906 134.710938 262.671875 133.683594 C 262.09375 132.65625 261.464844 131.660156 260.785156 130.691406 C 260.109375 129.722656 259.386719 128.792969 258.621094 127.894531 C 257.855469 126.996094 257.046875 126.136719 256.199219 125.316406 C 255.351562 124.496094 254.464844 123.71875 253.542969 122.984375 C 252.617188 122.246094 251.660156 121.558594 250.671875 120.914062 C 249.683594 120.269531 248.664062 119.675781 247.617188 119.128906 C 246.570312 118.585938 245.5 118.089844 244.40625 117.648438 C 243.3125 117.203125 242.199219 116.8125 241.066406 116.476562 C 239.933594 116.140625 238.789062 115.859375 237.632812 115.632812 C 236.472656 115.40625 235.304688 115.238281 234.128906 115.121094 C 232.957031 115.007812 231.777344 114.949219 230.597656 114.949219 L 230.597656 127.246094 C 232.050781 127.25 233.488281 127.382812 234.917969 127.644531 C 236.347656 127.902344 237.742188 128.289062 239.101562 128.796875 C 240.460938 129.300781 241.769531 129.925781 243.019531 130.664062 C 244.269531 131.402344 245.445312 132.246094 246.546875 133.191406 C 247.648438 134.136719 248.65625 135.171875 249.574219 136.296875 C 250.492188 137.421875 251.300781 138.621094 252.007812 139.890625 C 252.714844 141.160156 253.300781 142.480469 253.773438 143.851562 C 254.246094 145.226562 254.59375 146.628906 254.816406 148.0625 C 253.726562 147.640625 252.644531 147.191406 251.570312 146.65625 C 250.859375 146.300781 250.117188 146.042969 249.34375 145.882812 C 248.566406 145.722656 247.785156 145.667969 246.992188 145.714844 C 246.203125 145.761719 245.433594 145.910156 244.679688 146.164062 C 243.929688 146.414062 243.222656 146.757812 242.566406 147.195312 C 241.535156 147.996094 240.621094 148.914062 239.824219 149.949219 C 239.027344 150.984375 238.375 152.101562 237.867188 153.304688 C 237.355469 154.503906 237.007812 155.753906 236.816406 157.042969 C 236.628906 158.335938 236.605469 159.628906 236.746094 160.925781 L 241.882812 268.449219 C 242.933594 289.945312 253.695312 305.550781 267.496094 305.550781 C 281.296875 305.550781 292.058594 289.945312 293.085938 268.457031 L 298.246094 160.925781 C 298.390625 159.628906 298.367188 158.335938 298.179688 157.046875 C 297.992188 155.753906 297.644531 154.507812 297.140625 153.308594 C 296.632812 152.105469 295.980469 150.988281 295.1875 149.953125 C 294.394531 148.917969 293.484375 148 292.453125 147.195312 C 291.792969 146.761719 291.085938 146.414062 290.335938 146.164062 C 289.585938 145.914062 288.816406 145.765625 288.023438 145.71875 C 287.234375 145.667969 286.449219 145.726562 285.675781 145.882812 C 284.898438 146.042969 284.15625 146.300781 283.449219 146.65625 C 282.375 147.191406 281.292969 147.632812 280.203125 148.0625 C 280.425781 146.628906 280.773438 145.226562 281.242188 143.855469 C 281.714844 142.484375 282.300781 141.164062 283.007812 139.894531 C 283.710938 138.625 284.523438 137.429688 285.4375 136.304688 C 286.355469 135.179688 287.363281 134.144531 288.464844 133.199219 C 289.5625 132.253906 290.738281 131.410156 291.988281 130.671875 C 293.234375 129.933594 294.539062 129.308594 295.898438 128.800781 C 297.257812 128.292969 298.652344 127.910156 300.078125 127.648438 C 301.507812 127.386719 302.945312 127.253906 304.398438 127.246094 Z M 285.898438 159.050781 C 285.945312 159.476562 285.957031 159.90625 285.933594 160.335938 L 280.800781 267.871094 C 280.078125 283.054688 273.339844 293.253906 267.496094 293.253906 C 261.65625 293.253906 254.914062 283.054688 254.195312 267.867188 L 251.882812 219.472656 L 267.496094 219.472656 L 267.496094 207.175781 L 251.296875 207.175781 L 249.046875 160.335938 C 249.023438 159.90625 249.035156 159.476562 249.082031 159.050781 C 251.984375 160.320312 254.988281 161.28125 258.085938 161.929688 C 261.1875 162.578125 264.324219 162.90625 267.492188 162.90625 C 270.660156 162.90625 273.792969 162.578125 276.894531 161.929688 C 279.996094 161.28125 282.996094 160.320312 285.898438 159.050781 Z M 285.898438 159.050781 "
    fill-opacity="1" fill-rule="nonzero" />
  <path fill="#3d7661" transform="translate(-20)"
    d="M 212.148438 84.207031 L 212.148438 71.910156 C 208.59375 71.910156 205.074219 72.25 201.589844 72.929688 C 198.101562 73.609375 194.714844 74.617188 191.421875 75.953125 C 188.132812 77.289062 185 78.925781 182.023438 80.867188 C 179.050781 82.808594 176.289062 85.015625 173.738281 87.488281 C 173.265625 85.933594 172.667969 84.421875 171.953125 82.960938 C 171.238281 81.496094 170.410156 80.097656 169.472656 78.769531 C 168.535156 77.4375 167.496094 76.1875 166.359375 75.023438 C 165.222656 73.855469 164 72.789062 162.691406 71.816406 C 161.386719 70.84375 160.011719 69.984375 158.566406 69.230469 C 157.121094 68.480469 155.625 67.847656 154.082031 67.332031 C 152.535156 66.816406 150.957031 66.429688 149.351562 66.164062 C 147.742188 65.902344 146.125 65.765625 144.496094 65.761719 L 132.195312 65.761719 C 131.792969 65.761719 131.394531 65.800781 130.996094 65.878906 C 130.601562 65.957031 130.214844 66.074219 129.84375 66.230469 C 129.46875 66.382812 129.117188 66.574219 128.78125 66.796875 C 128.445312 67.019531 128.132812 67.277344 127.847656 67.5625 C 127.5625 67.847656 127.308594 68.15625 127.082031 68.492188 C 126.859375 68.828125 126.667969 69.183594 126.515625 69.554688 C 126.359375 69.929688 126.242188 70.3125 126.164062 70.710938 C 126.085938 71.105469 126.046875 71.503906 126.046875 71.910156 C 126.046875 72.914062 126.097656 73.921875 126.199219 74.921875 C 126.296875 75.921875 126.445312 76.917969 126.644531 77.90625 C 126.839844 78.890625 127.085938 79.867188 127.378906 80.828125 C 127.671875 81.792969 128.011719 82.738281 128.398438 83.667969 C 128.785156 84.597656 129.214844 85.507812 129.6875 86.394531 C 130.164062 87.28125 130.679688 88.144531 131.242188 88.980469 C 131.800781 89.816406 132.398438 90.625 133.039062 91.402344 C 133.675781 92.179688 134.351562 92.925781 135.0625 93.636719 C 135.777344 94.347656 136.519531 95.023438 137.300781 95.664062 C 138.078125 96.300781 138.886719 96.898438 139.722656 97.460938 C 140.558594 98.019531 141.421875 98.535156 142.308594 99.011719 C 143.195312 99.484375 144.105469 99.914062 145.035156 100.300781 C 145.964844 100.6875 146.910156 101.027344 147.875 101.320312 C 148.839844 101.613281 149.8125 101.859375 150.800781 102.054688 C 151.789062 102.253906 152.78125 102.402344 153.785156 102.5 C 154.785156 102.601562 155.789062 102.648438 156.796875 102.652344 L 162.640625 102.652344 C 160.746094 106.425781 159.3125 110.367188 158.335938 114.476562 L 140.53125 109.679688 C 138.527344 109.132812 136.484375 108.839844 134.40625 108.804688 C 132.332031 108.765625 130.28125 108.980469 128.257812 109.453125 C 126.234375 109.925781 124.300781 110.636719 122.453125 111.589844 C 120.609375 112.542969 118.90625 113.707031 117.351562 115.082031 C 115.585938 116.628906 114.035156 118.367188 112.699219 120.292969 C 111.359375 122.21875 110.273438 124.277344 109.441406 126.46875 C 108.605469 128.660156 108.050781 130.917969 107.769531 133.25 C 107.492188 135.578125 107.496094 137.902344 107.789062 140.230469 L 113.863281 192.609375 C 114.101562 194.90625 114.589844 197.152344 115.335938 199.335938 C 116.085938 201.523438 117.066406 203.601562 118.285156 205.5625 C 119.503906 207.527344 120.925781 209.328125 122.554688 210.96875 C 124.183594 212.609375 125.972656 214.046875 127.929688 215.277344 C 129.683594 216.378906 131.542969 217.269531 133.5 217.949219 C 135.460938 218.628906 137.46875 219.078125 139.53125 219.300781 C 141.589844 219.523438 143.652344 219.511719 145.710938 219.265625 C 147.769531 219.019531 149.773438 218.542969 151.722656 217.84375 C 153.519531 217.191406 155.359375 216.699219 157.242188 216.367188 C 159.125 216.035156 161.023438 215.867188 162.933594 215.867188 C 164.847656 215.867188 166.742188 216.035156 168.625 216.367188 C 170.507812 216.699219 172.347656 217.191406 174.144531 217.84375 C 176.097656 218.542969 178.101562 219.019531 180.160156 219.265625 C 182.21875 219.511719 184.277344 219.523438 186.339844 219.300781 C 188.398438 219.078125 190.410156 218.628906 192.367188 217.949219 C 194.328125 217.269531 196.183594 216.378906 197.941406 215.277344 C 199.894531 214.046875 201.6875 212.609375 203.316406 210.96875 C 204.941406 209.328125 206.367188 207.527344 207.585938 205.5625 C 208.800781 203.601562 209.785156 201.523438 210.53125 199.335938 C 211.277344 197.152344 211.769531 194.90625 212.003906 192.609375 L 218.082031 140.230469 C 218.371094 137.902344 218.378906 135.578125 218.097656 133.25 C 217.820312 130.917969 217.261719 128.660156 216.429688 126.46875 C 215.59375 124.277344 214.507812 122.21875 213.171875 120.292969 C 211.832031 118.367188 210.28125 116.628906 208.519531 115.082031 C 206.960938 113.707031 205.261719 112.542969 203.414062 111.589844 C 201.566406 110.636719 199.632812 109.921875 197.609375 109.449219 C 195.585938 108.980469 193.535156 108.761719 191.457031 108.800781 C 189.378906 108.839844 187.335938 109.132812 185.332031 109.679688 L 171.398438 113.4375 C 172.117188 111.320312 172.996094 109.273438 174.03125 107.292969 C 175.070312 105.316406 176.253906 103.429688 177.585938 101.632812 C 178.914062 99.839844 180.378906 98.160156 181.96875 96.589844 C 183.5625 95.023438 185.265625 93.589844 187.082031 92.285156 C 188.898438 90.984375 190.804688 89.828125 192.796875 88.824219 C 194.792969 87.816406 196.855469 86.972656 198.980469 86.285156 C 201.109375 85.601562 203.277344 85.082031 205.484375 84.734375 C 207.691406 84.386719 209.910156 84.210938 212.148438 84.207031 Z M 156.796875 90.355469 C 155.847656 90.355469 154.90625 90.28125 153.96875 90.132812 C 153.03125 89.988281 152.113281 89.769531 151.210938 89.484375 C 150.304688 89.195312 149.429688 88.839844 148.582031 88.417969 C 147.734375 87.996094 146.921875 87.511719 146.148438 86.964844 C 145.375 86.417969 144.644531 85.8125 143.964844 85.15625 C 143.28125 84.496094 142.65625 83.789062 142.082031 83.03125 C 141.511719 82.277344 141 81.484375 140.550781 80.648438 C 140.097656 79.816406 139.714844 78.949219 139.398438 78.058594 L 144.496094 78.058594 C 145.445312 78.058594 146.386719 78.132812 147.324219 78.277344 C 148.261719 78.425781 149.179688 78.640625 150.085938 78.929688 C 150.988281 79.21875 151.863281 79.570312 152.710938 79.992188 C 153.5625 80.417969 154.371094 80.902344 155.144531 81.449219 C 155.921875 81.996094 156.648438 82.597656 157.328125 83.257812 C 158.011719 83.917969 158.636719 84.625 159.210938 85.378906 C 159.78125 86.136719 160.292969 86.929688 160.742188 87.765625 C 161.195312 88.597656 161.578125 89.460938 161.894531 90.355469 Z M 169.472656 126.691406 L 188.535156 121.550781 C 189.574219 121.273438 190.628906 121.128906 191.699219 121.113281 C 192.773438 121.097656 193.832031 121.214844 194.875 121.460938 C 195.917969 121.710938 196.917969 122.082031 197.867188 122.582031 C 198.816406 123.078125 199.691406 123.683594 200.492188 124.398438 C 201.496094 125.289062 202.375 126.289062 203.136719 127.394531 C 203.894531 128.5 204.507812 129.683594 204.976562 130.9375 C 205.445312 132.195312 205.753906 133.492188 205.90625 134.824219 C 206.054688 136.15625 206.042969 137.488281 205.867188 138.816406 L 199.796875 191.1875 C 199.664062 192.566406 199.382812 193.910156 198.941406 195.226562 C 198.503906 196.539062 197.925781 197.785156 197.203125 198.964844 C 196.484375 200.148438 195.636719 201.234375 194.671875 202.222656 C 193.703125 203.210938 192.636719 204.078125 191.46875 204.828125 C 190.503906 205.441406 189.476562 205.941406 188.394531 206.324219 C 187.3125 206.703125 186.203125 206.957031 185.0625 207.082031 C 183.921875 207.207031 182.78125 207.199219 181.640625 207.0625 C 180.503906 206.921875 179.394531 206.65625 178.316406 206.265625 C 175.847656 205.382812 173.324219 204.714844 170.742188 204.265625 C 168.160156 203.820312 165.5625 203.59375 162.941406 203.59375 C 160.320312 203.59375 157.71875 203.820312 155.136719 204.265625 C 152.554688 204.714844 150.03125 205.382812 147.566406 206.265625 C 146.488281 206.65625 145.378906 206.921875 144.238281 207.0625 C 143.101562 207.199219 141.960938 207.203125 140.820312 207.078125 C 139.679688 206.957031 138.566406 206.703125 137.484375 206.320312 C 136.402344 205.941406 135.378906 205.441406 134.410156 204.828125 C 133.246094 204.078125 132.179688 203.210938 131.214844 202.21875 C 130.246094 201.230469 129.402344 200.144531 128.683594 198.964844 C 127.964844 197.78125 127.386719 196.535156 126.949219 195.222656 C 126.511719 193.910156 126.226562 192.566406 126.097656 191.1875 L 120.019531 138.808594 C 119.84375 137.480469 119.832031 136.148438 119.984375 134.816406 C 120.132812 133.484375 120.445312 132.1875 120.914062 130.933594 C 121.382812 129.675781 121.996094 128.496094 122.753906 127.386719 C 123.511719 126.28125 124.390625 125.28125 125.394531 124.390625 C 126.195312 123.679688 127.070312 123.074219 128.019531 122.574219 C 128.96875 122.078125 129.964844 121.707031 131.007812 121.457031 C 132.050781 121.210938 133.109375 121.09375 134.183594 121.105469 C 135.253906 121.121094 136.308594 121.269531 137.34375 121.546875 L 156.410156 126.6875 C 156.539062 126.722656 156.675781 126.734375 156.804688 126.765625 C 156.804688 126.925781 156.804688 127.078125 156.804688 127.238281 L 159.1875 127.238281 C 161.699219 127.621094 164.207031 127.621094 166.71875 127.238281 L 169.097656 127.238281 C 169.097656 127.078125 169.097656 126.917969 169.097656 126.753906 C 169.238281 126.734375 169.355469 126.722656 169.472656 126.691406 Z M 169.472656 126.691406 "
    fill-opacity="1" fill-rule="nonzero" />
  <path fill="#3d7661" transform="translate(-20)"
    d="M 175.246094 231.769531 C 173.433594 231.769531 171.625 231.859375 169.820312 232.035156 C 168.019531 232.210938 166.226562 232.476562 164.449219 232.832031 C 162.671875 233.1875 160.914062 233.625 159.179688 234.152344 C 157.445312 234.675781 155.738281 235.289062 154.066406 235.980469 C 152.390625 236.675781 150.753906 237.449219 149.15625 238.300781 C 147.554688 239.15625 146.003906 240.085938 144.496094 241.09375 C 142.988281 242.101562 141.535156 243.179688 140.132812 244.328125 C 138.730469 245.480469 137.390625 246.695312 136.109375 247.976562 C 134.828125 249.257812 133.609375 250.597656 132.460938 252 C 131.3125 253.402344 130.230469 254.855469 129.226562 256.363281 C 128.21875 257.867188 127.285156 259.421875 126.433594 261.019531 C 125.578125 262.617188 124.804688 264.253906 124.109375 265.929688 C 123.417969 267.601562 122.804688 269.308594 122.28125 271.042969 C 121.753906 272.777344 121.3125 274.53125 120.960938 276.308594 C 120.605469 278.085938 120.339844 279.878906 120.164062 281.679688 C 119.984375 283.484375 119.898438 285.292969 119.898438 287.105469 C 119.898438 288.917969 119.984375 290.726562 120.164062 292.527344 C 120.339844 294.332031 120.605469 296.121094 120.960938 297.898438 C 121.3125 299.675781 121.753906 301.433594 122.28125 303.167969 C 122.804688 304.902344 123.417969 306.605469 124.109375 308.28125 C 124.804688 309.957031 125.578125 311.589844 126.433594 313.191406 C 127.285156 314.789062 128.21875 316.339844 129.226562 317.847656 C 130.230469 319.355469 131.3125 320.808594 132.460938 322.210938 C 133.609375 323.609375 134.828125 324.953125 136.109375 326.234375 C 137.390625 327.515625 138.730469 328.730469 140.132812 329.878906 C 141.535156 331.03125 142.988281 332.109375 144.496094 333.113281 C 146.003906 334.121094 147.554688 335.050781 149.15625 335.90625 C 150.753906 336.761719 152.390625 337.535156 154.066406 338.226562 C 155.738281 338.921875 157.445312 339.53125 159.179688 340.058594 C 160.914062 340.582031 162.671875 341.023438 164.449219 341.378906 C 166.226562 341.730469 168.019531 341.996094 169.820312 342.175781 C 171.625 342.351562 173.433594 342.441406 175.246094 342.441406 C 177.058594 342.441406 178.867188 342.351562 180.671875 342.175781 C 182.476562 341.996094 184.265625 341.730469 186.046875 341.378906 C 187.824219 341.023438 189.578125 340.582031 191.3125 340.058594 C 193.046875 339.53125 194.753906 338.921875 196.429688 338.226562 C 198.101562 337.535156 199.738281 336.761719 201.339844 335.90625 C 202.9375 335.050781 204.492188 334.121094 205.996094 333.113281 C 207.503906 332.109375 208.960938 331.03125 210.359375 329.878906 C 211.761719 328.730469 213.101562 327.515625 214.386719 326.234375 C 215.667969 324.953125 216.882812 323.609375 218.03125 322.210938 C 219.183594 320.808594 220.261719 319.355469 221.269531 317.847656 C 222.277344 316.339844 223.207031 314.789062 224.0625 313.191406 C 224.914062 311.589844 225.691406 309.957031 226.382812 308.28125 C 227.078125 306.605469 227.6875 304.902344 228.214844 303.167969 C 228.738281 301.433594 229.179688 299.675781 229.535156 297.898438 C 229.886719 296.121094 230.152344 294.332031 230.332031 292.527344 C 230.507812 290.726562 230.597656 288.917969 230.597656 287.105469 C 230.59375 285.292969 230.503906 283.484375 230.324219 281.683594 C 230.144531 279.878906 229.878906 278.089844 229.523438 276.3125 C 229.167969 274.535156 228.726562 272.78125 228.199219 271.046875 C 227.671875 269.316406 227.0625 267.613281 226.367188 265.9375 C 225.671875 264.265625 224.898438 262.628906 224.042969 261.03125 C 223.1875 259.433594 222.257812 257.882812 221.25 256.375 C 220.242188 254.871094 219.164062 253.417969 218.015625 252.015625 C 216.863281 250.617188 215.648438 249.273438 214.367188 247.996094 C 213.085938 246.714844 211.746094 245.496094 210.34375 244.347656 C 208.941406 243.199219 207.488281 242.121094 205.984375 241.113281 C 204.476562 240.105469 202.925781 239.175781 201.328125 238.320312 C 199.730469 237.464844 198.09375 236.691406 196.417969 235.996094 C 194.746094 235.304688 193.042969 234.691406 191.308594 234.164062 C 189.574219 233.636719 187.816406 233.195312 186.039062 232.84375 C 184.265625 232.488281 182.472656 232.21875 180.671875 232.039062 C 178.867188 231.863281 177.058594 231.769531 175.246094 231.769531 Z M 212.148438 293.253906 C 207.414062 291.914062 203.011719 289.863281 198.941406 287.105469 C 203.015625 284.347656 207.414062 282.296875 212.148438 280.957031 C 212.550781 280.957031 212.949219 280.996094 213.347656 281.074219 C 213.742188 281.152344 214.128906 281.269531 214.5 281.425781 C 214.875 281.578125 215.226562 281.769531 215.5625 281.992188 C 215.898438 282.214844 216.210938 282.472656 216.496094 282.757812 C 216.78125 283.042969 217.035156 283.351562 217.261719 283.6875 C 217.484375 284.023438 217.675781 284.378906 217.828125 284.75 C 217.984375 285.125 218.101562 285.507812 218.179688 285.90625 C 218.257812 286.300781 218.296875 286.699219 218.296875 287.105469 C 218.296875 287.507812 218.257812 287.910156 218.179688 288.304688 C 218.101562 288.699219 217.984375 289.085938 217.828125 289.457031 C 217.675781 289.832031 217.484375 290.183594 217.261719 290.519531 C 217.035156 290.855469 216.78125 291.167969 216.496094 291.453125 C 216.210938 291.738281 215.898438 291.992188 215.5625 292.21875 C 215.226562 292.441406 214.875 292.628906 214.5 292.785156 C 214.128906 292.941406 213.742188 293.054688 213.347656 293.136719 C 212.949219 293.214844 212.550781 293.253906 212.148438 293.253906 Z M 181.398438 250.214844 C 180.050781 254.941406 178 259.339844 175.246094 263.414062 C 172.488281 259.34375 170.4375 254.945312 169.097656 250.214844 C 169.097656 249.808594 169.136719 249.410156 169.214844 249.015625 C 169.292969 248.617188 169.410156 248.234375 169.566406 247.859375 C 169.71875 247.488281 169.910156 247.132812 170.132812 246.796875 C 170.359375 246.460938 170.613281 246.152344 170.898438 245.867188 C 171.183594 245.582031 171.496094 245.324219 171.832031 245.101562 C 172.164062 244.878906 172.519531 244.6875 172.894531 244.535156 C 173.265625 244.378906 173.652344 244.261719 174.046875 244.183594 C 174.441406 244.105469 174.84375 244.066406 175.246094 244.066406 C 175.652344 244.066406 176.050781 244.105469 176.445312 244.183594 C 176.84375 244.261719 177.226562 244.378906 177.601562 244.535156 C 177.972656 244.6875 178.328125 244.878906 178.664062 245.101562 C 179 245.324219 179.308594 245.582031 179.59375 245.867188 C 179.882812 246.152344 180.136719 246.460938 180.359375 246.796875 C 180.585938 247.132812 180.773438 247.488281 180.929688 247.859375 C 181.082031 248.234375 181.199219 248.617188 181.277344 249.015625 C 181.359375 249.410156 181.398438 249.808594 181.398438 250.214844 Z M 138.347656 280.957031 C 143.078125 282.296875 147.480469 284.34375 151.550781 287.105469 C 147.480469 289.863281 143.078125 291.914062 138.347656 293.253906 C 137.941406 293.253906 137.542969 293.214844 137.148438 293.136719 C 136.75 293.054688 136.367188 292.941406 135.992188 292.785156 C 135.621094 292.628906 135.265625 292.441406 134.929688 292.21875 C 134.59375 291.992188 134.285156 291.738281 134 291.453125 C 133.710938 291.167969 133.457031 290.855469 133.234375 290.519531 C 133.007812 290.183594 132.820312 289.832031 132.664062 289.457031 C 132.511719 289.085938 132.394531 288.699219 132.316406 288.304688 C 132.234375 287.910156 132.195312 287.507812 132.195312 287.105469 C 132.195312 286.699219 132.234375 286.300781 132.316406 285.90625 C 132.394531 285.507812 132.511719 285.125 132.664062 284.75 C 132.820312 284.378906 133.007812 284.023438 133.234375 283.6875 C 133.457031 283.351562 133.710938 283.042969 134 282.757812 C 134.285156 282.472656 134.59375 282.214844 134.929688 281.992188 C 135.265625 281.769531 135.621094 281.578125 135.992188 281.425781 C 136.367188 281.269531 136.75 281.152344 137.148438 281.074219 C 137.542969 280.996094 137.941406 280.957031 138.347656 280.957031 Z M 169.097656 323.996094 C 170.445312 319.269531 172.496094 314.867188 175.246094 310.792969 C 178.007812 314.863281 180.054688 319.265625 181.398438 323.996094 C 181.398438 324.398438 181.359375 324.796875 181.277344 325.195312 C 181.199219 325.589844 181.082031 325.976562 180.929688 326.347656 C 180.773438 326.722656 180.585938 327.074219 180.359375 327.410156 C 180.136719 327.746094 179.882812 328.058594 179.59375 328.34375 C 179.308594 328.628906 179 328.882812 178.664062 329.109375 C 178.328125 329.332031 177.972656 329.519531 177.601562 329.675781 C 177.226562 329.832031 176.84375 329.945312 176.445312 330.027344 C 176.050781 330.105469 175.652344 330.144531 175.246094 330.144531 C 174.84375 330.144531 174.441406 330.105469 174.046875 330.027344 C 173.652344 329.945312 173.265625 329.832031 172.894531 329.675781 C 172.519531 329.519531 172.164062 329.332031 171.832031 329.109375 C 171.496094 328.882812 171.183594 328.628906 170.898438 328.34375 C 170.613281 328.058594 170.359375 327.746094 170.132812 327.410156 C 169.910156 327.074219 169.71875 326.722656 169.566406 326.347656 C 169.410156 325.976562 169.292969 325.589844 169.214844 325.195312 C 169.136719 324.796875 169.097656 324.398438 169.097656 323.996094 Z M 193.492188 326.023438 C 193.597656 325.351562 193.667969 324.675781 193.695312 323.996094 C 193.695312 316.136719 184.335938 301.730469 180.308594 295.910156 C 180.011719 295.523438 179.671875 295.171875 179.292969 294.863281 C 178.914062 294.550781 178.507812 294.289062 178.066406 294.074219 C 177.628906 293.855469 177.171875 293.695312 176.695312 293.582031 C 176.21875 293.472656 175.734375 293.417969 175.246094 293.417969 C 174.757812 293.417969 174.273438 293.472656 173.796875 293.582031 C 173.320312 293.695312 172.863281 293.855469 172.425781 294.074219 C 171.988281 294.289062 171.578125 294.550781 171.199219 294.863281 C 170.820312 295.171875 170.484375 295.523438 170.183594 295.910156 C 166.15625 301.730469 156.796875 316.136719 156.796875 323.996094 C 156.828125 324.675781 156.894531 325.355469 157 326.03125 C 154.746094 324.96875 152.597656 323.71875 150.558594 322.285156 C 148.519531 320.851562 146.617188 319.253906 144.855469 317.488281 C 143.089844 315.726562 141.492188 313.824219 140.058594 311.789062 C 138.625 309.75 137.375 307.601562 136.3125 305.347656 C 136.984375 305.453125 137.664062 305.519531 138.347656 305.550781 C 146.207031 305.550781 160.609375 296.191406 166.441406 292.164062 C 166.644531 292.023438 166.839844 291.871094 167.023438 291.707031 C 167.210938 291.542969 167.386719 291.367188 167.550781 291.183594 C 167.714844 290.996094 167.867188 290.800781 168.007812 290.597656 C 168.148438 290.394531 168.277344 290.179688 168.390625 289.960938 C 168.507812 289.742188 168.609375 289.515625 168.695312 289.285156 C 168.785156 289.054688 168.859375 288.816406 168.917969 288.574219 C 168.976562 288.335938 169.023438 288.09375 169.050781 287.847656 C 169.082031 287.601562 169.097656 287.351562 169.097656 287.105469 C 169.097656 286.855469 169.082031 286.609375 169.050781 286.363281 C 169.023438 286.117188 168.976562 285.875 168.917969 285.632812 C 168.859375 285.390625 168.785156 285.15625 168.695312 284.925781 C 168.609375 284.691406 168.507812 284.46875 168.390625 284.246094 C 168.277344 284.027344 168.148438 283.816406 168.007812 283.613281 C 167.867188 283.40625 167.714844 283.214844 167.550781 283.027344 C 167.386719 282.839844 167.210938 282.667969 167.023438 282.503906 C 166.839844 282.339844 166.644531 282.183594 166.441406 282.042969 C 160.609375 278.015625 146.207031 268.660156 138.347656 268.660156 C 137.664062 268.691406 136.984375 268.757812 136.3125 268.863281 C 137.375 266.609375 138.625 264.460938 140.058594 262.421875 C 141.492188 260.382812 143.089844 258.484375 144.855469 256.71875 C 146.617188 254.957031 148.519531 253.359375 150.558594 251.925781 C 152.597656 250.492188 154.746094 249.242188 157 248.179688 C 156.894531 248.855469 156.828125 249.53125 156.796875 250.214844 C 156.796875 258.070312 166.15625 272.476562 170.183594 278.300781 C 170.328125 278.503906 170.480469 278.699219 170.644531 278.882812 C 170.808594 279.070312 170.984375 279.246094 171.167969 279.410156 C 171.355469 279.574219 171.550781 279.726562 171.753906 279.867188 C 171.957031 280.007812 172.167969 280.136719 172.390625 280.25 C 172.609375 280.367188 172.835938 280.46875 173.066406 280.554688 C 173.296875 280.644531 173.535156 280.71875 173.773438 280.777344 C 174.015625 280.835938 174.257812 280.882812 174.503906 280.910156 C 174.75 280.941406 175 280.957031 175.246094 280.957031 C 175.496094 280.957031 175.742188 280.941406 175.988281 280.910156 C 176.234375 280.882812 176.476562 280.835938 176.71875 280.777344 C 176.960938 280.71875 177.195312 280.644531 177.429688 280.554688 C 177.660156 280.46875 177.886719 280.367188 178.105469 280.25 C 178.324219 280.136719 178.535156 280.007812 178.742188 279.867188 C 178.945312 279.726562 179.140625 279.574219 179.324219 279.410156 C 179.511719 279.246094 179.6875 279.070312 179.851562 278.882812 C 180.015625 278.699219 180.167969 278.503906 180.308594 278.300781 C 184.335938 272.476562 193.695312 258.070312 193.695312 250.214844 C 193.667969 249.53125 193.597656 248.855469 193.492188 248.179688 C 195.75 249.242188 197.894531 250.492188 199.9375 251.925781 C 201.976562 253.359375 203.875 254.957031 205.640625 256.71875 C 207.402344 258.484375 209 260.382812 210.4375 262.421875 C 211.871094 264.460938 213.117188 266.609375 214.183594 268.863281 C 213.507812 268.757812 212.828125 268.691406 212.148438 268.660156 C 204.289062 268.660156 189.882812 278.015625 184.054688 282.042969 C 183.847656 282.183594 183.65625 282.339844 183.46875 282.503906 C 183.285156 282.667969 183.109375 282.84375 182.945312 283.027344 C 182.78125 283.214844 182.625 283.40625 182.484375 283.613281 C 182.34375 283.816406 182.21875 284.027344 182.101562 284.246094 C 181.988281 284.46875 181.882812 284.691406 181.796875 284.925781 C 181.707031 285.15625 181.636719 285.390625 181.574219 285.632812 C 181.515625 285.875 181.472656 286.117188 181.441406 286.363281 C 181.410156 286.609375 181.398438 286.855469 181.398438 287.105469 C 181.398438 287.351562 181.410156 287.601562 181.441406 287.847656 C 181.472656 288.09375 181.515625 288.335938 181.574219 288.574219 C 181.636719 288.816406 181.707031 289.054688 181.796875 289.285156 C 181.882812 289.515625 181.988281 289.742188 182.101562 289.960938 C 182.21875 290.179688 182.34375 290.394531 182.484375 290.597656 C 182.625 290.800781 182.78125 290.996094 182.945312 291.183594 C 183.109375 291.367188 183.285156 291.542969 183.46875 291.707031 C 183.65625 291.871094 183.847656 292.023438 184.054688 292.164062 C 189.882812 296.191406 204.289062 305.550781 212.148438 305.550781 C 212.828125 305.519531 213.507812 305.453125 214.183594 305.347656 C 213.117188 307.601562 211.871094 309.75 210.4375 311.789062 C 209 313.824219 207.402344 315.726562 205.640625 317.488281 C 203.875 319.253906 201.976562 320.851562 199.9375 322.285156 C 197.894531 323.71875 195.75 324.96875 193.492188 326.03125 Z M 193.492188 326.023438 "
    fill-opacity="1" fill-rule="nonzero" />
</svg>