<svg xmlns="http://www.w3.org/2000/svg" xmlns:xlink="http://www.w3.org/1999/xlink" width="500" zoomAndPan="magnify" viewBox="0 0 375 374.999991" height="500" preserveAspectRatio="xMidYMid meet" version="1.0"><defs><clipPath id="278cc3ad1a"><path d="M 256.558594 123.824219 L 375 123.824219 L 375 251.324219 L 256.558594 251.324219 Z M 256.558594 123.824219 " clip-rule="nonzero"/></clipPath><clipPath id="6e289522f5"><path d="M 168.75 168.75 L 206.25 168.75 L 206.25 206 L 168.75 206 Z M 168.75 168.75 " clip-rule="nonzero"/></clipPath></defs><rect x="-37.5" width="450" fill="#ffffff" y="-37.499999" height="449.999989" fill-opacity="1"/><rect x="-37.5" width="450" fill="#ffffff" y="-37.499999" height="449.999989" fill-opacity="1"/><path fill="#679380" d="M 61.28125 121.4375 C 183.902344 186.570312 114.859375 247.316406 114.859375 247.316406 C 114.859375 247.316406 23.222656 254.949219 61.28125 121.4375 Z M 61.28125 121.4375 " fill-opacity="1" fill-rule="nonzero"/><path fill="#344940" d="M 61.28125 121.4375 L 114.859375 247.316406 C 114.859375 247.316406 183.902344 186.570312 61.28125 121.4375 Z M 61.28125 121.4375 " fill-opacity="1" fill-rule="nonzero"/><path fill="#ffe9c2" d="M 29.617188 188.265625 C 104.226562 198.273438 80.632812 242.101562 80.632812 242.101562 C 80.632812 242.101562 35.496094 263.296875 29.617188 188.265625 Z M 29.617188 188.265625 " fill-opacity="1" fill-rule="nonzero"/><path fill="#ffcf6e" d="M 29.617188 188.265625 L 80.632812 242.101562 C 80.632812 242.101562 104.226562 198.273438 29.617188 188.265625 Z M 29.617188 188.265625 " fill-opacity="1" fill-rule="nonzero"/><path fill="#3d7661" d="M 307.101562 210.648438 L 275.679688 210.648438 C 274.464844 210.648438 273.484375 209.667969 273.484375 208.453125 C 273.484375 207.238281 274.464844 206.253906 275.679688 206.253906 L 307.101562 206.253906 C 308.308594 206.253906 309.296875 207.238281 309.296875 208.453125 C 309.296875 209.667969 308.308594 210.648438 307.101562 210.648438 " fill-opacity="1" fill-rule="nonzero"/><path fill="#3d7661" d="M 338.515625 191.105469 L 275.679688 191.105469 C 274.464844 191.105469 273.484375 190.121094 273.484375 188.90625 C 273.484375 187.691406 274.464844 186.710938 275.679688 186.710938 L 338.515625 186.710938 C 339.730469 186.710938 340.710938 187.691406 340.710938 188.90625 C 340.710938 190.121094 339.730469 191.105469 338.515625 191.105469 " fill-opacity="1" fill-rule="nonzero"/><path fill="#3d7661" d="M 338.515625 171.324219 L 275.679688 171.324219 C 274.464844 171.324219 273.484375 170.34375 273.484375 169.128906 C 273.484375 167.914062 274.464844 166.929688 275.679688 166.929688 L 338.515625 166.929688 C 339.730469 166.929688 340.710938 167.914062 340.710938 169.128906 C 340.710938 170.34375 339.730469 171.324219 338.515625 171.324219 " fill-opacity="1" fill-rule="nonzero"/><path fill="#3d7661" d="M 338.515625 151.308594 L 275.679688 151.308594 C 274.464844 151.308594 273.484375 150.324219 273.484375 149.109375 C 273.484375 147.894531 274.464844 146.914062 275.679688 146.914062 L 338.515625 146.914062 C 339.730469 146.914062 340.710938 147.894531 340.710938 149.109375 C 340.710938 150.324219 339.730469 151.308594 338.515625 151.308594 " fill-opacity="1" fill-rule="nonzero"/><g clip-path="url(#278cc3ad1a)"><path fill="#3d7661" d="M 368.507812 205.257812 L 339.078125 229.683594 C 338.582031 230.09375 336.730469 230.613281 335.808594 229.152344 L 325.820312 213.050781 C 324.863281 211.503906 325.140625 209.476562 326.484375 208.488281 C 328.699219 206.863281 330.378906 207.832031 331.292969 209.367188 L 336.09375 217.101562 C 336.761719 218.183594 337.863281 218.921875 339.117188 219.121094 C 340.371094 219.328125 341.652344 218.980469 342.628906 218.171875 L 364.296875 200.183594 C 365.699219 199.023438 367.78125 199.21875 368.9375 200.613281 C 370.097656 202.015625 369.90625 204.097656 368.507812 205.257812 Z M 353.265625 240.339844 C 353.265625 243.976562 350.308594 246.933594 346.675781 246.933594 L 267.519531 246.933594 C 263.886719 246.933594 260.929688 243.976562 260.929688 240.339844 L 260.929688 134.804688 C 260.929688 131.167969 263.886719 128.210938 267.519531 128.210938 L 346.675781 128.210938 C 350.308594 128.210938 353.265625 131.167969 353.265625 134.804688 L 353.265625 203.632812 L 339.824219 214.789062 L 335.023438 207.046875 C 333.882812 205.210938 332.011719 203.929688 329.882812 203.535156 C 327.761719 203.144531 325.550781 203.679688 323.824219 204.992188 C 320.710938 207.367188 319.949219 211.921875 322.089844 215.367188 L 332.078125 231.46875 C 333.082031 233.085938 334.722656 234.28125 336.621094 234.5 C 338.9375 234.765625 340.691406 234.050781 341.882812 233.066406 L 353.265625 223.621094 Z M 372.320312 197.808594 C 369.617188 194.546875 364.761719 194.09375 361.492188 196.800781 L 357.65625 199.988281 L 357.65625 134.804688 C 357.65625 128.746094 352.730469 123.816406 346.675781 123.816406 L 267.519531 123.816406 C 261.46875 123.816406 256.539062 128.746094 256.539062 134.804688 L 256.539062 240.339844 C 256.539062 246.398438 261.46875 251.332031 267.519531 251.332031 L 346.675781 251.332031 C 352.730469 251.332031 357.65625 246.398438 357.65625 240.339844 L 357.65625 219.972656 L 371.3125 208.640625 C 374.574219 205.933594 375.023438 201.074219 372.320312 197.808594 " fill-opacity="1" fill-rule="nonzero"/></g><g clip-path="url(#6e289522f5)"><path fill="#3d7661" d="M 187.453125 168.707031 C 187.042969 168.714844 186.648438 168.796875 186.273438 168.960938 C 185.894531 169.125 185.5625 169.351562 185.277344 169.644531 C 184.992188 169.941406 184.773438 170.277344 184.621094 170.660156 C 184.46875 171.042969 184.394531 171.4375 184.402344 171.847656 L 184.402344 184.246094 L 172.003906 184.246094 C 171.589844 184.238281 171.191406 184.3125 170.804688 184.46875 C 170.417969 184.625 170.078125 184.847656 169.785156 185.136719 C 169.488281 185.429688 169.261719 185.765625 169.101562 186.148438 C 168.941406 186.53125 168.859375 186.929688 168.859375 187.34375 C 168.859375 187.761719 168.941406 188.160156 169.101562 188.542969 C 169.261719 188.925781 169.488281 189.261719 169.785156 189.550781 C 170.078125 189.84375 170.417969 190.066406 170.804688 190.222656 C 171.191406 190.375 171.589844 190.449219 172.003906 190.445312 L 184.402344 190.445312 L 184.402344 202.839844 C 184.394531 203.253906 184.46875 203.65625 184.625 204.039062 C 184.777344 204.425781 185 204.765625 185.292969 205.0625 C 185.585938 205.355469 185.921875 205.582031 186.304688 205.742188 C 186.6875 205.902344 187.085938 205.984375 187.5 205.984375 C 187.914062 205.984375 188.3125 205.902344 188.695312 205.742188 C 189.078125 205.582031 189.414062 205.355469 189.707031 205.0625 C 190 204.765625 190.222656 204.425781 190.375 204.039062 C 190.53125 203.65625 190.605469 203.253906 190.597656 202.839844 L 190.597656 190.445312 L 202.996094 190.445312 C 203.410156 190.449219 203.808594 190.375 204.195312 190.222656 C 204.582031 190.066406 204.921875 189.84375 205.214844 189.550781 C 205.511719 189.261719 205.738281 188.925781 205.898438 188.542969 C 206.058594 188.160156 206.140625 187.761719 206.140625 187.34375 C 206.140625 186.929688 206.058594 186.53125 205.898438 186.148438 C 205.738281 185.765625 205.511719 185.429688 205.214844 185.136719 C 204.921875 184.847656 204.582031 184.625 204.195312 184.46875 C 203.808594 184.3125 203.410156 184.238281 202.996094 184.246094 L 190.597656 184.246094 L 190.597656 171.847656 C 190.605469 171.429688 190.527344 171.027344 190.371094 170.640625 C 190.214844 170.25 189.988281 169.910156 189.691406 169.613281 C 189.394531 169.316406 189.050781 169.089844 188.664062 168.933594 C 188.277344 168.777344 187.875 168.703125 187.453125 168.707031 Z M 187.453125 168.707031 " fill-opacity="1" fill-rule="nonzero"/></g></svg>