<?xml version="1.0" encoding="UTF-8"?><svg id="Calque_1" xmlns="http://www.w3.org/2000/svg" xmlns:xlink="http://www.w3.org/1999/xlink" viewBox="0 0 47 47"><defs><style>.cls-1{fill:#468371;}.cls-2{clip-path:url(#clippath-1);}.cls-3{clip-path:url(#clippath);}.cls-4{fill:none;}.cls-5{fill:#f1b668;}</style><clipPath id="clippath"><rect class="cls-4" x="2.05" y="2.05" width="43.01" height="43.01"/></clipPath><clipPath id="clippath-1"><rect class="cls-4" x="1" y="1" width="45" height="45"/></clipPath></defs><g class="cls-3"><path class="cls-5" d="m22.6,22.3h1.91c6.05,0,10.99,4.95,10.99,10.99,0,1.72-1.4,3.12-3.12,3.12H14.75c-1.73,0-3.14-1.41-3.14-3.14,0-6.04,4.94-10.98,10.98-10.98Zm.96-18.3C12.75,4,4,12.75,4,23.56s8.76,19.56,19.56,19.56,19.56-8.76,19.56-19.56S34.36,4,23.56,4Zm0-1.95c11.88,0,21.51,9.63,21.51,21.51s-9.63,21.51-21.51,21.51S2.05,35.43,2.05,23.56,11.68,2.05,23.56,2.05Zm0,6.35c3.62,0,6.55,2.93,6.55,6.55s-2.93,6.55-6.55,6.55-6.55-2.93-6.55-6.55,2.93-6.55,6.55-6.55"/></g><g class="cls-2"><path class="cls-1" d="m23.5,1C11.07,1,1,11.07,1,23.5s10.07,22.5,22.5,22.5,22.5-10.07,22.5-22.5S35.93,1,23.5,1Zm0,40.5c-9.95,0-18-8.05-18-18S13.55,5.5,23.5,5.5s18,8.05,18,18-8.05,18-18,18Z"/></g></svg>