<svg xmlns="http://www.w3.org/2000/svg" xmlns:xlink="http://www.w3.org/1999/xlink" width="500" zoomAndPan="magnify"
  viewBox="0 0 375 374.999991" height="500" preserveAspectRatio="xMidYMid meet" version="1.0">
  <defs>
    <clipPath id="1026404cb9">
      <path d="M 32.8125 0 L 212 0 L 212 160 L 32.8125 160 Z M 32.8125 0 " clip-rule="nonzero" />
    </clipPath>
    <clipPath id="540cc5862b">
      <path d="M 211 5 L 342.5625 5 L 342.5625 291 L 211 291 Z M 211 5 " clip-rule="nonzero" />
    </clipPath>
  </defs>
  <g clip-path="url(#1026404cb9)">
    <path fill="#d29e5b"
      d="M 180.039062 126.640625 C 199.417969 114.886719 211.515625 93.835938 211.515625 70.71875 L 211.515625 63.589844 L 168.269531 71.4375 C 164.628906 72.097656 161.085938 73.078125 157.636719 74.335938 C 157.765625 72.734375 157.902344 71.140625 157.902344 69.527344 C 157.902344 57.382812 154.167969 45.742188 147.097656 35.859375 L 122.164062 0.984375 L 97.230469 35.851562 C 90.15625 45.734375 86.421875 57.378906 86.421875 69.527344 C 86.421875 71.144531 86.558594 72.738281 86.691406 74.335938 C 83.242188 73.085938 79.699219 72.101562 76.058594 71.441406 L 32.8125 63.582031 L 32.8125 70.710938 C 32.8125 93.832031 44.910156 114.886719 64.289062 126.636719 C 57.355469 133.589844 52.488281 142.683594 50.765625 153.027344 L 49.609375 159.953125 L 86.421875 159.953125 C 101.601562 159.953125 114.867188 151.785156 122.164062 139.648438 C 129.460938 151.785156 142.726562 159.953125 157.902344 159.953125 L 194.722656 159.953125 L 193.566406 153.027344 C 191.839844 142.6875 186.972656 133.597656 180.039062 126.640625 Z M 170.402344 83.144531 L 199.117188 77.933594 C 196.734375 95.527344 185.699219 110.785156 169.566406 118.695312 C 162.4375 114.660156 154.222656 112.363281 145.496094 112.363281 L 138.824219 112.363281 C 146.066406 105.800781 151.511719 97.710938 154.664062 88.695312 C 159.601562 86.042969 164.875 84.152344 170.402344 83.144531 Z M 106.921875 42.765625 L 122.164062 21.453125 L 137.40625 42.765625 C 143.023438 50.625 145.992188 59.871094 145.992188 69.527344 C 145.992188 83.585938 139.683594 96.6875 128.691406 105.480469 L 122.164062 110.691406 L 115.636719 105.480469 C 104.644531 96.6875 98.335938 83.585938 98.335938 69.527344 C 98.335938 59.871094 101.304688 50.625 106.921875 42.765625 Z M 45.207031 77.933594 L 73.925781 83.152344 C 79.453125 84.15625 84.726562 86.042969 89.664062 88.695312 C 92.816406 97.710938 98.257812 105.800781 105.503906 112.363281 L 98.832031 112.363281 C 90.105469 112.363281 81.890625 114.660156 74.761719 118.695312 C 58.628906 110.785156 47.589844 95.527344 45.207031 77.933594 Z M 86.421875 148.0625 L 64.371094 148.0625 C 69.667969 133.929688 83.199219 124.261719 98.832031 124.261719 L 115.605469 124.261719 C 112.839844 137.820312 100.808594 148.0625 86.421875 148.0625 Z M 157.902344 148.0625 C 143.519531 148.0625 131.484375 137.820312 128.722656 124.261719 L 145.496094 124.261719 C 161.125 124.261719 174.660156 133.929688 179.957031 148.0625 Z M 157.902344 148.0625 "
      fill-opacity="1" fill-rule="nonzero" />
  </g>
  <path fill="#3d7661"
    d="M 178.449219 217.132812 C 183.929688 214.082031 187.6875 208.304688 187.6875 201.605469 L 187.6875 189.707031 C 187.6875 179.867188 179.667969 171.859375 169.816406 171.859375 L 74.507812 171.859375 C 64.65625 171.859375 56.640625 179.867188 56.640625 189.707031 L 56.640625 201.605469 C 56.640625 208.3125 60.398438 214.089844 65.882812 217.140625 C 56.359375 225 50.683594 236.816406 50.683594 249.203125 L 50.683594 344.394531 C 50.683594 360.796875 64.042969 374.140625 80.464844 374.140625 L 163.859375 374.140625 C 180.285156 374.140625 193.644531 360.796875 193.644531 344.394531 L 193.644531 249.203125 C 193.644531 236.808594 187.96875 225 178.449219 217.132812 Z M 68.554688 189.707031 C 68.554688 186.421875 71.222656 183.757812 74.507812 183.757812 L 169.816406 183.757812 C 173.105469 183.757812 175.773438 186.421875 175.773438 189.707031 L 175.773438 201.605469 C 175.773438 204.890625 173.105469 207.554688 169.816406 207.554688 L 74.507812 207.554688 C 71.222656 207.554688 68.554688 204.890625 68.554688 201.605469 Z M 181.730469 344.394531 C 181.730469 354.234375 173.714844 362.242188 163.859375 362.242188 L 80.464844 362.242188 C 70.613281 362.242188 62.597656 354.234375 62.597656 344.394531 L 62.597656 249.203125 C 62.597656 239.890625 67.050781 230.992188 74.515625 225.40625 L 82.457031 219.453125 L 161.878906 219.453125 L 169.824219 225.40625 C 177.28125 230.992188 181.738281 239.890625 181.738281 249.203125 L 181.738281 344.394531 Z M 181.730469 344.394531 "
    fill-opacity="1" fill-rule="nonzero" />
  <path fill="#3d7661"
    d="M 157.902344 332.496094 C 157.902344 335.78125 155.234375 338.445312 151.945312 338.445312 L 92.378906 338.445312 C 89.089844 338.445312 86.421875 335.78125 86.421875 332.496094 L 86.421875 243.253906 L 74.507812 243.253906 L 74.507812 332.496094 C 74.507812 342.335938 82.527344 350.34375 92.378906 350.34375 L 151.945312 350.34375 C 161.800781 350.34375 169.816406 342.335938 169.816406 332.496094 L 169.816406 243.253906 L 157.902344 243.253906 Z M 157.902344 332.496094 "
    fill-opacity="1" fill-rule="nonzero" />
  <path fill="#3d7661"
    d="M 116.207031 326.546875 C 126.058594 326.546875 134.078125 318.539062 134.078125 308.699219 C 134.078125 298.855469 126.058594 290.847656 116.207031 290.847656 C 106.355469 290.847656 98.335938 298.855469 98.335938 308.699219 C 98.335938 318.539062 106.355469 326.546875 116.207031 326.546875 Z M 116.207031 302.75 C 119.496094 302.75 122.164062 305.414062 122.164062 308.699219 C 122.164062 311.980469 119.496094 314.648438 116.207031 314.648438 C 112.917969 314.648438 110.25 311.980469 110.25 308.699219 C 110.25 305.414062 112.917969 302.75 116.207031 302.75 Z M 116.207031 302.75 "
    fill-opacity="1" fill-rule="nonzero" />
  <path fill="#3d7661"
    d="M 128.121094 278.949219 C 137.972656 278.949219 145.992188 270.941406 145.992188 261.101562 C 145.992188 251.261719 137.972656 243.253906 128.121094 243.253906 C 118.269531 243.253906 110.25 251.261719 110.25 261.101562 C 110.25 270.941406 118.269531 278.949219 128.121094 278.949219 Z M 128.121094 255.152344 C 131.410156 255.152344 134.078125 257.816406 134.078125 261.101562 C 134.078125 264.386719 131.410156 267.050781 128.121094 267.050781 C 124.832031 267.050781 122.164062 264.386719 122.164062 261.101562 C 122.164062 257.816406 124.832031 255.152344 128.121094 255.152344 Z M 128.121094 255.152344 "
    fill-opacity="1" fill-rule="nonzero" />
  <g clip-path="url(#540cc5862b)">
    <path fill="#3d7661"
      d="M 324.691406 88.566406 L 318.734375 88.566406 L 318.734375 46.917969 C 318.734375 23.960938 300.027344 5.273438 277.039062 5.273438 C 254.050781 5.273438 235.339844 23.960938 235.339844 46.917969 L 235.339844 88.566406 L 229.382812 88.566406 C 219.53125 88.566406 211.515625 96.574219 211.515625 106.414062 L 211.515625 118.3125 C 211.515625 128.152344 219.53125 136.160156 229.382812 136.160156 L 247.253906 136.160156 L 247.253906 247.796875 C 247.253906 254.605469 251.042969 260.722656 257.132812 263.765625 L 259.167969 264.777344 L 259.167969 273 C 259.167969 282.839844 267.1875 290.847656 277.039062 290.847656 C 286.890625 290.847656 294.910156 282.839844 294.910156 273 L 294.910156 264.777344 L 296.945312 263.761719 C 303.035156 260.714844 306.820312 254.597656 306.820312 247.792969 L 306.820312 136.160156 L 324.691406 136.160156 C 334.542969 136.160156 342.5625 128.152344 342.5625 118.3125 L 342.5625 106.414062 C 342.5625 96.566406 334.542969 88.566406 324.691406 88.566406 Z M 247.253906 46.917969 C 247.253906 30.515625 260.617188 17.171875 277.039062 17.171875 C 293.460938 17.171875 306.820312 30.515625 306.820312 46.917969 L 306.820312 88.566406 L 247.253906 88.566406 Z M 294.910156 247.792969 C 294.910156 250.066406 293.644531 252.105469 291.613281 253.117188 L 282.996094 257.425781 L 282.996094 273 C 282.996094 276.285156 280.328125 278.949219 277.039062 278.949219 C 273.75 278.949219 271.082031 276.285156 271.082031 273 L 271.082031 257.425781 L 262.460938 253.117188 C 260.429688 252.105469 259.167969 250.066406 259.167969 247.792969 L 259.167969 136.160156 L 294.910156 136.160156 Z M 330.648438 118.3125 C 330.648438 121.597656 327.980469 124.261719 324.691406 124.261719 L 229.382812 124.261719 C 226.097656 124.261719 223.429688 121.597656 223.429688 118.3125 L 223.429688 106.414062 C 223.429688 103.128906 226.097656 100.464844 229.382812 100.464844 L 324.691406 100.464844 C 327.980469 100.464844 330.648438 103.128906 330.648438 106.414062 Z M 330.648438 118.3125 "
      fill-opacity="1" fill-rule="nonzero" />
  </g>
  <path fill="#3d7661"
    d="M 277.039062 302.75 C 258.851562 302.75 247.253906 330.097656 247.253906 344.394531 C 247.253906 360.796875 260.617188 374.140625 277.039062 374.140625 C 293.460938 374.140625 306.820312 360.796875 306.820312 344.394531 C 306.820312 330.09375 295.222656 302.75 277.039062 302.75 Z M 277.039062 362.242188 C 267.1875 362.242188 259.167969 354.234375 259.167969 344.394531 C 259.167969 332.644531 268.753906 314.648438 277.039062 314.648438 C 285.324219 314.648438 294.910156 332.644531 294.910156 344.394531 C 294.910156 354.234375 286.890625 362.242188 277.039062 362.242188 Z M 277.039062 362.242188 "
    fill-opacity="1" fill-rule="nonzero" />
</svg>