<svg xmlns="http://www.w3.org/2000/svg" xmlns:xlink="http://www.w3.org/1999/xlink" width="500" zoomAndPan="magnify"
  viewBox="0 0 375 374.999991" height="500" preserveAspectRatio="xMidYMid meet" version="1.0">
  <defs>
    <clipPath id="6271e46a81">
      <path
        d="M 311.148438 137.234375 L 374.882812 137.234375 L 374.882812 204.78125 L 311.148438 204.78125 Z M 311.148438 137.234375 "
        clip-rule="nonzero" />
    </clipPath>
    <clipPath id="e0ad0d950b">
      <path d="M 103 51.09375 L 272.289062 51.09375 L 272.289062 324.09375 L 103 324.09375 Z M 103 51.09375 "
        clip-rule="nonzero" />
    </clipPath>
  </defs>
  <g clip-path="url(#6271e46a81)">
    <path fill="#d29e5b"
      d="M 370.238281 166.367188 L 326.101562 166.367188 L 344.867188 144.980469 C 346.558594 143.050781 346.367188 140.117188 344.441406 138.421875 C 342.511719 136.726562 339.578125 136.917969 337.886719 138.847656 L 312.351562 167.949219 C 312.335938 167.964844 312.320312 167.984375 312.304688 168.003906 C 312.28125 168.03125 312.257812 168.058594 312.234375 168.089844 C 312.210938 168.117188 312.1875 168.144531 312.167969 168.171875 C 312.144531 168.203125 312.121094 168.230469 312.097656 168.261719 C 312.078125 168.292969 312.058594 168.320312 312.039062 168.351562 C 312.015625 168.378906 311.996094 168.410156 311.972656 168.441406 C 311.953125 168.472656 311.933594 168.5 311.917969 168.53125 C 311.894531 168.5625 311.875 168.59375 311.855469 168.628906 C 311.839844 168.65625 311.824219 168.683594 311.808594 168.710938 C 311.785156 168.75 311.765625 168.78125 311.75 168.816406 C 311.734375 168.84375 311.722656 168.867188 311.710938 168.890625 C 311.6875 168.933594 311.667969 168.972656 311.648438 169.015625 C 311.644531 169.019531 311.644531 169.023438 311.644531 169.027344 C 311.558594 169.203125 311.488281 169.382812 311.425781 169.570312 C 311.421875 169.582031 311.417969 169.589844 311.417969 169.601562 C 311.402344 169.652344 311.386719 169.703125 311.371094 169.753906 C 311.367188 169.773438 311.359375 169.789062 311.355469 169.808594 C 311.34375 169.855469 311.332031 169.902344 311.320312 169.953125 C 311.316406 169.972656 311.308594 169.996094 311.304688 170.019531 C 311.292969 170.066406 311.285156 170.109375 311.277344 170.15625 C 311.273438 170.183594 311.269531 170.210938 311.261719 170.238281 C 311.257812 170.28125 311.25 170.320312 311.242188 170.363281 C 311.238281 170.398438 311.234375 170.429688 311.230469 170.460938 C 311.226562 170.5 311.222656 170.539062 311.21875 170.578125 C 311.214844 170.617188 311.210938 170.660156 311.210938 170.699219 C 311.207031 170.730469 311.203125 170.761719 311.203125 170.792969 C 311.199219 170.863281 311.195312 170.933594 311.195312 171.003906 C 311.195312 171.007812 311.195312 171.011719 311.195312 171.015625 C 311.195312 171.019531 311.195312 171.023438 311.195312 171.027344 C 311.195312 171.097656 311.199219 171.164062 311.203125 171.234375 C 311.203125 171.265625 311.207031 171.296875 311.210938 171.328125 C 311.210938 171.371094 311.214844 171.410156 311.21875 171.453125 C 311.222656 171.492188 311.226562 171.527344 311.230469 171.566406 C 311.234375 171.601562 311.238281 171.632812 311.242188 171.664062 C 311.25 171.707031 311.257812 171.75 311.261719 171.792969 C 311.269531 171.820312 311.273438 171.847656 311.277344 171.875 C 311.285156 171.917969 311.292969 171.964844 311.304688 172.007812 C 311.308594 172.03125 311.316406 172.054688 311.320312 172.078125 C 311.332031 172.125 311.34375 172.175781 311.355469 172.222656 C 311.359375 172.238281 311.367188 172.257812 311.371094 172.277344 C 311.386719 172.328125 311.402344 172.378906 311.417969 172.429688 C 311.417969 172.441406 311.425781 172.449219 311.425781 172.460938 C 311.488281 172.644531 311.558594 172.824219 311.640625 172.996094 C 311.644531 173.003906 311.644531 173.007812 311.648438 173.015625 C 311.667969 173.054688 311.6875 173.097656 311.710938 173.136719 C 311.722656 173.160156 311.734375 173.1875 311.75 173.210938 C 311.765625 173.246094 311.785156 173.28125 311.808594 173.316406 C 311.824219 173.34375 311.839844 173.375 311.855469 173.402344 C 311.875 173.433594 311.894531 173.464844 311.917969 173.5 C 311.933594 173.527344 311.953125 173.558594 311.972656 173.589844 C 311.996094 173.617188 312.015625 173.648438 312.039062 173.679688 C 312.058594 173.707031 312.078125 173.738281 312.097656 173.765625 C 312.121094 173.796875 312.144531 173.828125 312.167969 173.855469 C 312.1875 173.886719 312.210938 173.914062 312.234375 173.941406 C 312.257812 173.96875 312.28125 174 312.304688 174.027344 C 312.320312 174.042969 312.335938 174.0625 312.351562 174.082031 L 337.886719 203.179688 C 338.804688 204.226562 340.089844 204.761719 341.378906 204.761719 C 342.464844 204.761719 343.558594 204.382812 344.441406 203.605469 C 346.367188 201.914062 346.558594 198.976562 344.867188 197.046875 L 326.101562 175.664062 L 370.238281 175.664062 C 372.804688 175.664062 374.882812 173.582031 374.882812 171.015625 C 374.882812 168.449219 372.804688 166.367188 370.238281 166.367188 "
      fill-opacity="1" fill-rule="nonzero" />
  </g>
  <path fill="#d29e5b"
    d="M 62.828125 177.804688 C 62.847656 177.773438 62.871094 177.746094 62.894531 177.714844 C 62.914062 177.683594 62.9375 177.65625 62.957031 177.625 C 62.976562 177.59375 63 177.566406 63.019531 177.535156 C 63.039062 177.503906 63.058594 177.472656 63.078125 177.445312 C 63.097656 177.414062 63.117188 177.382812 63.136719 177.351562 C 63.15625 177.320312 63.171875 177.289062 63.1875 177.257812 C 63.207031 177.226562 63.226562 177.191406 63.246094 177.160156 C 63.261719 177.132812 63.273438 177.105469 63.285156 177.078125 C 63.308594 177.039062 63.328125 177 63.34375 176.964844 C 63.351562 176.953125 63.355469 176.941406 63.359375 176.933594 C 63.4375 176.765625 63.507812 176.59375 63.5625 176.414062 C 63.570312 176.402344 63.574219 176.386719 63.578125 176.375 C 63.59375 176.328125 63.605469 176.277344 63.621094 176.226562 C 63.625 176.207031 63.632812 176.1875 63.636719 176.167969 C 63.648438 176.121094 63.660156 176.074219 63.671875 176.027344 C 63.679688 176.003906 63.683594 175.980469 63.691406 175.953125 C 63.699219 175.910156 63.707031 175.867188 63.714844 175.824219 C 63.722656 175.792969 63.726562 175.765625 63.730469 175.738281 C 63.738281 175.695312 63.746094 175.65625 63.75 175.613281 C 63.753906 175.582031 63.757812 175.546875 63.765625 175.511719 C 63.765625 175.472656 63.773438 175.4375 63.777344 175.402344 C 63.78125 175.359375 63.78125 175.3125 63.785156 175.269531 C 63.789062 175.242188 63.789062 175.210938 63.792969 175.183594 C 63.796875 175.035156 63.796875 174.886719 63.792969 174.738281 C 63.789062 174.710938 63.789062 174.683594 63.785156 174.652344 C 63.78125 174.609375 63.78125 174.566406 63.777344 174.523438 C 63.773438 174.484375 63.765625 174.449219 63.765625 174.414062 C 63.757812 174.378906 63.753906 174.34375 63.75 174.308594 C 63.746094 174.269531 63.738281 174.226562 63.730469 174.1875 C 63.726562 174.15625 63.722656 174.128906 63.714844 174.101562 C 63.707031 174.054688 63.699219 174.011719 63.691406 173.96875 C 63.683594 173.945312 63.679688 173.917969 63.671875 173.894531 C 63.660156 173.847656 63.648438 173.800781 63.636719 173.753906 C 63.632812 173.734375 63.628906 173.71875 63.621094 173.699219 C 63.605469 173.648438 63.59375 173.597656 63.578125 173.546875 C 63.574219 173.535156 63.570312 173.523438 63.566406 173.511719 C 63.503906 173.332031 63.4375 173.15625 63.355469 172.984375 C 63.351562 172.976562 63.347656 172.96875 63.34375 172.960938 C 63.324219 172.921875 63.304688 172.882812 63.285156 172.84375 C 63.273438 172.816406 63.257812 172.789062 63.246094 172.765625 C 63.226562 172.730469 63.207031 172.695312 63.1875 172.664062 C 63.171875 172.632812 63.15625 172.601562 63.136719 172.574219 C 63.117188 172.542969 63.097656 172.511719 63.078125 172.480469 C 63.058594 172.449219 63.039062 172.417969 63.019531 172.386719 C 63 172.359375 62.976562 172.328125 62.957031 172.296875 C 62.9375 172.269531 62.914062 172.238281 62.894531 172.210938 C 62.871094 172.179688 62.847656 172.148438 62.828125 172.121094 C 62.804688 172.09375 62.78125 172.0625 62.761719 172.035156 C 62.738281 172.007812 62.710938 171.976562 62.6875 171.949219 C 62.671875 171.933594 62.660156 171.914062 62.644531 171.894531 L 37.109375 142.792969 C 35.414062 140.867188 32.480469 140.675781 30.554688 142.367188 C 28.625 144.0625 28.433594 147 30.128906 148.929688 L 48.894531 170.3125 L 4.753906 170.3125 C 2.191406 170.3125 0.109375 172.394531 0.109375 174.960938 C 0.109375 177.527344 2.191406 179.609375 4.753906 179.609375 L 48.894531 179.609375 L 30.128906 200.996094 C 28.433594 202.925781 28.625 205.859375 30.554688 207.554688 C 31.433594 208.328125 32.527344 208.707031 33.617188 208.707031 C 34.90625 208.707031 36.191406 208.175781 37.109375 207.128906 L 62.644531 178.027344 C 62.660156 178.011719 62.671875 177.992188 62.6875 177.972656 C 62.710938 177.945312 62.738281 177.917969 62.761719 177.886719 C 62.78125 177.859375 62.804688 177.832031 62.828125 177.804688 "
    fill-opacity="1" fill-rule="nonzero" />
  <path fill="#3d7661"
    d="M 99.890625 59.828125 C 100.242188 62.125 102.222656 63.769531 104.476562 63.769531 C 104.710938 63.769531 104.949219 63.753906 105.1875 63.714844 C 107.722656 63.328125 109.460938 60.953125 109.074219 58.417969 C 109.035156 58.160156 108.992188 57.898438 108.953125 57.640625 C 108.558594 55.105469 106.183594 53.371094 103.648438 53.765625 C 101.113281 54.160156 99.378906 56.535156 99.773438 59.074219 C 99.8125 59.324219 99.851562 59.574219 99.890625 59.828125 "
    fill-opacity="1" fill-rule="nonzero" />
  <path fill="#3d7661"
    d="M 93.3125 177.40625 C 93.871094 177.625 94.445312 177.726562 95.011719 177.726562 C 96.863281 177.726562 98.617188 176.609375 99.335938 174.777344 C 99.53125 174.277344 99.726562 173.773438 99.921875 173.269531 C 100.847656 170.875 99.660156 168.183594 97.265625 167.257812 C 94.875 166.332031 92.183594 167.519531 91.257812 169.914062 C 91.070312 170.40625 90.878906 170.894531 90.6875 171.378906 C 89.75 173.769531 90.925781 176.46875 93.3125 177.40625 "
    fill-opacity="1" fill-rule="nonzero" />
  <path fill="#3d7661"
    d="M 85.960938 195.265625 C 86.535156 195.496094 87.125 195.605469 87.703125 195.605469 C 89.539062 195.605469 91.28125 194.507812 92.011719 192.699219 C 92.207031 192.210938 92.40625 191.71875 92.609375 191.230469 C 93.578125 188.855469 92.441406 186.140625 90.066406 185.167969 C 87.691406 184.199219 84.980469 185.339844 84.007812 187.714844 C 83.804688 188.214844 83.601562 188.710938 83.398438 189.210938 C 82.4375 191.589844 83.585938 194.300781 85.960938 195.265625 "
    fill-opacity="1" fill-rule="nonzero" />
  <path fill="#3d7661"
    d="M 77.019531 232.664062 C 77.183594 232.679688 77.34375 232.6875 77.503906 232.6875 C 79.855469 232.6875 81.871094 230.910156 82.121094 228.519531 C 82.171875 228.019531 82.226562 227.511719 82.289062 227.007812 C 82.59375 224.457031 80.773438 222.144531 78.226562 221.839844 C 75.679688 221.535156 73.371094 223.351562 73.066406 225.902344 C 73 226.453125 72.9375 227.011719 72.878906 227.558594 C 72.613281 230.113281 74.46875 232.398438 77.019531 232.664062 "
    fill-opacity="1" fill-rule="nonzero" />
  <path fill="#3d7661"
    d="M 100.023438 159.304688 C 100.460938 159.429688 100.898438 159.492188 101.332031 159.492188 C 103.339844 159.492188 105.195312 158.175781 105.785156 156.148438 C 105.9375 155.625 106.089844 155.101562 106.238281 154.570312 C 106.933594 152.101562 105.5 149.53125 103.03125 148.835938 C 100.5625 148.136719 97.996094 149.574219 97.296875 152.046875 C 97.15625 152.546875 97.015625 153.042969 96.871094 153.539062 C 96.148438 156.003906 97.5625 158.582031 100.023438 159.304688 "
    fill-opacity="1" fill-rule="nonzero" />
  <path fill="#3d7661"
    d="M 79.945312 213.597656 C 80.375 213.722656 80.808594 213.78125 81.238281 213.78125 C 83.253906 213.78125 85.109375 212.460938 85.695312 210.425781 C 85.839844 209.929688 85.984375 209.4375 86.132812 208.949219 C 86.875 206.492188 85.488281 203.898438 83.035156 203.15625 C 80.578125 202.410156 77.984375 203.800781 77.242188 206.257812 C 77.082031 206.785156 76.925781 207.3125 76.773438 207.84375 C 76.0625 210.308594 77.480469 212.886719 79.945312 213.597656 "
    fill-opacity="1" fill-rule="nonzero" />
  <path fill="#3d7661"
    d="M 107.933594 91.332031 C 105.371094 91.417969 103.363281 93.566406 103.449219 96.132812 C 103.464844 96.660156 103.480469 97.179688 103.496094 97.699219 C 103.566406 100.222656 105.628906 102.21875 108.136719 102.21875 C 108.179688 102.21875 108.222656 102.21875 108.265625 102.21875 C 110.832031 102.148438 112.851562 100.011719 112.78125 97.445312 C 112.769531 96.90625 112.75 96.367188 112.734375 95.820312 C 112.644531 93.253906 110.5 91.246094 107.933594 91.332031 "
    fill-opacity="1" fill-rule="nonzero" />
  <path fill="#3d7661"
    d="M 112.480469 117.160156 C 112.515625 116.621094 112.546875 116.074219 112.574219 115.527344 C 112.710938 112.964844 110.746094 110.773438 108.183594 110.640625 C 105.621094 110.503906 103.433594 112.472656 103.296875 115.035156 C 103.269531 115.554688 103.242188 116.074219 103.210938 116.589844 C 103.054688 119.152344 105 121.355469 107.5625 121.515625 C 107.660156 121.519531 107.753906 121.523438 107.851562 121.523438 C 110.285156 121.523438 112.332031 119.625 112.480469 117.160156 "
    fill-opacity="1" fill-rule="nonzero" />
  <path fill="#3d7661"
    d="M 101.339844 133.734375 C 101.253906 134.246094 101.171875 134.757812 101.085938 135.265625 C 100.65625 137.796875 102.355469 140.195312 104.882812 140.625 C 105.148438 140.671875 105.410156 140.695312 105.667969 140.695312 C 107.890625 140.695312 109.855469 139.089844 110.242188 136.824219 C 110.332031 136.289062 110.421875 135.75 110.511719 135.207031 C 110.917969 132.671875 109.191406 130.289062 106.660156 129.882812 C 104.128906 129.472656 101.746094 131.199219 101.339844 133.734375 "
    fill-opacity="1" fill-rule="nonzero" />
  <path fill="#3d7661"
    d="M 106.277344 72.078125 C 103.722656 72.34375 101.867188 74.625 102.128906 77.175781 C 102.183594 77.703125 102.234375 78.222656 102.285156 78.742188 C 102.519531 81.144531 104.542969 82.941406 106.902344 82.941406 C 107.054688 82.941406 107.207031 82.933594 107.359375 82.917969 C 109.914062 82.667969 111.78125 80.394531 111.53125 77.839844 C 111.480469 77.304688 111.425781 76.765625 111.371094 76.226562 C 111.109375 73.675781 108.828125 71.816406 106.277344 72.078125 "
    fill-opacity="1" fill-rule="nonzero" />
  <path fill="#3d7661"
    d="M 102.003906 299.628906 C 101.796875 299.132812 101.585938 298.640625 101.375 298.144531 C 100.363281 295.785156 97.632812 294.691406 95.277344 295.703125 C 92.917969 296.714844 91.824219 299.445312 92.835938 301.804688 C 93.039062 302.285156 93.246094 302.769531 93.449219 303.25 C 94.199219 305.023438 95.917969 306.089844 97.730469 306.089844 C 98.332031 306.089844 98.945312 305.972656 99.535156 305.722656 C 101.898438 304.722656 103.003906 301.992188 102.003906 299.628906 "
    fill-opacity="1" fill-rule="nonzero" />
  <path fill="#3d7661"
    d="M 94.167969 281.878906 C 93.953125 281.394531 93.738281 280.910156 93.523438 280.429688 C 92.484375 278.082031 89.738281 277.023438 87.394531 278.0625 C 85.050781 279.105469 83.992188 281.851562 85.03125 284.199219 C 85.25 284.6875 85.464844 285.175781 85.683594 285.664062 C 86.453125 287.394531 88.152344 288.421875 89.929688 288.421875 C 90.5625 288.421875 91.203125 288.292969 91.816406 288.015625 C 94.160156 286.972656 95.214844 284.226562 94.167969 281.878906 "
    fill-opacity="1" fill-rule="nonzero" />
  <path fill="#3d7661"
    d="M 78.199219 251.898438 C 80.738281 251.53125 82.5 249.171875 82.132812 246.632812 C 82.0625 246.144531 81.996094 245.648438 81.9375 245.167969 C 81.636719 242.617188 79.332031 240.796875 76.78125 241.097656 C 74.234375 241.402344 72.414062 243.710938 72.714844 246.261719 C 72.78125 246.820312 72.855469 247.394531 72.9375 247.960938 C 73.273438 250.277344 75.257812 251.945312 77.527344 251.945312 C 77.75 251.945312 77.972656 251.929688 78.199219 251.898438 "
    fill-opacity="1" fill-rule="nonzero" />
  <path fill="#3d7661"
    d="M 86.878906 264.332031 C 86.703125 263.847656 86.527344 263.363281 86.355469 262.878906 C 85.5 260.457031 82.847656 259.1875 80.429688 260.042969 C 78.011719 260.898438 76.742188 263.554688 77.597656 265.972656 C 77.78125 266.492188 77.964844 267.007812 78.15625 267.527344 C 78.84375 269.410156 80.621094 270.578125 82.515625 270.578125 C 83.046875 270.578125 83.585938 270.488281 84.113281 270.292969 C 86.523438 269.410156 87.761719 266.742188 86.878906 264.332031 "
    fill-opacity="1" fill-rule="nonzero" />
  <path fill="#3d7661"
    d="M 108.527344 316.675781 C 107.714844 314.242188 105.085938 312.925781 102.652344 313.738281 C 100.21875 314.546875 98.902344 317.179688 99.714844 319.617188 C 99.792969 319.855469 99.871094 320.09375 99.953125 320.332031 C 100.59375 322.289062 102.410156 323.53125 104.363281 323.53125 C 104.84375 323.53125 105.332031 323.457031 105.8125 323.296875 C 108.25 322.496094 109.578125 319.871094 108.777344 317.433594 C 108.695312 317.179688 108.609375 316.929688 108.527344 316.675781 "
    fill-opacity="1" fill-rule="nonzero" />
  <path fill="#3d7661"
    d="M 269.804688 62.691406 C 270.046875 62.730469 270.28125 62.746094 270.515625 62.746094 C 272.769531 62.746094 274.75 61.101562 275.101562 58.804688 L 275.21875 58.046875 C 275.613281 55.511719 273.878906 53.136719 271.34375 52.742188 C 268.8125 52.34375 266.433594 54.082031 266.039062 56.617188 L 265.921875 57.390625 C 265.53125 59.925781 267.269531 62.300781 269.804688 62.691406 "
    fill-opacity="1" fill-rule="nonzero" />
  <path fill="#3d7661"
    d="M 267.632812 81.894531 C 267.785156 81.910156 267.9375 81.914062 268.089844 81.914062 C 270.453125 81.914062 272.472656 80.121094 272.707031 77.71875 C 272.757812 77.199219 272.808594 76.679688 272.863281 76.15625 C 273.125 73.601562 271.269531 71.316406 268.71875 71.054688 C 266.164062 70.792969 263.886719 72.648438 263.625 75.203125 C 263.566406 75.742188 263.511719 76.28125 263.460938 76.816406 C 263.210938 79.371094 265.082031 81.644531 267.632812 81.894531 "
    fill-opacity="1" fill-rule="nonzero" />
  <path fill="#3d7661"
    d="M 267.429688 120.492188 C 269.992188 120.335938 271.941406 118.128906 271.785156 115.566406 C 271.753906 115.050781 271.722656 114.535156 271.695312 114.011719 C 271.558594 111.449219 269.375 109.480469 266.8125 109.617188 C 264.25 109.75 262.285156 111.9375 262.417969 114.503906 C 262.449219 115.050781 262.480469 115.59375 262.511719 116.132812 C 262.664062 118.601562 264.707031 120.5 267.144531 120.5 C 267.238281 120.5 267.335938 120.496094 267.429688 120.492188 "
    fill-opacity="1" fill-rule="nonzero" />
  <path fill="#3d7661"
    d="M 288.859375 207.925781 C 289.007812 208.414062 289.15625 208.90625 289.296875 209.398438 C 289.886719 211.4375 291.742188 212.757812 293.757812 212.757812 C 294.183594 212.757812 294.617188 212.699219 295.050781 212.574219 C 297.511719 211.863281 298.933594 209.285156 298.222656 206.816406 C 298.066406 206.289062 297.910156 205.757812 297.75 205.234375 C 297.007812 202.777344 294.414062 201.386719 291.960938 202.128906 C 289.507812 202.875 288.117188 205.46875 288.859375 207.925781 "
    fill-opacity="1" fill-rule="nonzero" />
  <path fill="#3d7661"
    d="M 271.964844 147.8125 C 269.492188 148.511719 268.058594 151.078125 268.753906 153.546875 C 268.902344 154.078125 269.054688 154.601562 269.207031 155.125 C 269.800781 157.152344 271.652344 158.46875 273.664062 158.46875 C 274.09375 158.46875 274.535156 158.40625 274.96875 158.28125 C 277.429688 157.558594 278.84375 154.976562 278.125 152.515625 C 277.980469 152.019531 277.835938 151.519531 277.695312 151.019531 C 277 148.550781 274.429688 147.113281 271.964844 147.8125 "
    fill-opacity="1" fill-rule="nonzero" />
  <path fill="#3d7661"
    d="M 275.070312 172.246094 C 275.265625 172.75 275.460938 173.253906 275.660156 173.753906 C 276.378906 175.585938 278.128906 176.703125 279.984375 176.703125 C 280.546875 176.703125 281.121094 176.601562 281.679688 176.382812 C 284.066406 175.441406 285.242188 172.746094 284.304688 170.355469 C 284.113281 169.871094 283.921875 169.382812 283.734375 168.890625 C 282.808594 166.496094 280.117188 165.304688 277.726562 166.234375 C 275.335938 167.160156 274.144531 169.851562 275.070312 172.246094 "
    fill-opacity="1" fill-rule="nonzero" />
  <path fill="#3d7661"
    d="M 282.386719 190.207031 C 282.585938 190.695312 282.785156 191.1875 282.980469 191.675781 C 283.714844 193.484375 285.453125 194.582031 287.289062 194.582031 C 287.871094 194.582031 288.460938 194.472656 289.027344 194.242188 C 291.40625 193.277344 292.554688 190.570312 291.59375 188.1875 C 291.390625 187.691406 291.1875 187.191406 290.984375 186.691406 C 290.015625 184.3125 287.300781 183.175781 284.929688 184.144531 C 282.554688 185.117188 281.414062 187.832031 282.386719 190.207031 "
    fill-opacity="1" fill-rule="nonzero" />
  <path fill="#3d7661"
    d="M 264.75 135.800781 C 265.136719 138.066406 267.101562 139.667969 269.324219 139.667969 C 269.582031 139.667969 269.84375 139.648438 270.109375 139.601562 C 272.636719 139.171875 274.339844 136.773438 273.910156 134.242188 C 273.824219 133.734375 273.738281 133.222656 273.65625 132.707031 C 273.25 130.175781 270.867188 128.449219 268.335938 128.855469 C 265.800781 129.261719 264.078125 131.648438 264.484375 134.183594 C 264.570312 134.726562 264.660156 135.265625 264.75 135.800781 "
    fill-opacity="1" fill-rule="nonzero" />
  <path fill="#3d7661"
    d="M 279.71875 294.679688 C 277.359375 293.667969 274.628906 294.761719 273.621094 297.121094 C 273.410156 297.613281 273.199219 298.109375 272.988281 298.605469 C 271.988281 300.96875 273.09375 303.695312 275.457031 304.695312 C 276.046875 304.949219 276.660156 305.066406 277.265625 305.066406 C 279.074219 305.066406 280.792969 304 281.542969 302.226562 C 281.75 301.742188 281.953125 301.261719 282.160156 300.78125 C 283.167969 298.421875 282.074219 295.6875 279.71875 294.679688 "
    fill-opacity="1" fill-rule="nonzero" />
  <path fill="#3d7661"
    d="M 296.765625 220.816406 C 294.21875 221.117188 292.402344 223.433594 292.703125 225.980469 C 292.765625 226.484375 292.824219 226.992188 292.875 227.496094 C 293.121094 229.886719 295.136719 231.664062 297.488281 231.664062 C 297.648438 231.664062 297.8125 231.65625 297.976562 231.636719 C 300.527344 231.375 302.378906 229.089844 302.113281 226.535156 C 302.054688 225.984375 301.996094 225.425781 301.929688 224.878906 C 301.625 222.328125 299.3125 220.511719 296.765625 220.816406 "
    fill-opacity="1" fill-rule="nonzero" />
  <path fill="#3d7661"
    d="M 266.726562 101.195312 C 266.769531 101.195312 266.8125 101.195312 266.859375 101.195312 C 269.363281 101.195312 271.429688 99.199219 271.496094 96.679688 C 271.511719 96.15625 271.527344 95.632812 271.546875 95.109375 C 271.632812 92.542969 269.625 90.394531 267.058594 90.308594 C 264.496094 90.21875 262.347656 92.230469 262.261719 94.796875 C 262.242188 95.339844 262.226562 95.882812 262.210938 96.417969 C 262.140625 98.984375 264.160156 101.125 266.726562 101.195312 "
    fill-opacity="1" fill-rule="nonzero" />
  <path fill="#3d7661"
    d="M 287.597656 277.039062 C 285.253906 276 282.507812 277.058594 281.46875 279.402344 C 281.257812 279.886719 281.039062 280.371094 280.824219 280.855469 C 279.78125 283.199219 280.832031 285.945312 283.175781 286.992188 C 283.789062 287.265625 284.433594 287.398438 285.0625 287.398438 C 286.839844 287.398438 288.539062 286.371094 289.308594 284.640625 C 289.527344 284.148438 289.746094 283.660156 289.960938 283.171875 C 291.003906 280.828125 289.941406 278.082031 287.597656 277.039062 "
    fill-opacity="1" fill-rule="nonzero" />
  <path fill="#3d7661"
    d="M 298.214844 240.074219 C 295.667969 239.773438 293.355469 241.59375 293.054688 244.144531 C 292.996094 244.625 292.933594 245.117188 292.859375 245.609375 C 292.496094 248.152344 294.257812 250.507812 296.796875 250.871094 C 297.019531 250.90625 297.246094 250.921875 297.464844 250.921875 C 299.738281 250.921875 301.722656 249.25 302.054688 246.9375 C 302.136719 246.367188 302.210938 245.796875 302.277344 245.238281 C 302.582031 242.6875 300.761719 240.375 298.214844 240.074219 "
    fill-opacity="1" fill-rule="nonzero" />
  <path fill="#3d7661"
    d="M 294.5625 259.019531 C 292.144531 258.164062 289.492188 259.433594 288.636719 261.855469 C 288.464844 262.335938 288.292969 262.824219 288.113281 263.308594 C 287.234375 265.71875 288.472656 268.386719 290.882812 269.269531 C 291.40625 269.460938 291.945312 269.554688 292.476562 269.554688 C 294.371094 269.554688 296.148438 268.386719 296.839844 266.503906 C 297.027344 265.984375 297.214844 265.46875 297.394531 264.949219 C 298.25 262.53125 296.984375 259.875 294.5625 259.019531 "
    fill-opacity="1" fill-rule="nonzero" />
  <path fill="#3d7661"
    d="M 272.34375 312.714844 C 269.910156 311.902344 267.277344 313.21875 266.46875 315.652344 C 266.382812 315.902344 266.300781 316.15625 266.21875 316.40625 C 265.414062 318.847656 266.742188 321.472656 269.179688 322.273438 C 269.660156 322.433594 270.152344 322.507812 270.628906 322.507812 C 272.582031 322.507812 274.398438 321.265625 275.042969 319.308594 C 275.121094 319.070312 275.199219 318.832031 275.28125 318.59375 C 276.089844 316.15625 274.777344 313.527344 272.34375 312.714844 "
    fill-opacity="1" fill-rule="nonzero" />
  <g clip-path="url(#e0ad0d950b)">
    <path fill="#3d7661"
      d="M 200.957031 274.953125 C 200.492188 271.023438 200.050781 266.847656 199.613281 262.15625 C 199.609375 262.117188 199.605469 262.074219 199.597656 262.03125 C 199.277344 256.234375 194.085938 258.085938 187.65625 258.085938 C 181.222656 258.085938 175.875 256.234375 175.554688 262.03125 C 175.550781 262.054688 175.546875 262.082031 175.542969 262.105469 C 175.058594 266.753906 174.609375 270.929688 174.148438 274.953125 L 113.761719 274.953125 C 112.097656 265.859375 111.679688 255.171875 113.523438 240.789062 C 115.402344 226.320312 120.382812 215.859375 126.226562 204.058594 L 250.359375 204.058594 C 255.484375 215.3125 259.800781 225.582031 261.628906 239.648438 C 263.535156 254.550781 263.269531 265.597656 261.792969 274.953125 Z M 270.839844 238.457031 C 268.660156 221.679688 263.167969 209.703125 257.355469 197.019531 C 250.96875 183.089844 244.363281 168.683594 240.488281 145.320312 C 237.28125 124.652344 242.058594 102.050781 246.632812 86.726562 C 251.652344 69.910156 257.542969 57.925781 257.601562 57.804688 C 258.738281 55.507812 257.800781 52.71875 255.503906 51.578125 C 253.203125 50.4375 250.417969 51.378906 249.277344 53.679688 C 249.027344 54.1875 243.035156 66.363281 237.785156 83.894531 C 234.695312 94.210938 232.511719 104.246094 231.292969 113.722656 C 229.753906 125.6875 229.761719 136.808594 231.3125 146.777344 C 231.316406 146.792969 231.316406 146.808594 231.320312 146.824219 C 234.808594 167.867188 240.566406 182.363281 246.121094 194.761719 L 130.785156 194.761719 C 136.582031 182.621094 142.433594 168.347656 145.816406 147.957031 C 145.820312 147.941406 145.820312 147.925781 145.824219 147.910156 C 147.375 137.941406 147.378906 126.820312 145.84375 114.855469 C 144.625 105.378906 142.441406 95.34375 139.351562 85.027344 C 134.101562 67.496094 128.109375 55.320312 127.855469 54.808594 C 126.71875 52.511719 123.929688 51.570312 121.632812 52.710938 C 119.335938 53.851562 118.394531 56.640625 119.535156 58.9375 C 119.59375 59.058594 125.425781 70.910156 130.453125 87.695312 C 135.054688 103.0625 139.863281 125.730469 136.648438 146.457031 C 132.742188 170.003906 125.566406 184.476562 118.625 198.46875 C 112.375 211.078125 106.46875 222.988281 104.3125 239.597656 C 102.480469 253.902344 102.609375 265.816406 104.726562 277.089844 C 106.601562 287.105469 109.875 295.410156 113.035156 303.445312 C 115.175781 308.875 117.382812 314.488281 119.242188 320.769531 C 119.839844 322.789062 121.691406 324.097656 123.695312 324.097656 C 124.128906 324.097656 124.574219 324.035156 125.015625 323.90625 C 127.472656 323.175781 128.878906 320.589844 128.148438 318.128906 C 126.175781 311.460938 123.890625 305.652344 121.679688 300.039062 C 119.59375 294.742188 117.601562 289.679688 115.992188 284.246094 L 173.007812 284.246094 C 171.765625 293.769531 170.203125 303.792969 167.59375 318.644531 C 167.148438 321.171875 168.835938 323.582031 171.359375 324.027344 C 171.632812 324.074219 171.90625 324.097656 172.171875 324.097656 C 174.386719 324.097656 176.34375 322.511719 176.742188 320.253906 C 181.308594 294.289062 182.628906 288.109375 184.664062 268.695312 C 184.722656 268.402344 184.753906 268.097656 184.753906 267.789062 C 184.753906 267.007812 186.035156 267.847656 187.582031 267.847656 C 189.128906 267.847656 190.25 267.007812 190.25 267.789062 C 190.25 268.082031 190.277344 268.363281 190.328125 268.640625 C 191.992188 286.308594 193.765625 291.578125 196.566406 308.828125 C 197.140625 312.375 197.738281 316.039062 198.398438 320.183594 C 198.765625 322.46875 200.738281 324.097656 202.980469 324.097656 C 203.222656 324.097656 203.472656 324.078125 203.722656 324.039062 C 206.253906 323.632812 207.976562 321.25 207.574219 318.714844 C 206.90625 314.5625 206.3125 310.886719 205.734375 307.335938 C 204.292969 298.46875 203.148438 291.417969 202.152344 284.246094 L 259.839844 284.246094 C 258.316406 290.082031 256.375 295.464844 254.339844 301.105469 C 252.554688 306.066406 250.703125 311.195312 248.988281 316.996094 C 248.257812 319.457031 249.660156 322.042969 252.121094 322.773438 C 252.5625 322.902344 253.003906 322.964844 253.441406 322.964844 C 255.445312 322.964844 257.296875 321.65625 257.894531 319.636719 C 259.535156 314.097656 261.335938 309.09375 263.078125 304.257812 C 266.222656 295.546875 269.1875 287.320312 270.875 277.066406 C 272.757812 265.621094 272.75 253.351562 270.839844 238.457031 "
      fill-opacity="1" fill-rule="nonzero" />
  </g>
  <path fill="#3d7661"
    d="M 187.496094 159.378906 C 190.0625 159.378906 192.140625 157.296875 192.140625 154.730469 L 192.140625 151.375 C 192.140625 148.804688 190.0625 146.726562 187.496094 146.726562 C 184.933594 146.726562 182.851562 148.804688 182.851562 151.375 L 182.851562 154.730469 C 182.851562 157.296875 184.933594 159.378906 187.496094 159.378906 "
    fill-opacity="1" fill-rule="nonzero" />
</svg>