<?xml version="1.0" encoding="UTF-8"?>
<svg id="Calque_1" viewBox="0 0 427.59 59.12" xmlns="http://www.w3.org/2000/svg">
  <defs>
    <style>.cls-1 {
      fill: #468371;
    }</style>
  </defs>
  <path class="cls-1"
        d="m2.58,58.9c25.51-13.18,55.28-16.22,83.58-16.91,30.46-.78,60.83,1.21,91.12,3.99,30.63,2.86,61.18,6.41,91.9,8.58,15.28,1.04,30.64,1.65,46,1.74,14.4.08,28.98.17,43.39-1.56,14.49-1.74,28.98-5.81,40.1-15.79,9.72-8.75,16.75-22.11,14.06-35.38-1.13-5.55-9.81-4.25-9.81,1.3.09,11.8-4.51,21.77-13.62,29.23-10.24,8.41-23.95,11.36-36.71,12.92-28.99,3.38-58.5,2.25-87.57.26-59.01-4.16-117.86-13.79-177.13-11.71-30.2.96-60.75,4.42-87.05,20.38-1.91,1.13-.26,3.99,1.74,2.95Z"/>
  <path class="cls-1"
        d="m14.04,39.65c25.86-9.45,52.6-11.71,79.93-11.88,1.48,0,2-2.52.35-2.69-27.34-4.08-55.8,2.43-80.89,13.44-.52.26-.08,1.39.61,1.13Z"/>
  <path class="cls-1"
        d="m388.52,54.82c9.98-1.39,19.18-6.15,26.12-13.35,3.56-3.64,6.6-7.81,8.68-12.4,1.74-3.64,4.95-10.15,2.34-13.88-1.21-1.73-3.3-1.99-4.86-.6-2.95,2.51-2.52,8.23-3.73,11.88-1.39,4.16-3.39,8.06-5.9,11.62-5.64,7.71-13.71,13.35-22.91,15.87-.61.09-.35.96.26.87Z"/>
</svg>
