<?xml version="1.0" encoding="UTF-8"?><svg id="Calque_1" xmlns="http://www.w3.org/2000/svg" xmlns:xlink="http://www.w3.org/1999/xlink" viewBox="0 0 380 380"><defs><style>.cls-1{fill:#468371;}.cls-2{clip-path:url(#clippath-1);}.cls-3{clip-path:url(#clippath);}.cls-4{fill:none;}</style><clipPath id="clippath"><rect class="cls-4" x="33.13" y="77.03" width="143.82" height="225.93"/></clipPath><clipPath id="clippath-1"><rect class="cls-4" x="203.58" y="77.03" width="143.28" height="225.93"/></clipPath></defs><g class="cls-3"><path class="cls-1" d="m176.28,149.26c0,84.21-62.07,142.53-142.81,154.1,44.45-23.34,72.48-54.56,76.46-82.63-38.11,3.1-72.62-26.76-76.14-64.71-3.5-37.67,23.88-72.56,61.31-77.71,11.87-1.63,24.2-.26,35.38,4.11,5.68,2.2,10.99,5.07,15.93,8.62,4.32,3.12,10.13,7.26,12.92,11.92,10.98,12.73,16.96,29.52,16.96,46.31Z"/></g><g class="cls-2"><path class="cls-1" d="m346.87,149.26c0,84.21-62.06,142.53-142.81,154.1,44.45-23.34,72.48-54.56,76.45-82.63-38.11,3.1-72.62-26.76-76.14-64.71-3.5-37.67,23.88-72.56,61.31-77.71,11.87-1.63,24.2-.26,35.38,4.11,5.68,2.2,10.99,5.07,15.93,8.62,4.32,3.12,10.13,7.26,12.92,11.92,10.98,12.73,16.96,29.52,16.96,46.31Z"/></g></svg>