<svg xmlns="http://www.w3.org/2000/svg" xmlns:xlink="http://www.w3.org/1999/xlink" version="1.1" id="Calque_1" x="0px"
  y="0px" viewBox="0 0 170.1 170.1" style="enable-background:new 0 0 170.1 170.1;" xml:space="preserve">
  <style type="text/css">
    .st0 {
      fill: #FFFFFF;
    }

    .st1 {
      opacity: 0.9;
    }

    .st2 {
      fill: none;
      stroke: #5AD4DB;
      stroke-width: 8;
      stroke-miterlimit: 10;
    }
  </style>
  <circle class="st0" cx="85" cy="85" r="83.6" />
  <g class="st1">
    <g>
      <g>
        <path class="st2"
          d="M84.3,47.8c0,0-6.7,1.8-13.1-14.7s4-18.9,4-18.9s4.7-2,8.3-1.3C87.1,13.6,91,16,92.6,23S93.8,43.3,84.3,47.8     z" />
      </g>
      <g>
        <path class="st2"
          d="M85.7,56.8c0,0-17,0.5-28.2,17s5.9,27.9,5.9,27.9s11.1,5.6,20.6-4c9.6-9.7,8.7-13.5,8.6-15.7     c-0.4-5.5-7.3-8.3-7.3-8.3s-6.1,3.3-6.4,9.1c-0.2,6.2,2.3,15.8,19.3,19.5s22.6-18.8,11.8-33.7l-0.2-0.2     C109,67.4,101,56.8,85.7,56.8z" />
      </g>
      <g>
        <g>
          <path class="st2" d="M85.8,123.8c0,0,57.6-40.8,55.5-0.3C139.2,163.9,85.8,123.8,85.8,123.8z" />
          <path class="st2" d="M85.9,123.8c0,0-57.6-40.8-55.5-0.3S85.9,123.8,85.9,123.8z" />
        </g>
      </g>
    </g>
  </g>
</svg>