<?xml version="1.0" encoding="UTF-8"?><svg id="Calque_1" xmlns="http://www.w3.org/2000/svg" xmlns:xlink="http://www.w3.org/1999/xlink" viewBox="0 0 426 61.2"><defs><style>.cls-1{clip-path:url(#clippath);}.cls-2{fill:none;}.cls-3{fill:#f1b668;}</style><clipPath id="clippath"><rect class="cls-2" width="414.14" height="61.2"/></clipPath></defs><g class="cls-1"><path class="cls-3" d="m2.84,60.16c25.51-13.18,55.28-16.22,83.58-16.91,30.46-.78,60.83,1.21,91.12,3.99,30.63,2.86,61.18,6.42,91.9,8.58,15.28,1.04,30.64,1.65,46,1.74,14.4.08,28.98.17,43.39-1.56,14.49-1.74,28.98-5.81,40.1-15.79,9.72-8.75,16.75-22.11,14.06-35.38-1.13-5.55-9.81-4.25-9.81,1.3.09,11.79-4.51,21.76-13.62,29.22-10.24,8.41-23.95,11.36-36.71,12.92-28.99,3.38-58.49,2.25-87.57.26-59.01-4.16-117.85-13.79-177.13-11.71-30.2.96-60.75,4.43-87.05,20.38-1.91,1.13-.26,3.99,1.74,2.95Z"/></g><path class="cls-3" d="m14.29,40.91c25.86-9.45,52.6-11.71,79.93-11.88,1.48,0,2-2.52.35-2.69-27.34-4.07-55.8,2.43-80.89,13.44-.52.26-.08,1.39.61,1.13Z"/><path class="cls-3" d="m388.78,56.08c9.98-1.38,19.18-6.15,26.12-13.35,3.56-3.64,6.6-7.8,8.68-12.4,1.74-3.64,4.95-10.15,2.35-13.87-1.22-1.74-3.3-2-4.86-.61-2.95,2.51-2.52,8.24-3.73,11.88-1.39,4.16-3.39,8.06-5.9,11.62-5.64,7.72-13.71,13.35-22.91,15.87-.61.08-.35.95.26.86Z"/></svg>