<?xml version="1.0" encoding="UTF-8"?>
<svg id="Calque_1" xmlns="http://www.w3.org/2000/svg"
  xmlns:xlink="http://www.w3.org/1999/xlink" viewBox="0 0 401.17 25.59">
  <defs>
    <style>
      .cls-1 {
        fill: none;
      }

      .cls-2 {
        fill: #f8cd94;
      }
    </style>
    <clipPath id="clippath">
      <rect class="cls-1" x="-378.26" y="-404.19" width="26.63" height="46.61" />
    </clipPath>
    <clipPath id="clippath-1">
      <rect class="cls-1" x="-715.81" y="-549.64" width="282.63" height="354.53"
        transform="translate(20.85 -710.41) rotate(-62.54)" />
    </clipPath>
    <clipPath id="clippath-3">
      <rect class="cls-1" x="82.55" y="-607.26" width="16.17" height="20.91" />
    </clipPath>
    <clipPath id="clippath-4">
      <polygon class="cls-1" points="126.64 -685.57 420.42 -534.56 298.7 -302.92 4.92 -453.93 126.64 -685.57" />
    </clipPath>
    <clipPath id="clippath-6">
      <rect class="cls-1" x="169.6" y="-468.28" width="89.54" height="72.57" />
    </clipPath>
    <clipPath id="clippath-7">
      <polygon class="cls-1" points="126.64 -685.57 420.42 -534.56 298.7 -302.92 4.92 -453.93 126.64 -685.57" />
    </clipPath>
    <clipPath id="clippath-9">
      <rect class="cls-1" x="152.19" y="-512.56" width="39.8" height="34.44" />
    </clipPath>
    <clipPath id="clippath-10">
      <polygon class="cls-1" points="126.64 -685.57 420.42 -534.56 298.7 -302.92 4.92 -453.93 126.64 -685.57" />
    </clipPath>
    <clipPath id="clippath-12">
      <rect class="cls-1" x="91.25" y="-576.51" width="29.85" height="25.83" />
    </clipPath>
    <clipPath id="clippath-13">
      <polygon class="cls-1" points="126.64 -685.57 420.42 -534.56 298.7 -302.92 4.92 -453.93 126.64 -685.57" />
    </clipPath>
    <clipPath id="clippath-15">
      <rect class="cls-1" x="73.84" y="-542.07" width="44.77" height="44.28" />
    </clipPath>
    <clipPath id="clippath-16">
      <polygon class="cls-1" points="126.64 -685.57 420.42 -534.56 298.7 -302.92 4.92 -453.93 126.64 -685.57" />
    </clipPath>
    <clipPath id="clippath-18">
      <rect class="cls-1" x="269.09" y="-452.29" width="77.1" height="94.71" />
    </clipPath>
    <clipPath id="clippath-19">
      <polygon class="cls-1" points="126.64 -685.57 420.42 -534.56 298.7 -302.92 4.92 -453.93 126.64 -685.57" />
    </clipPath>
    <clipPath id="clippath-21">
      <rect class="cls-1" x="293.96" y="-518.7" width="68.4" height="77.49" />
    </clipPath>
    <clipPath id="clippath-22">
      <polygon class="cls-1" points="126.64 -685.57 420.42 -534.56 298.7 -302.92 4.92 -453.93 126.64 -685.57" />
    </clipPath>
    <clipPath id="clippath-24">
      <rect class="cls-1" x="101.2" y="-474.43" width="46.01" height="47.97" />
    </clipPath>
    <clipPath id="clippath-25">
      <polygon class="cls-1" points="126.64 -685.57 420.42 -534.56 298.7 -302.92 4.92 -453.93 126.64 -685.57" />
    </clipPath>
  </defs>
  <path class="cls-2"
    d="m83.25,9.45c-22.65-1.03-45.09-1.85-67.74-1.64-4.08,0-7.96-.21-12.04-.42-1.63-.2-3.47-.41-3.47-2.67,0-2.06,1.63-2.47,3.26-2.67C12.85.6,22.45.39,32.24.18c53.26-.61,106.51,2.27,159.56,7.2,37.34,3.5,74.48,7.82,111.82,11.74,6.74.62,13.47,1.23,20.2.41.61,0,1.22-.41,1.63-.62-.41-.41-.61-1.03-1.02-1.44-3.67-2.47-7.55-4.94-11.22-7.41-2.25-1.44-5.31-2.68-4.49-5.97s4.08-3.5,6.73-3.7c9.19-1.03,18.16.21,27.14,1.03,17.96,1.44,35.91,4.32,53.66,7.2.21,0,.61,0,.82.2,1.43.62,4.29-.82,4.08,2.06-.41,2.67-3.06,2.06-4.9,1.85-14.08-1.64-28.36-3.5-42.44-5.14-12.04-1.23-24.08-2.67-36.32-2.47-.82,0-1.43.41-2.25.41.61.41,1.23,1.03,1.84,1.44,3.67,2.27,7.55,4.32,10.81,7.41,1.84,1.64,3.47,3.5,2.86,6.17-.81,2.67-3.06,3.5-5.3,3.91-9.59,1.85-19.39,1.03-29.18.2-71.01-7-141.82-13.38-213.03-15.23Z" />
</svg>