<?xml version="1.0" encoding="UTF-8"?><svg id="Calque_1" xmlns="http://www.w3.org/2000/svg" xmlns:xlink="http://www.w3.org/1999/xlink" viewBox="0 0 324.92 301.4"><defs><style>.cls-1{fill:#468371;}.cls-2{clip-path:url(#clippath-4);}.cls-3{fill:none;}.cls-4{clip-path:url(#clippath-3);}</style><clipPath id="clippath"><rect class="cls-3" x="-416.38" y="-550.84" width="26.63" height="46.61"/></clipPath><clipPath id="clippath-1"><rect class="cls-3" x="-753.94" y="-696.29" width="282.63" height="354.53" transform="translate(130.44 -823.26) rotate(-62.54)"/></clipPath><clipPath id="clippath-3"><rect class="cls-3" width="324.92" height="301.4"/></clipPath><clipPath id="clippath-4"><path class="cls-3" d="m261.71,24.69C230.62,5.11,222.29,4.21,185.77.17,102.02,1.16,34.14,49.54,7.86,129.07c-8.99,27.21-11.38,57.63-.83,84.27,13.87,35,48.35,58.73,84.77,68.28,36.43,9.59,76.54,22.76,113.9,18.22,29.13-3.55,58.23-24.85,80.03-44.5,14.47-13.04,23.49-31.12,29.53-49.64,21.1-64.43,3.81-144.86-53.55-181.02Z"/></clipPath></defs><g class="cls-4"><g class="cls-2"><path class="cls-1" d="m-3.22-22.23h331.78v331.78H-3.22V-22.23Z"/></g></g></svg>