<svg xmlns="http://www.w3.org/2000/svg" xmlns:xlink="http://www.w3.org/1999/xlink" width="500" zoomAndPan="magnify"
  viewBox="0 0 375 374.999991" height="500" preserveAspectRatio="xMidYMid meet" version="1.0">
  <path fill="#3d7661"
    d="M 64.5 310.5 C 31.648438 277.644531 13.554688 233.964844 13.554688 187.5 C 13.554688 143.304688 29.9375 101.632812 59.8125 69.394531 L 119.234375 128.816406 L 72.753906 128.816406 C 55.652344 128.816406 41.734375 142.734375 41.734375 159.839844 L 41.734375 213.800781 C 41.734375 230.90625 55.652344 244.820312 72.753906 244.820312 L 136.785156 244.820312 L 136.785156 272.632812 C 136.785156 276.582031 139.140625 280.105469 142.792969 281.621094 C 144 282.121094 145.265625 282.367188 146.523438 282.367188 C 149.050781 282.367188 151.527344 281.378906 153.394531 279.511719 L 188.082031 244.820312 L 235.238281 244.820312 L 305.605469 315.1875 C 273.371094 345.0625 231.695312 361.445312 187.5 361.445312 C 141.035156 361.445312 97.355469 343.351562 64.5 310.5 Z M 186.5 231.265625 C 183.933594 231.265625 181.425781 232.304688 179.621094 234.113281 L 150.339844 263.394531 L 150.339844 240.992188 C 150.339844 235.628906 145.976562 231.265625 140.613281 231.265625 L 72.753906 231.265625 C 63.125 231.265625 55.289062 223.433594 55.289062 213.800781 L 55.289062 159.839844 C 55.289062 150.207031 63.125 142.371094 72.753906 142.371094 L 302.246094 142.371094 C 311.875 142.371094 319.710938 150.207031 319.710938 159.839844 L 319.710938 213.800781 C 319.710938 223.433594 311.875 231.265625 302.246094 231.265625 Z M 310.5 64.5 C 343.351562 97.355469 361.445312 141.035156 361.445312 187.5 C 361.445312 231.695312 345.0625 273.371094 315.1875 305.605469 L 254.402344 244.820312 L 302.246094 244.820312 C 319.347656 244.820312 333.265625 230.90625 333.265625 213.800781 L 333.265625 159.839844 C 333.265625 142.734375 319.347656 128.816406 302.246094 128.816406 L 138.402344 128.816406 L 69.394531 59.8125 C 101.628906 29.9375 143.304688 13.554688 187.5 13.554688 C 233.964844 13.554688 277.644531 31.648438 310.5 64.5 Z M 320.082031 54.917969 C 284.667969 19.5 237.582031 0 187.5 0 C 137.417969 0 90.332031 19.5 54.917969 54.917969 C 19.5 90.332031 0 137.417969 0 187.5 C 0 237.582031 19.5 284.667969 54.917969 320.082031 C 90.332031 355.492188 137.417969 375 187.5 375 C 237.582031 375 284.667969 355.492188 320.082031 320.082031 C 355.492188 284.667969 375 237.582031 375 187.5 C 375 137.417969 355.492188 90.332031 320.082031 54.917969 "
    fill-opacity="1" fill-rule="nonzero" />
  <path fill="#d29e5b"
    d="M 249.777344 181.339844 L 249.035156 181.125 C 246.492188 180.386719 243.105469 179.226562 243.105469 177.632812 C 243.105469 176.472656 245.035156 174.792969 248.054688 174.792969 C 250.394531 174.792969 252 175.382812 252.011719 175.382812 C 252.011719 175.382812 252.007812 175.382812 252.007812 175.378906 L 257.371094 162.9375 C 256.714844 162.652344 253.179688 161.238281 248.054688 161.238281 C 237.851562 161.238281 229.550781 168.59375 229.550781 177.632812 C 229.550781 185.578125 234.84375 191.132812 245.273438 194.144531 L 246.035156 194.367188 C 250.449219 195.632812 250.449219 196.554688 250.449219 197.367188 C 250.449219 198.367188 248.355469 200.207031 244.9375 200.207031 C 241.863281 200.207031 239.453125 199.6875 238.289062 199.378906 C 234.667969 198.410156 230.960938 200.566406 229.992188 204.183594 C 229.03125 207.800781 231.183594 211.511719 234.804688 212.472656 C 237.003906 213.058594 240.550781 213.761719 244.9375 213.761719 C 255.449219 213.761719 264.003906 206.40625 264.003906 197.367188 C 264.003906 191.917969 261.535156 184.710938 249.777344 181.339844 "
    fill-opacity="1" fill-rule="nonzero" />
  <path fill="#d29e5b"
    d="M 219.285156 174.792969 C 223.027344 174.792969 226.0625 171.757812 226.0625 168.015625 C 226.0625 164.273438 223.027344 161.238281 219.285156 161.238281 L 198.339844 161.238281 C 194.597656 161.238281 191.5625 164.273438 191.5625 168.015625 L 191.5625 206.984375 C 191.5625 210.726562 194.597656 213.761719 198.339844 213.761719 L 219.285156 213.761719 C 223.027344 213.761719 226.0625 210.726562 226.0625 206.984375 C 226.0625 203.242188 223.027344 200.207031 219.285156 200.207031 L 205.117188 200.207031 L 205.117188 194.644531 L 214.21875 194.644531 C 217.960938 194.644531 220.996094 191.613281 220.996094 187.867188 C 220.996094 184.125 217.960938 181.089844 214.21875 181.089844 L 205.117188 181.089844 L 205.117188 174.792969 L 219.285156 174.792969 "
    fill-opacity="1" fill-rule="nonzero" />
  <path fill="#d29e5b"
    d="M 286.234375 181.339844 L 285.496094 181.125 C 282.949219 180.386719 279.566406 179.226562 279.566406 177.632812 C 279.566406 176.472656 281.492188 174.792969 284.511719 174.792969 C 286.847656 174.792969 288.457031 175.382812 288.464844 175.382812 C 288.464844 175.382812 288.464844 175.382812 288.460938 175.378906 L 293.828125 162.9375 C 293.171875 162.65625 289.636719 161.238281 284.511719 161.238281 C 274.308594 161.238281 266.011719 168.59375 266.011719 177.632812 C 266.011719 185.578125 271.300781 191.132812 281.730469 194.144531 L 282.496094 194.367188 C 286.90625 195.632812 286.90625 196.554688 286.90625 197.367188 C 286.90625 198.367188 284.8125 200.207031 281.390625 200.207031 C 278.320312 200.207031 275.90625 199.6875 274.746094 199.378906 C 271.121094 198.410156 267.417969 200.566406 266.453125 204.183594 C 265.488281 207.800781 267.636719 211.511719 271.257812 212.472656 C 273.460938 213.058594 277.003906 213.761719 281.390625 213.761719 C 291.90625 213.761719 300.460938 206.40625 300.460938 197.367188 C 300.460938 191.917969 297.988281 184.710938 286.234375 181.339844 "
    fill-opacity="1" fill-rule="nonzero" />
  <path fill="#d29e5b"
    d="M 142.191406 161.238281 L 116.894531 161.238281 C 113.15625 161.238281 110.121094 164.273438 110.121094 168.015625 C 110.121094 171.757812 113.15625 174.792969 116.894531 174.792969 L 122.769531 174.792969 L 122.769531 206.984375 C 122.769531 210.726562 125.804688 213.761719 129.546875 213.761719 C 133.289062 213.761719 136.324219 210.726562 136.324219 206.984375 L 136.324219 174.792969 L 142.191406 174.792969 C 145.933594 174.792969 148.96875 171.757812 148.96875 168.015625 C 148.96875 164.273438 145.933594 161.238281 142.191406 161.238281 "
    fill-opacity="1" fill-rule="nonzero" />
  <path fill="#d29e5b"
    d="M 166.152344 174.792969 L 169.878906 174.792969 C 171.585938 174.792969 173.03125 176.234375 173.03125 177.949219 C 173.03125 179.660156 171.585938 181.101562 169.878906 181.101562 L 167.570312 181.101562 C 167.5625 181.101562 167.546875 181.101562 167.539062 181.101562 L 166.152344 181.101562 Z M 178.738281 192.089844 C 183.441406 189.128906 186.585938 183.902344 186.585938 177.949219 C 186.585938 168.734375 179.089844 161.238281 169.878906 161.238281 L 159.375 161.238281 C 155.628906 161.238281 152.601562 164.273438 152.601562 168.015625 L 152.601562 206.984375 C 152.601562 210.726562 155.628906 213.761719 159.375 213.761719 C 163.117188 213.761719 166.152344 210.726562 166.152344 206.984375 L 166.152344 197.707031 L 175.175781 210.824219 C 176.492188 212.734375 178.609375 213.761719 180.761719 213.761719 C 182.089844 213.761719 183.425781 213.371094 184.601562 212.566406 C 187.683594 210.441406 188.464844 206.226562 186.34375 203.140625 L 178.738281 192.089844 "
    fill-opacity="1" fill-rule="nonzero" />
  <path fill="#d29e5b"
    d="M 94.761719 181.339844 L 94.023438 181.125 C 91.476562 180.386719 88.09375 179.226562 88.09375 177.632812 C 88.09375 176.472656 90.023438 174.792969 93.039062 174.792969 C 95.382812 174.792969 96.984375 175.382812 96.992188 175.382812 C 96.992188 175.382812 96.992188 175.382812 96.988281 175.378906 L 102.359375 162.9375 C 101.699219 162.65625 98.167969 161.238281 93.039062 161.238281 C 82.839844 161.238281 74.539062 168.59375 74.539062 177.632812 C 74.539062 185.578125 79.828125 191.132812 90.261719 194.144531 L 91.023438 194.367188 C 95.433594 195.632812 95.433594 196.554688 95.433594 197.367188 C 95.433594 198.367188 93.34375 200.207031 89.921875 200.207031 C 86.847656 200.207031 84.441406 199.6875 83.277344 199.378906 C 79.660156 198.414062 75.945312 200.566406 74.980469 204.183594 C 74.019531 207.800781 76.171875 211.511719 79.785156 212.472656 C 81.992188 213.058594 85.535156 213.761719 89.921875 213.761719 C 100.433594 213.761719 108.988281 206.40625 108.988281 197.367188 C 108.988281 191.917969 106.519531 184.710938 94.761719 181.339844 "
    fill-opacity="1" fill-rule="nonzero" />
</svg>