<?xml version="1.0" encoding="UTF-8"?><svg id="Calque_1" xmlns="http://www.w3.org/2000/svg" xmlns:xlink="http://www.w3.org/1999/xlink" viewBox="0 0 308.94 69.91"><defs><style>.cls-1{clip-path:url(#clippath-27);}.cls-2{fill:none;}.cls-3{fill:#f1b668;}</style><clipPath id="clippath"><rect class="cls-2" x="-431.67" y="-103.54" width="26.63" height="46.61"/></clipPath><clipPath id="clippath-1"><rect class="cls-2" x="-769.22" y="-248.99" width="282.63" height="354.53" transform="translate(-274.7 -595.8) rotate(-62.54)"/></clipPath><clipPath id="clippath-3"><rect class="cls-2" x="29.13" y="-306.61" width="16.17" height="20.91"/></clipPath><clipPath id="clippath-4"><polygon class="cls-2" points="73.23 -384.92 367.01 -233.91 245.29 -2.27 -48.49 -153.28 73.23 -384.92"/></clipPath><clipPath id="clippath-6"><rect class="cls-2" x="116.19" y="-167.63" width="89.54" height="72.57"/></clipPath><clipPath id="clippath-7"><polygon class="cls-2" points="73.23 -384.92 367.01 -233.91 245.29 -2.27 -48.49 -153.28 73.23 -384.92"/></clipPath><clipPath id="clippath-9"><rect class="cls-2" x="98.78" y="-211.91" width="39.8" height="34.44"/></clipPath><clipPath id="clippath-10"><polygon class="cls-2" points="73.23 -384.92 367.01 -233.91 245.29 -2.27 -48.49 -153.28 73.23 -384.92"/></clipPath><clipPath id="clippath-12"><rect class="cls-2" x="37.84" y="-275.86" width="29.85" height="25.83"/></clipPath><clipPath id="clippath-13"><polygon class="cls-2" points="73.23 -384.92 367.01 -233.91 245.29 -2.27 -48.49 -153.28 73.23 -384.92"/></clipPath><clipPath id="clippath-15"><rect class="cls-2" x="20.43" y="-241.42" width="44.77" height="44.28"/></clipPath><clipPath id="clippath-16"><polygon class="cls-2" points="73.23 -384.92 367.01 -233.91 245.29 -2.27 -48.49 -153.28 73.23 -384.92"/></clipPath><clipPath id="clippath-18"><rect class="cls-2" x="215.67" y="-151.64" width="77.1" height="94.71"/></clipPath><clipPath id="clippath-19"><polygon class="cls-2" points="73.23 -384.92 367.01 -233.91 245.29 -2.27 -48.49 -153.28 73.23 -384.92"/></clipPath><clipPath id="clippath-21"><rect class="cls-2" x="240.55" y="-218.06" width="68.4" height="77.49"/></clipPath><clipPath id="clippath-22"><polygon class="cls-2" points="73.23 -384.92 367.01 -233.91 245.29 -2.27 -48.49 -153.28 73.23 -384.92"/></clipPath><clipPath id="clippath-24"><rect class="cls-2" x="47.79" y="-173.78" width="46.01" height="47.97"/></clipPath><clipPath id="clippath-25"><polygon class="cls-2" points="73.23 -384.92 367.01 -233.91 245.29 -2.27 -48.49 -153.28 73.23 -384.92"/></clipPath><clipPath id="clippath-27"><rect class="cls-2" width="308.94" height="69.91"/></clipPath></defs><g class="cls-1"><path class="cls-3" d="m299.95,47.07c-.29.02-.58.03-.85,0-.11-.01-.18-.14-.23-.22-.01-.02.11-.08.19-.09.28-.03.57-.04.74-.04.39.03.71.04.63.24-.02.06-.3.1-.47.11Zm-2.16-3.31c-.23.02-.41-.03-.42-.15,0-.12.16-.18.39-.17.09.01.19.05.23.08.12.11.05.19-.2.23Zm-1.6-8.69c0-.07.16-.2.3-.22.54-.1,1.12.14,1.18.48.03.16-.1.29-.43.34-.51.01-1.03-.27-1.05-.6Zm-.46,3.19c-.42-.11-.98-.18-.84-.51.05-.11.38-.25.61-.26.5-.03.99.45.72.67-.07.06-.32.07-.49.1Zm-3.47.03c-.71-.12-1.11-.56-.75-.86.17-.14.47-.2.79-.15.57.09.79.37.62.78-.07.18-.32.24-.66.23Zm.47,4.37c-.19.27-.63.37-1.18.28-.32-.11-.75-.23-.47-.47.26-.22.7-.38,1.23-.31.44.06.56.3.42.5Zm-1.77,7.81c-.26,0-.46-.1-.49-.25-.03-.16.17-.28.49-.27.15.01.34.1.4.18.1.15,0,.28-.4.33Zm-1.14-19.47c-.16.09-.58.14-.79.1-.22-.05-.46-.22-.48-.36-.15-.71-.24-1.44-.36-2.26.05-.09.07-.32.28-.48.66-.52.71-1.06.37-1.63-.11-.2.08-.43.54-.46.45-.04.9.14.84.33-.28.92.36,1.75.87,2.56.6.96-.2,1.58-1.27,2.21Zm-.97,3.75c-.03-.37-.06-.74-.1-1.21.87.74.87.76.1,1.21Zm.01,1c-.44.2-.49-.37-.02-.94.19.31.69.63.02.94Zm3.23-.3c.23-.05.41.02.34.13-.04.06-.28.09-.42.14-.24.03-.43-.03-.36-.11.07-.07.28-.12.44-.15Zm-7.52-.02c-.03.18.06.51-.42.47-.57-.06-.54-.4-.37-.65.36-.55.47-1.12.39-1.7,0-.07.22-.14.48-.3.35.78.05,1.48-.08,2.17Zm-.87,17.21s-.16.07-.25.08c-.09,0-.26-.02-.27-.04-.09-.45-.17-.9-.23-1.35,0-.03.16-.07.24-.08.09,0,.22.01.28.05.5.31.07.71.37,1-.06.15-.08.25-.15.34Zm-2.16-22.79c-.25,0-.6-.07-.75-.17-.7-.47-.23-1.27.84-1.38.64-.06,1.33,0,2,.02.01.35,0,.7-.37,1.02-.4.34-.97.51-1.71.5Zm-.74,5.92c-.12-.02-.2-.16-.29-.24.03-.16.11-.32.5-.27.14.02.28.15.3.24.03.17-.14.31-.5.27Zm-1.92,19.48c-.92.22-1.37.12-1.57-.45-.09-.28-.73-.58-.16-.86.66-.32,1.28,0,1.9.13l1.33.28c-.28.4-.72.71-1.5.89Zm-2.14-22.93s.09-.09.15-.15c.42-.29.3-.55-.11-.84-.73-.53-.57-1.09-.08-1.63.22-.24.5-.49,1.12-.39.5.09,1.24.09,1.15.56-.04.2-.02.42.11.61.31.45.06.81-.47,1.17-.43.29-.75.61-1.16.92-.1.07-.35.16-.49.14-.4-.05-.31-.22-.23-.38Zm-1.68-3.44c-.29.12-.57.33-1.01.17-.23-.09-.44-.22-.54-.36-.42-.6.69-1.17.13-1.78.25-.05.51-.16.76-.15,1.18.03,1.5.57,2.06.97-.23.46-.7.85-1.4,1.16Zm.4,23.87c-.08-.06-.16-.13-.24-.2.08-.03.17-.07.22-.07.14.03.26.08.39.13-.12.05-.24.09-.36.14Zm-.87-19.69c-.14.02-.38-.04-.49-.09-.34-.18-.63-.39-.53-.67.03-.09.17-.17.26-.24.17.03.44.04.5.1.22.22.41.45.54.68.03.06-.15.2-.27.22Zm-.71-11.52c.17-.04.12-.29.24-.42.34-.35.91-.36,1.35-.05.77.55,1.12,1.09.22,1.71-.47.32-.78.72-1.19,1.07-.07.06-.35.05-.48.07-.15-.08-.35-.14-.4-.22-.26-.39.24-.69.49-1.02.12-.16.1-.36-.19-.4-1.53-.23-1.36-.45-.05-.73Zm3.38,5.02c.18.42.37.84.55,1.26.06.14.08.33-.27.33-.21,0-.43-.15-.65-.23-.14-.06-.27-.11-.4-.17.1-.42.2-.84.76-1.18Zm.33-.8c.41-.04.79.09.89.3.11.24-.28.34-.67.39-.18.03-.35.04-.54.06-.03-.09-.06-.18-.1-.28-.08-.21-.07-.43.42-.48Zm.95-2.11c.53,0,.57.24.5.46-.06.17-.29.26-.63.27-.44-.08-.66-.26-.53-.47.07-.11.43-.25.66-.25Zm-7.28,30.89c-.62-.08-1.43.01-1.76-.42-.22-.28,1.19-.61,2.17-.48.53.07.83.3.75.58-.08.36-.62.34-1.16.32Zm-2.21-24.64c-.34-.22-.38-.47-.25-.74.37-.74.75-1.48,1.13-2.22,1.27.66.83,1.55,1.2,2.34.09.19-1.21.8-1.63.79-.16,0-.34-.1-.45-.17Zm-.47-8.16c-.38.35-.77.71-1.19,1.06-.08.07-.31.09-.47.13-.08-.02-.22-.03-.24-.06-.31-.46-.98-.9-.14-1.4.37-.22.54-.54.86-.78.18-.14.53-.14.77-.02.69.33.82.7.4,1.08Zm-.68,5.09c-.34.31-.67.65-1.56.64-.09-.07-.33-.16-.3-.21.26-.43.53-.86.88-1.27.14-.15.54-.09.77.02.52.24.53.55.21.83Zm-1.71,6.42c-.08.03-.18.04-.28.06-.14-.07-.41-.15-.39-.2.15-.44.4-.87,1.01-1.21.08-.04.49-.02.53.04.32.37-.17,1.09-.88,1.31Zm3.77-7.65c.05-.07.32-.14.48-.14.35.02.45.18.41.33-.08.42-.47.76-.92,1.09-.67-.43-.28-.86.03-1.28Zm.6-2.33c.12-.05.41-.04.54,0,.66.23,1.12.73.93,1.02-.05.08-.25.15-.42.18-.17.04-.37.04-.57.05-.48-.06-.98-.15-1.02-.45-.03-.3,0-.62.55-.81Zm-6.47,31.05c-.76.03-1.14-.12-1.18-.48-.01-.15.03-.3.05-.45h-.04c.02-.15-.04-.32.08-.44.11-.12.4-.24.63-.26s.62.07.72.17c.26.27.44.56.58.85.19.38-.11.58-.85.61Zm-2.04-24.77c-.32-.19-.15-.36.05-.55.34-.3.63-.61,1.06-1.04,1,.54.73.98.12,1.44-.32.24-.95.31-1.23.15Zm-1.02-7.36c-.43.34-1.27.53-1.78.37-.54-.17-.92-.63-.76-.95.03-.05.05-.11.11-.15.8-.34.76-.81.82-1.28.03-.25.18-.54.83-.55.57-.01.86.22,1.12.45.33.28.3.6.3.94-.11.38-.18.81-.63,1.17Zm-1.05,4.13c.02.23.09.38.03.53-.02.06-.31.14-.46.12-.17-.01-.4-.09-.46-.17-.21-.3-.14-.61.14-.89.14-.15.43-.23.73-.17.12.02.26.15.24.22-.04.15-.18.29-.22.36Zm-.33,5.39c-.3.02-.56-.08-.6-.23-.05-.18.19-.27.51-.23.29.03.47.14.46.29-.14.07-.25.17-.38.18Zm4.24-8.97c.11.05.42.11.56.23.56.48.25,1.32-.61,1.69-.06.03-.45-.05-.47-.11-.2-.49-.36-1-.5-1.51-.05-.16.52-.36,1.02-.3Zm.18-2.89c.31.07.44.2.32.36-.11.15-.37.24-.67.14-.26-.09-.31-.26-.13-.4.08-.06.32-.07.48-.1Zm-7.23,33.4c-.3-.17-.36-.34-.04-.5.07-.04.44,0,.46.04.07.12.09.27.06.41-.01.03-.31.04-.47.06Zm-3.97-35.52c-.21.14-.67.24-1.04.26-1.43.09-2.9.08-3.88-.55-.77-.49-1.67-.55-2.67-.44-1.21.12-2.4.07-3.59,0-.67-.03-1.11-.3-1.05-.64.05-.31.16-.62.34-.92.28-.46,1.17-.53,1.92-.2.67.29.95.65.98,1.25.95-.16,1.64-.24,2.27-.38,1.26-.28,2.38-.32,3.59.16.93.36,1.6.22,2.28-.25.29-.2.27-.41-.15-.53-.79-.21-.66-.46-.16-.73.28-.15.58-.29.9-.41.82-.31,2.27,0,2.29.5.05,1.09-.8,2.03-2.04,2.88Zm-.31,3.3c-.32-.01-.44-.18-.4-.33.07-.28.63-.48,1.02-.37.14.04.19.16.28.24-.14.24-.29.5-.91.46Zm-2.39,1.6c-.05.05-.39.05-.53.02-.61-.18-1.25-.36-1.23-.85.16-.08.33-.21.57-.28.28-.08.6-.03.82.1.12.08.22.18.26.28.1.25.4.49.12.74Zm-4.7-7.64c.08-.09.19-.18.3-.27.29-.21-.02-.72.92-.59.58.08.35.43.4.72-.04.1-.07.25-.15.4-.14.24-.83.39-1.21.26-.38-.13-.44-.32-.27-.53Zm-9.79,1.92c-.04.23-.48.34-.88.34-.38,0-.79-.04-1.15-.11-.51-.1-.84-.03-1.31.15-1.14.45-1.56.4-2.36-.2-.16-.12-.22-.28-.31-.42.08-.02.16-.03.24-.04,1.64-.26,3.17-.58,3.55-1.61.04-.09.2-.18.33-.25.45-.29,1.49-.21,1.74.14.48.66.27,1.33.16,2Zm-12.17.14c-.41-.04-.57-.32-.33-.49.57-.4,1.43-.55,2.22-.77.85-.23,1.53-.53.84-1.11-.19-.16-.07-.33.23-.39.25-.05.59-.05.85,0,.58.12,1.08.33,1.01.69-.13.69.59,1.18,1.28,1.69-1.96.47-3.99.57-6.09.37Zm-2.53-1.31c-.4.36.37.85-.45,1.16-.46.18-.7.2-2.95.19-.14,0-.64-.01-1.11-.08-.41-.06-.66-.23-.56-.47.09-.22.36-.4.81-.36.58.04,1.15.17,1.73.22.66.06,1.17-.2,1.12-.55-.06-.36-.22-.72-.24-1.08-.02-.19.08-.41.26-.58.12-.11.46-.18.72-.22.12-.02.39.07.45.15.31.37.74.75.48,1.19-.08.15-.12.31-.27.44Zm-.63,3.92c-.45,0-.76-.12-.8-.34-.04-.21.13-.43.57-.46.44-.03.69.15.79.36.1.23-.11.38-.55.44Zm-6.23-5.09c-.1.07-.36.14-.49.11-.25-.04-.59-.11-.69-.21-.15-.17-.14-.38-.2-.57.22-.2.37-.38.61-.54.08-.05.42-.07.52-.03.61.26.73.88.25,1.24Zm-3.23,1.65c-.06.32-.17.62-.92.7-.73.07-1.4.02-1.87-.32-.16-.11-.29-.31-.21-.42.42-.57.91-1.13,1.4-1.69.08-.09.28-.17.45-.2.26-.05.6-.12.83-.08.33.07.23.25.37.11-.49.53-.71.8-.33,1.02.47.28.33.58.27.88Zm-5.33.75c-1.32-.18-2.63-.38-4.01-.41-.46,0-.63-.27-.53-.47.46-.87.97-1.74,1.46-2.62.32.59,1.16,1.06.75,1.75-.28.47.52.73,1.42.54,1.09-.23,1.35-.17,1.55.36.05.16.09.31.08.46-.03.23-.3.45-.73.38Zm-9.51-2.07c-.07-.24-.15-.48-.22-.73-.04-.15-.05-.34.36-.27.2.03.41.22.44.35.07.27-.24.47-.59.65Zm-.52,1.24c-.21.06-.62.05-.82-.03-.19-.07-.34-.28-.29-.4.2-.43.7-.72,1.6-.78.36.46.5.9-.49,1.2Zm-2.8.04c-.11.25-.29.5-.85.55-.43.04-1.07-.28-1.2-.58-.12-.27.01-.5.28-.72.29-.24.73-.32,1.25-.3.43.02.68.27.65.66-.03.09-.06.24-.12.38Zm-7.09.58c-.38.01-.8,0-1.14-.06-.48-.09-.9-.27-.65-.58.22-.28.71-.33,1.23-.29.66.06,1.05.27,1.1.59,0,.21-.23.32-.54.33Zm-4.27-2.48c-.14,0-.35-.11-.35-.17,0-.07.16-.18.3-.21.35-.07.74-.09,1.02.09.05.03.03.09.04.14-.25.19-.65.18-1,.16Zm-29.42-7.42c-.53-.1-.76-.4-.47-.6.17-.12.36-.24.59-.33.36-.15.69-.4,1.25-.27.44.1.66.68.39.98-.23.26-.62.39-1.65.24.27.04.07.02-.11-.02Zm-2.14,1.64c-.67,0-1.33-.04-2.35-.07.83-.47,1.55-.49,2.31-.33.15.03.31.14.33.21.01.06-.19.2-.3.2Zm-4.45-4.19c-.14-.02-.25-.12-.37-.19.09-.17.36-.24.66-.22.14.02.36.12.35.18-.05.17-.33.25-.64.22Zm-3.6,3.68c-.73,0-1.37-.43-1.51-.98-.07-.31.57-.66,1.32-.7.43-.02.81.09.91.3.14.3.16.61.21.85-.03.37-.35.53-.93.53Zm-17.13-4.27c-.42.01-.83-.08-.76-.34.03-.11.35-.24.59-.29.41-.07.75.01.9.24,0,.25-.31.37-.73.38Zm-1.17,4.42c-.38-.04-.75-.13-.79-.35-.02-.16.21-.29.55-.26.49.03.88.14.91.43-.14.17-.39.21-.68.18Zm-2.97-1.69c.72-.45,1.62-.13,2.31-.32.07-.02.37.08.4.14.06.17-.14.31-.45.33-.74.05-1.49.05-2.26-.15Zm-2.88,58.13c-.66-.02-1.3-.07-1.95-.11.53-.27,1.17-.29,1.84-.22.16.02.3.1.44.16-.11.06-.23.17-.33.17Zm-2.92.8c-.81-.02-1.15-.19-1.12-.56.04-.3.29-.52.88-.51.37,0,.74.11,1.11.17.04.15.09.3.09.45,0,.33-.38.45-.97.45Zm-2.29-56.7c-.35-.01-.44-.17-.33-.32.1-.14.27-.29.61-.24.1.02.14.17.21.26-.04.16-.15.31-.49.31Zm-2.86-.67c-.13-.07-.37-.14-.36-.21.02-.26.42-.32.82-.32.33,0,.64.12.54.29-.14.21-.56.27-.99.24Zm-4.39.99c-.19,0-.39,0-.66,0-.21-.04-.53-.04-.75-.13-.2-.08-.34-.23-.4-.36-.03-.07.15-.18.28-.25.47-.23,1.07-.22,1.65-.18.48.04.97.09,1.07.42.08.27-.42.48-1.2.5Zm-4.35-.2c-.33-.06-.41-.22-.23-.37.17-.15.48-.19.75-.09.11.04.09.17.14.27-.13.15-.34.25-.66.19Zm-3.65.28c-.14-.05-.26-.17-.24-.25.07-.34.84-.59,1.53-.51.31.03.45.17.46.34-.12.43-1.07.67-1.75.42Zm-13.77,58.71s-.15.06-.22.09c-.08,0-.23,0-.24-.02-.32-.42-.78-.83-.37-1.3.1-.11.45-.23.67-.22.21.01.51.17.58.29.22.41-.02.8-.41,1.16Zm-7.12-1.1c-.21.09-.48.14-.7.2-.13-.04-.27-.06-.28-.08-.02-.09-.04-.21.05-.26.28-.16.65-.2,1.01-.09.05.02,0,.19-.09.23Zm-35.22.18c-.32-.04-.48-.17-.49-.34.1-.24.42-.34.86-.33.32,0,.56.1.61.27.09.26-.45.48-.98.4Zm-14.93-1.77c-.68-.03-1.23-.42-1.11-.78.14-.41.72-.66,1.46-.61.65.04,1.03.31.93.66-.12.44-.67.75-1.28.72Zm-2.39-3.25c-.15.04-.53.02-.55,0-.28-.49-1.04-.81-1.48-1.24-.04-.04-.02-.1-.03-.2.11-.09.22-.24.44-.33.32-.14.79-.16,1.08-.02.83.4,1.23.92,1.14,1.51-.01.1-.37.22-.61.29Zm-.99-34.62c-.3-.02-.6-.14-.5-.31.09-.17.45-.15.93-.14.86.12,1.92.24,2.95.42.51.08.73.32.64.61-.08.3-.66.5-1.01.31-.85-.45-1.76-.81-3.01-.89ZM135.31,2.06s.24.19.23.2c-.2.08-.43.15-.65.22-.12-.1-.2-.18-.29-.24.23-.06.46-.14.71-.18Zm126.44,7.04c.42,0,.72.14.83.35.03.06-.14.2-.25.22-.44.05-1.02-.2-.96-.42.02-.06.25-.15.39-.15Zm24.13,15.65c-.78-.49-.57-.84-.41-1.17.03-.05.33-.12.44-.1.15.03.34.15.33.22-.06.29-.19.58-.36,1.05Zm16.94,19.52c-1.23-.03-1.23-.04-1.38-.73-.17-.71-.27-.79-1.67-.72-.94.05-1.78.08-2.65-.35.9-.56,1.58-1.24.91-1.95-.72-.76-.15-1.51-.29-2.27-.09-.49.66-.97,1.65-1.21.8-.19.98.47,1.76.34,0-.57-.04-1.14,0-1.71.01-.19.48-.41.15-.57-.56-.27-.8.15-1.21.21-.71.12-.76-.24-.93-.46-.3-.42.02-.65.79-.59.74.06,1.48.37,2.2-.07.27-.16,1.11-.07.82-.48-.16-.21-.58-.29-.99-.29-.49-.01-.99.02-1.49.03-.4.02-.8.05-1.2.04-.83-.03-1.36-.33-1.02-.73.2-.23.38-.49.45-.74.04-.13-.1-.34-.3-.41-.58-.19-1.23-.34-1.86-.5-.56-.15-.66-.67-1.54-.57-.5.78-1.01,1.51-.25,2.29.17.18.03.42-.36.55-.35.11-.83-.1-.99-.46-.2-.46-.25-.95-.59-1.37-.67-.82-.55-1.67-.09-2.44.38-.65.27-1.1-.58-1.56-.47-.25-.65-.53.09-.76.15-.05.34-.22.33-.22-.58-.27-.24-.75-.78-.98-.34-.15-.92-.16-1.4-.21-.38-.04-.81-.03-1.17-.1-.22-.05-.46-.22-.48-.34-.03-.13.12-.33.32-.41.41-.14.89-.22,1.35-.32.51-.1,1.25.12,1.55-.3-.39-.3-.89-.07-1.34-.08-.62,0-1.3-.03-1.61-.33-.88-.82-2.54-.74-3.92-.97-.59-.1-1.34.21-1.2.52.34.81-.28,1.38-1.27,1.96-.82.47-.2,1,1.13,1.01,1.01,0,2-.01,2.96.18.76.15,1.01.43.41.69-1.44.61-1.53,1.38-1.38,2.27.09.55.49.99.93,1.46.45.47-.15,1.07-1.13,1.28-.16.04-.46.04-.56-.01-.48-.26-.96-.52-1.2-.88-.21-.33-.08-.59.34-.86.7-.45.38-1,.37-1.51,0-.21-.51-.25-.88-.32.12-.81-.02-.91-1.19-.77-.29.03-.56.11-.85.14-.8.08-1.24-.14-.99-.5.74-1.1,1.26-2.2.78-3.37-.17-.41.66-.83.1-1.2-.62-.42-1.5.02-2.26-.07-.09-.01-.2,0-.3-.01-1.29-.07-1.91-.44-1.99-1.15-.04-.28.1-.51.39-.73.17-.13.22-.27.12-.44-.46-.79-1.62-1.15-3.27-.95-.31.04-.44.22-.22.36.24.15.85.31.81.39-.2.4-.79.1-1.21.11-.6.02-.82.25-1.14.44-.21.12-.53.16-.76.03-.12-.06-.18-.19-.18-.28.02-.34.68-.7-.02-1.02-.61-.29-1.37-.44-2.18-.47-.3-.02-.6,0-.9,0-3.81.09-7.57-.28-11.37-.35-.59-.02-1.19-.09-1.77-.15-.43-.05-.74-.21-.63-.44.18-.35.35-.72.71-1.02.49-.41,1.14-.75,2.23-.44.41.12.79,0,.99-.21.37-.36.59-.77,1.15-1.09,1.05-.59,2.09-.5,2.67.25.11.15.16.31.31.44.08.08.3.15.45.15s.42-.1.42-.16c.07-.69.81-1.44-.55-2.04-.12-.06-.04-.3.08-.43.16-.18.61-.28.37-.53-.22-.23-.12-.42.34-.5.74-.15,2-.05,2.25.17.07.07.01.22-.1.28-.35.19-.8.36-.46.66.38.33.97.33,1.57.19.47-.11.94-.12,1.45-.11.82.02,1.23-.3,1.53-.64.08-.08.09-.22.01-.29-.08-.07-.38-.14-.49-.11-1.18.31-2.06.16-2.78-.42-.26-.2-.74-.33-1.21-.53,1.25-.44,2.63-.79,3.76-.54,1.28.29,2.28.15,3.43.01,1.37-.17,2.74-.2,4.17-.15,1.91.06,3.9.22,5.77-.2-.82-.12-1.63-.25-2.51-.23-4.02.06-7.98-.16-11.91-.58-.53-.06-.97-.2-.65-.54.18-.19.44-.36.25-.58-.23-.27-.7-.36-1.22-.38-1.5-.06-3.06-.27-4.49-.14-2.56.24-4.97.01-7.42-.27-2.27-.27-4.58-.25-6.89-.28-.29,0-.65.02-.68.22-.03.18.3.24.56.31.34.1.7.2,1,.33.31.13.22.45-.1.55-.96.3-1.92.2-2.88-.01-.67-.15-.76-.45-.76-.78,0-.42-.36-.72-1.21-.76-3.2-.12-6.41-.36-9.6-.31-2.19.04-4.4.06-6.59.13-1.1.04-2.22-.07-3.3,0-1.9.14-3.76.11-5.65-.09-1.39-.15-2.8-.33-4.03.47-.71.47-2.27.31-3.45.28-1.39-.04-2.79-.27-4.04.26-2.79.03-5.61.18-8.37.03-1.57-.09-3.15-.3-4.74-.24-1.55.07-3.1-.51-4.66.02-.19.07-.6.01-.87-.03-2.59-.4-5.31-.48-7.9-.9-2.09-.33-4.16-.2-5.85.67-.42.22-.86.46-1.51.48-1.6.05-3.2.14-4.79.1-3.19-.08-6.38-.13-9.57-.04-2.1.06-4.15-.14-6.24-.31.34-.46,1.19-.43,1.71-.66.61-.27,1.3-.48,1.96-.72.48-.17.38-.3-.03-.46-.46-.18-.27-.42.12-.49,1.22-.22,2.46-.46,3.79-.37.81.05,1.62,0,2.36-.16,1.24-.28,2.43-.42,3.78-.17.78.15,1.58-.03,2.28-.26.13-.04.23-.18.22-.26-.02-.08-.19-.22-.31-.22-.59-.03-1.2-.05-1.79-.03-3.1.14-6.19.28-9.28.43-.6.03-1.21.07-1.77-.08-.14-.04-.28-.17-.26-.25.01-.07.21-.19.35-.2.69-.05,1.4-.04,2.09-.1.4-.04.99.02,1.06-.34-.51-.14-1.01-.1-1.48-.02-.98.17-1.97.18-2.98.12-.29-.02-.64-.04-.63-.23,0-.07.26-.14.42-.19.16-.06.37-.09.51-.16.11-.07.24-.19.2-.26-.05-.07-.3-.16-.45-.15-.89.05-1.78.15-2.67.19-.81.03-1.17.24-1.52.62-.66.72-1.51.77-2.41.16-.32-.21-.58-.5-1.09-.44-1.61.19-3.45-.22-4.85.49-.25.12-.49.16-.75.05-.73-.3-1.53-.14-2.31-.1-2.6.12-5.2.17-7.8.08-.89-.03-1.39-.23-1.24-.49.17-.29,1.12-.57,1.7-.47.27.05.56.14.71.26.71.55,1.5.55,2.57.25.78-.22,1.71-.28,2.58-.4,1.19-.16,2.36-.2,3.4-.69.88-.42,2.2-.51,3.1.21.31.25.87.23,1.34.07.6-.19,1.19-.4,1.77-.59,2.02-.69,2.09-.69,4.2.06.44.16.75.12.95-.12.11-.14.06-.32.2-.45.32-.31.98-.3,1.26.06.19.24.37.38.83.26.62-.17,1.2-.37,1.78-.58.49-.17,1.26-.2,1.53-.69-1.92.12-3.6.25-5.29.32-2.76.12-5.5.64-8.29.1-.13-.03-.43.03-.5.1-.54.45-1.39.34-2.16.34-.89,0-1.78-.12-2.67.09-.46.11-.98.07-1.44-.07-1.06-.33-2.11-.21-3.17.01-.37.08-.75.2-1.13.19-.7,0-1.5-.07-1.65-.5-.09-.3-.3-.41-.71-.27-1.46.51-3.05.43-4.66.37-.9-.03-1.81-.02-2.7-.08-1.82-.11-3.42.08-4.66.81-.81.48-1.7.49-2.72.28-1.93-.4-3.9-.37-5.91-.21-2.27.18-4.53.45-6.86.26-.38-.04-.84-.02-1.19.06-1.91.43-3.93.35-5.93.35-.6,0-1.23-.02-1.79.06-1.65.23-3.31.42-5.04.35-.43-.02-.79.11-.9.33-.11.24.23.38.55.51.3.12.79.12.84.53-.72.22-1.4.59-1.87,1.06-.56.56-.51,1.01.43,1.36.56.2,1.22.37,1.88.46,1.06.14,2.16.22,3.25.3,1.05.08,1.55.4,1.72.93.14.44-.05.63-.85.6-1.7-.05-3.4-.12-5.09-.22-.4-.02-.82-.12-1.15.02-1,.42-2.13.36-3.14.12-1.05-.25-2.26-.31-3.12-.85-.86-.56-1.83-.41-2.2.24-.29.49-.4,1.02-.69,1.51-.59,1-.72,1.09-2.72,1.11-5.4.07-10.82.1-16.22-.13-2.1-.09-4.19-.3-6.28-.29-2.27.01-4.81,0-5.96,1.33-.7.8-1.76,1.34-3.05,1.85-1.73.68-1.68.71-3.65.71-.32.36.22.69.16,1.06-.08.44-.91.54-1.24.84-.43.41-.76.84-1.09,1.27-.19.25.13.4.56.43.39.03.8-.03,1.19-.04,2.4-.08,2.79.07,3.2,1.27.05.16.02.33.15.46.13.11.52.28.66.25,1.43-.31,2.97.24,4.41-.2.59-.18,1.1.12,1.46.39.25.19,0,.5-.39.45-.94-.12-1.78-.02-2.63.16-.49.1-.88.25-.78.58.07.24-.01.43-.56.43-.44,0-.85-.13-.85-.36-.03-.43-.67-.61-1.17-.57-1.34.1-2.82-.12-3.99.38-.96.42-1.94.5-3.06.21-.24-.06-.67-.1-.83-.03-1,.42-1.77.21-2.67-.13-.72-.27-1.51-.1-2.18.2-.34.15-.72.08-1.07-.07-1.51-.68-1.5-.68-2.32.22-.21.23-.38.46-.47.73-.24.69-.36.71-1.47.73-.4,0-.81.01-1.2-.02-2.5-.18-4.73.34-7.02.71-.27.04-.49.17-.72.27-.5.23-.47.62.07.81.33.11.69.21,1.06.29.99.21,1.66.59,2.04,1.1.48.64,1.24,1.18,2.76,1.89-1.55-.18-2.43-.36-3.28-.22-.93.16-1.77.02-2.63-.12-.16-.03-.41.02-.57.07-.6.17-1.07.53-1.86.43-.98-.12-.82-.67-1.24-1-.11-.09-.2-.18-.31-.27-.25-.19-1.07-.22-1.34-.04-.19.12-.43.25-.46.4-.18.66-1.05,1.08-1.69,1.6-.93.76-2.52,1.43-2.09,2.51-.94.94-.57,1.79.42,2.66.53.47.37.89-.54,1.05-2.03.36-2.44,1.33-3.21,2.14-.46.49-.33,1.02.63,1.4.72.29,1.44.57,2.12.87.2.09.4.25.4.37,0,.17-.35.22-.65.26q-3.65.48-4.8,2.23c-.1.15-.26.29-.33.44-.43.88-.59,1.78.02,2.63.44.62.54,1.17.24,1.82-.43.93-.27,1.83.97,2.67.52.36,1.61.87.71,1.52-.04.03.14.22.27.24,1.2.19,1.24,1.1,2.64,1.15,2.98,1.32,4.94,2.84,3.85,5.01-.2.4-.14.72.61.94.53.16.58.39.44.68-.21.44.27.57.97.54.75-.03,1.53-.03,1.79.38.48.79,1.45,1,2.9.84.11-.01.38.1.42.18.03.07-.12.22-.25.24-.66.12-1.37.16-1.99.32-.42.1-.77.33-1.02.55-.22.19.04.39.28.57.24.18.29.39.12.6-.57.69-.05,1.43-.36,2.16-.21.5.2,1.17.75,1.62.54.43,1.67.08,2.55.08.6,0,1.2.03,1.81.03.83,0,1.61-.09,2.15-.45.5-.33.98-.38,1.81-.23,1.54.28,3.13.3,4.55-.27,1.1-.43,2.13-.43,3.26.06.67.29,1.3.16,1.78-.21.22-.17.39-.36.57-.55.68-.71.82-.73,2.21-.35.61.17,1.26.31,1.86.49.27.08.38.25.24.41-.07.07-.31.15-.45.15-.69-.04-1.38-.11-2.07-.17-.29-.02-.63-.05-.87,0-.23.06-.47.21-.54.34-.09.17.2.28.5.31.89.08,1.88.05,2.65.26,2.13.57,4.42.57,6.71.68.89.04,1.81.08,2.66.21,1.37.22,2.95.4,4.13.25,1.04-.12,1.99-.16,2.88.18.71.27,1.48.27,2.3.21,1.71-.12,3.39-.06,5.05.23.45.08.99.1,1.47.07.51-.03.95-.18.98-.5.02-.24-.28-.41-.67-.47-.57-.08-1.17-.12-1.75-.17-1.29-.1-2.57-.2-3.85-.32-.11,0-.19-.14-.24-.22-.02-.03.1-.1.19-.11.19-.04.38-.06.58-.06,1.4,0,2.83-.05,4.15.25,1.27.29,2.59.02,3.86.14.16.02.35.12.39.2.04.08-.06.21-.19.27-.23.09-.56.12-.79.22-.45.19-.5.44-.16.68.27.19.69.23,1.08.15.92-.21,1.82-.44,2.73-.66l-.04.02s.04,0,.06,0l-.02-.02c1.04-.71,2.61-.72,4.06-.72,2.1-.01,4.2.1,6.3.17.92.03,1.73.19,2.51.46,1.3.44,2.36.38,3.36-.2.33-.2.52-.44,1.09-.47,1-.06,1.53-.4,2.05-.82.8-.62,2.03-.91,3.4-.65,1.01.19,1.89.2,2.89.05,1.53-.22,2.93.22,4.41.32.24.02.48.18.65.31.29.21.5.45.76.67.2.17.41.41.86.26.17-.06.22-.29.19-.43-.13-.68-.36-1.34-1.64-1.77,2.97-.55,4.05-.24,4.01,1.44,0,.05-.02.1,0,.16.05.19.74.35.94.19.73-.59,1.79-.51,2.89-.48,3.79.14,7.59.25,11.39.38.4.01.81.06,1.2.04.43-.02.98.15,1.28-.17-.19-.05-.35-.15-.51-.15-3.31.03-6.56-.24-9.81-.55-.49-.05-1-.03-1.5-.06-.69-.04-1.39-.08-2.08-.16-.32-.04-.85-.03-.71-.37,1.25-.27,2.55-.16,3.84-.12,1.1.03,2.2.05,3.3.04,3.18-.03,6.35.16,9.53.1.2,0,.4.02.59.03,2.77.23,5.55.22,8.33.25.1,0,.2,0,.3,0,.55-.03.65-.16.4-.41-.24-.25.69-.49.16-.69-.36-.13-.98-.06-1.44-.14-.87-.14-.76.4-1.22.45-.97.11-1.98.17-2.97.21-.76.03-1.22-.12-1.55-.56-.45-.58-1.51-.69-2.39-.35-.23.09-.36.25-.57.36-.67.33-1.46.31-2.26.2-.62-.09-1-.46-.94-.89.04-.32.47-.44,1-.47.6-.04,1.19-.1,1.78-.1,2.4,0,4.8.02,7.19.05.91.02,1.24-.14,1.2-.64-.03-.29.59-.42,1.11-.37,2.35.25,4.7.41,7.11.25.37-.03.79.07,1.17.12,1.07.15,1.73-.07,2.12-.6.14-.19.35-.37.57-.55.27-.21,1-.25,1.22,0,.36.43.96.49,1.68.49.4,0,.85-.09,1.19-.02.83.16,1.25-.04,1.77-.33.7-.4,1.56-.66,2.68-.37.33.08.79.04,1.18.03,2.49-.09,4.95-.22,7.46.04,1.45.15,1.55,0,1.25-.85-.07-.2-.06-.42.04-.62.06-.13.29-.29.52-.34.29-.07.6.03.68.2.25.65,1.01.85,2.2.71.29-.03.6.03.89,0,1.17-.07,2.37-.07,2.82-.84.14-.22.7-.18,1.03-.06.31.12.57.29.78.46.39.31.83.36,1.52.24,1.12-.17,2.39-.08,3.22-.69.42-.31,1.07-.21,1.59.01.36.16.61.47,1.22.32.49-.11.63-.38.76-.64.08-.15.16-.31.32-.43.37-.3,1.35-.4,1.88-.19.51.2.37.45.12.7-.05.05-.11.09-.14.14-.17.25.02.43.5.45.79.03,1.59-.03,2.37.02,1.83.1,1.82.12,2.67-.7.18-.17.27-.4.94-.42.45.65,1.34.96,2.77.71.58-.1.93.08,1.09.38.21.38.79.5,1.4.34,1.27-.33,2.52-.22,3.81-.08.98.1,2,.19,2.98.05,1.27-.18,2.5-.31,3.84-.15.88.1,1.45-.24,1.47-.77,0-.25-.11-.51-.11-.76,0-.08.18-.2.33-.24.3-.08.6-.02.78.11.17.13.31.28.36.43.31.87,1.51,1.18,3,1.3.49.04,1,.04,1.49.08,1.94.15,1.93.16,1.84-.97,0-.09.1-.19.17-.33.27.07.68.11.74.22.47.73,1.71.82,2.86.96,1.08.14,1.91-.06,2.57-.56.87-.66,1.08-.69,2.01-.28,1.31.58,2.68.81,4.4.64,1.48-.15,3.01-.11,4.39.26.83.22,1.56.21,2.24-.06,1.05-.41,2.03-.36,3.05,0,.24.09.5.18.78.23.56.09,1.01-.03,1.26-.29.18-.17.19-.39.29-.59.3-.59.7-.66,1.61-.24.91.43,1.83.82,3.08.92.53.04,1,.02,1.29-.26.14-.14.25-.29.43-.42.79-.53,1.51-.58,2.53-.14.54.23,1.01.51,1.56.73.7.28,1.32.22,1.77-.16.53-.44.99-.91,1.53-1.35.41-.33,1.08-.34,1.45-.03.16.13.3.28.4.42.46.69,1.51,1,2.7,1.27.56.12.91.15,1.27-.11.18-.12.39-.24.64-.33,1.38-.46,2.1-.4,3.33.28.35.19.65.41,1.2.42.18,0,.37-.05.54-.1.06-.02.11-.09.09-.13-.06-.09-.12-.19-.24-.27-1.27-.83-.62-1.69-.15-2.53.15-.25.71-.37,1.24-.36.46.01.64.21.75.42.23.45.44.91.73,1.36.3.47.94.65,1.85.59,1.09-.07,1.83-.36,2.26-.9.49-.62.04-1.06-1.23-1.07-.3,0-.59.07-.89.07-1.09-.02-1.59-.32-1.5-.91.03-.21.08-.42.15-.62.14-.44.61-.62,1.73-.66.72-.02,1.13.15,1.12.55-.01.6.75.81,1.73.87.49.03,1,.03,1.5,0,.44-.03.77-.18.62-.43-.29-.46-.08-.73.89-.72.9,0,1.72-.14,2.65-.36.1.3.15.56.27.81.07.14.19.36.38.39.62.1.46-.23.61-.38.22-.21.59-.27,1-.26,1.29.03,2.03-.38,2.62-.89.43-.37.76-.78,1.15-1.18-.52-.16-.94-.28-1.36-.41.68-.63.7-.66,1.66-.51.58.09,1.15.25,1.75.15,1.89-.33,3.97-.34,5.71-.92.58-.2.88-.21,1.4.16.54.38,1.97.12,2.1-.32.09-.31.04-.62.02-.94-.05-.57-.13-1.15-.18-1.72-.02-.22.17-.41.57-.5.57-.13.96.02,1.24.27.33.3.57.66,1.47.67.06-.5-.43-.92-.3-1.4.15-.54,1.02-.75,1.49-1.13.05-.04.01-.11.06-.15.48-.43.53-.45,1.2-.1.43.23.96.59,1.44.31,1.17-.67,2.99-.54,4.26-1.09.89-.38,2.36-.28,3.05-.89.63-.57.07-1.21.68-1.86-1.85-.03-3.52-.05-5.2-.09"/></g></svg>