<?xml version="1.0" encoding="UTF-8"?><svg id="Calque_1" xmlns="http://www.w3.org/2000/svg" xmlns:xlink="http://www.w3.org/1999/xlink" viewBox="0 0 47 47"><defs><style>.cls-1{fill:#468371;}.cls-2{clip-path:url(#clippath-1);}.cls-3{clip-path:url(#clippath);}.cls-4{fill:none;}.cls-5{fill:#f1b668;}</style><clipPath id="clippath"><rect class="cls-4" x="17.85" y="43.63" width="10.94" height="3.37"/></clipPath><clipPath id="clippath-1"><rect class="cls-4" x="15.75" width="15.15" height="8.09"/></clipPath></defs><path class="cls-1" d="m20.98,39.67c-1.14,0-2.2-.3-3.1-.82v.77c0,1.5,1.39,2.73,3.1,2.73h4.71c1.71,0,3.1-1.22,3.1-2.73v-.77c-.89.52-1.96.82-3.1.82h-4.71"/><g class="cls-3"><path class="cls-1" d="m20.98,44.6c-1.14,0-2.2-.27-3.1-.74v.69c0,1.35,1.39,2.44,3.1,2.44h4.71c1.71,0,3.1-1.1,3.1-2.44v-.69c-.89.46-1.96.74-3.1.74h-4.71"/></g><path class="cls-1" d="m20.99,34.95c-1.14,0-2.21-.32-3.1-.86v.44c0,1.47,1.39,2.66,3.1,2.66h4.71c1.71,0,3.1-1.19,3.1-2.66v-.44c-.9.54-1.96.86-3.1.86h-4.7"/><path class="cls-1" d="m25.69,32.46c.24,0,.48-.03.71-.08-.54-.94-1.12-1.71-1.71-2.24-1.03-.94-1.68-.94-2.71,0-.58.53-1.16,1.29-1.7,2.23.23.05.46.08.71.08h4.7"/><path class="cls-1" d="m20.83,15.4c-.56,0-1.1-.05-1.6-.14.74.54,2.19,1.34,3.34,1.34h1.54c1.14,0,2.58-.8,3.33-1.34-.51.09-1.04.14-1.59.14h-5.01"/><path class="cls-5" d="m10.87,12.93v-.33c.01.11.02.22,0,.33Zm34.68,4.38c-.28-1.91-.7-4.11-1.62-6.05-1.63-3.42-4.09-4.14-5.87-4.14-2.53,0-4.7,1.19-5.38,2.97-1.08,2.81-1.95,5.73-5.58,8.07-1.96,1.3-5.44,1.37-7.52,0-3.62-2.33-4.49-5.25-5.58-8.07-.68-1.77-2.85-2.97-5.38-2.97-1.77,0-4.23.72-5.86,4.14-.93,1.94-1.34,4.14-1.62,6.05-.65,4.33.05,8.51,2.14,12.79,1.71,3.49,3.74,6.78,8.02,6.78,2.51,0,4.67-1.18,5.37-2.93.68-1.7,1.83-4.05,3.48-5.56,2.06-1.89,4.32-1.9,6.38,0,1.66,1.52,2.82,3.87,3.49,5.57.7,1.75,2.86,2.93,5.37,2.93,4.22,0,6.25-3.15,8.02-6.78,2.09-4.28,2.79-8.46,2.14-12.78"/><path class="cls-1" d="m29,9.4c-.38.21-.79.39-1.23.52-.79.23-1.61.31-2.39.25h0c-1.32-.1-2.76-.1-4.07,0h0c-.79.06-1.61-.02-2.39-.25-.44-.13-.85-.31-1.23-.52,0,1.74,1.5,2.92,3.15,2.92h5.01c1.65,0,3.15-1.17,3.15-2.92"/><g class="cls-2"><path class="cls-1" d="m16.7,3.15c.98,1.35,1.06,1.45,1.13,2.45.06.87.79,1.63,1.87,1.95.44.13.92.18,1.4.15,1.47-.11,3.01-.11,4.49,0,.5.04.98-.02,1.4-.15,1.08-.32,1.81-1.09,1.87-1.95.07-1,.15-1.1,1.13-2.45.15-.21.33-.45.53-.73.77-1.07-.22-2.42-1.86-2.42h-2.26c-.79,0-1.51.33-1.88.88l-.65.96c-.24.35-.8.35-1.04,0l-.66-.97c-.37-.54-1.09-.87-1.88-.87h-2.26c-1.64,0-2.62,1.35-1.85,2.42.2.27.37.52.53.73"/></g></svg>