<?xml version="1.0" encoding="UTF-8"?>
<svg id="Calque_1" xmlns="http://www.w3.org/2000/svg" viewBox="0 0 96.52 20.79">
  <defs>
    <style>.cls-1 {
      fill: #deb891;
    }</style>
  </defs>
  <path class="cls-1"
        d="m91.96,1.28c-.72.1-16.99-.07-35.92-.39-2.46-.04-5.4-.09-6.55-.1-5.98-.05-11.64-.18-19.75-.44C15.53-.1,10.01-.11,4.21.28,1.57.47,1.09.69.67,1.95c-.28.83-.31,1.19-.5,5.47-.37,8.31.04,10.96,1.79,11.75.59.26,6.85.62,15.8.88,7.76.22,16.66.22,25.68-.03,14.17-.39,29.9-.17,44.6.61,5.12.27,6.05.2,6.79-.62.45-.5,1.05-1.96,1.34-3.27.29-1.26.45-5.67.3-8.25-.19-3.61-.61-5.2-1.62-6.3-.4-.44-2.23-1.01-2.88-.92Z"/>
</svg>
