<svg xmlns="http://www.w3.org/2000/svg" xmlns:xlink="http://www.w3.org/1999/xlink" width="500" zoomAndPan="magnify"
  viewBox="0 0 375 374.999991" height="500" preserveAspectRatio="xMidYMid meet" version="1.0">
  <defs>
    <clipPath id="58fb14cf38">
      <path d="M 25.199219 0 L 307.199219 0 L 307.199219 375 L 25.199219 375 Z M 25.199219 0 " clip-rule="nonzero" />
    </clipPath>
    <clipPath id="e8673cbf99">
      <path d="M 271.039062 0 L 375 0 L 375 104.25 L 271.039062 104.25 Z M 271.039062 0 " clip-rule="nonzero" />
    </clipPath>
  </defs>
  <g clip-path="url(#58fb14cf38)">
    <path fill="#3d7661"
      d="M 68.027344 227.953125 L 264.875 227.953125 C 288.394531 227.953125 307.492188 208.738281 307.492188 185.203125 C 307.492188 162.160156 288.9375 143.253906 266.402344 142.484375 L 266.402344 142.539062 L 109.148438 142.539062 C 102.429688 142.539062 96.984375 137.058594 96.984375 130.335938 C 96.984375 123.613281 102.429688 118.132812 109.148438 118.132812 L 223.753906 118.132812 C 247.273438 118.132812 266.335938 99.089844 266.335938 75.558594 C 266.335938 52.023438 247.273438 32.980469 223.753906 32.980469 L 181.574219 32.980469 L 181.574219 0.0898438 L 151.355469 0.0898438 L 151.355469 48.105469 C 151.355469 56.507812 158.296875 63.222656 166.695312 63.222656 L 223.753906 63.222656 C 230.472656 63.222656 235.921875 68.699219 235.921875 75.425781 C 235.921875 82.148438 230.472656 87.628906 223.753906 87.628906 L 109.148438 87.628906 C 85.632812 87.628906 66.566406 106.667969 66.566406 130.203125 C 66.566406 153.734375 85.632812 172.777344 109.148438 172.777344 L 264.875 172.777344 C 271.597656 172.777344 277.042969 178.257812 277.042969 184.980469 C 277.042969 191.703125 271.597656 197.183594 264.875 197.183594 L 68.027344 197.183594 C 44.507812 197.183594 25.445312 216.355469 25.445312 239.890625 C 25.445312 263.421875 44.507812 282.597656 68.027344 282.597656 L 181.308594 282.597656 L 181.308594 282.332031 L 223.753906 282.332031 C 230.472656 282.332031 235.921875 287.8125 235.921875 294.535156 C 235.921875 301.257812 230.472656 306.738281 223.753906 306.738281 L 166.695312 306.738281 C 158.296875 306.738281 151.355469 313.378906 151.355469 321.78125 L 151.355469 374.910156 L 181.574219 374.910156 L 181.574219 337.242188 L 223.753906 337.242188 C 247.273438 337.242188 266.335938 318.199219 266.335938 294.667969 C 266.335938 271.132812 247.273438 252.09375 223.753906 252.09375 L 68.027344 252.09375 C 61.308594 252.09375 55.859375 246.746094 55.859375 240.023438 C 55.859375 233.300781 61.308594 227.953125 68.027344 227.953125 Z M 68.027344 227.953125 "
      fill-opacity="1" fill-rule="nonzero" />
  </g>
  <g clip-path="url(#e8673cbf99)">
    <path fill="#d29e5b"
      d="M 369.496094 46.332031 L 328.953125 46.332031 L 328.953125 5.792969 C 328.953125 2.59375 326.359375 0 323.164062 0 C 319.964844 0 317.371094 2.59375 317.371094 5.792969 L 317.371094 46.332031 L 276.828125 46.332031 C 273.632812 46.332031 271.039062 48.929688 271.039062 52.125 C 271.039062 55.320312 273.632812 57.917969 276.828125 57.917969 L 317.371094 57.917969 L 317.371094 98.457031 C 317.371094 101.65625 319.964844 104.25 323.164062 104.25 C 326.359375 104.25 328.953125 101.65625 328.953125 98.457031 L 328.953125 57.917969 L 369.496094 57.917969 C 372.691406 57.917969 375.289062 55.320312 375.289062 52.125 C 375.289062 48.929688 372.691406 46.332031 369.496094 46.332031 Z M 369.496094 46.332031 "
      fill-opacity="1" fill-rule="nonzero" />
  </g>
</svg>